<svg width="40" height="40" viewBox="0 0 40 40" fill="none" xmlns="http://www.w3.org/2000/svg">
<circle cx="20" cy="20" r="20" fill="#391F85"/>
<path d="M16.9803 27.0588L21.3077 29.87L28.3729 27.0588L31.0224 30.1637H8.9436L11.0632 29.87L13.7126 28.87L16.9803 27.0588Z" fill="#EF7959"/>
<path fill-rule="evenodd" clip-rule="evenodd" d="M32.8797 30.6811H7.91211V30.0217H32.8797V30.6811Z" fill="#E6F7FF"/>
<path d="M16.8878 10.982L20.9115 7.91211L24.3162 10.4995L26.9987 10.982L29.0621 10.4995L31.0224 11.2757H8.9436L11.0632 10.982L13.7126 9.98202L16.8878 10.982Z" fill="#F6C427" fill-opacity="0.75"/>
<path fill-rule="evenodd" clip-rule="evenodd" d="M32.8797 11.7931H7.91211V11.1338H32.8797V11.7931Z" fill="#E6F7FF"/>
<path d="M17.8646 14.8982L22.1331 21.8492L26.6372 20.7723L31.8478 22.1429H9.76904L12.0505 18.9528L13.8315 20.3807L17.8646 14.8982Z" fill="#4DC8F0"/>
<path fill-rule="evenodd" clip-rule="evenodd" d="M32.8797 22.6603H7.91211V22.001H32.8797V22.6603Z" fill="#E6F7FF"/>
</svg>
