<svg width="40" height="40" viewBox="0 0 40 40" fill="none" xmlns="http://www.w3.org/2000/svg">
<circle cx="20" cy="20" r="20" fill="#4DC8F0"/>
<path d="M29.5011 27.8954C29.5011 30.0363 27.7051 31.772 25.4897 31.772C23.2742 31.772 21.4783 30.0363 21.4783 27.8954C21.4783 25.7544 23.2742 24.0188 25.4897 24.0188C27.7051 24.0188 29.5011 25.7544 29.5011 27.8954Z" fill="#F0C03E"/>
<path d="M13.455 16.2654C13.455 17.5686 12.3618 18.6251 11.0133 18.6251C9.66473 18.6251 8.57153 17.5686 8.57153 16.2654C8.57153 14.9622 9.66473 13.9058 11.0133 13.9058C12.3618 13.9058 13.455 14.9622 13.455 16.2654Z" fill="#F0C03E"/>
<path d="M26.5356 12.8102C26.5356 14.2531 25.3253 15.4227 23.8322 15.4227C22.3392 15.4227 21.1289 14.2531 21.1289 12.8102C21.1289 11.3674 22.3392 10.1978 23.8322 10.1978C25.3253 10.1978 26.5356 11.3674 26.5356 12.8102Z" fill="#EF7959"/>
<path d="M17.0903 10.0743C17.2476 10.0743 17.3752 9.95101 17.3752 9.79897C17.3752 9.64693 17.2476 9.52368 17.0903 9.52368C16.933 9.52368 16.8054 9.64693 16.8054 9.79897C16.8054 9.95101 16.933 10.0743 17.0903 10.0743Z" fill="#391F85"/>
<path d="M16.259 10.8772C16.4163 10.8772 16.5439 10.754 16.5439 10.602C16.5439 10.4499 16.4163 10.3267 16.259 10.3267C16.1017 10.3267 15.9741 10.4499 15.9741 10.602C15.9741 10.754 16.1017 10.8772 16.259 10.8772Z" fill="#391F85"/>
<path d="M17.0903 10.8772C17.2476 10.8772 17.3752 10.754 17.3752 10.602C17.3752 10.4499 17.2476 10.3267 17.0903 10.3267C16.933 10.3267 16.8054 10.4499 16.8054 10.602C16.8054 10.754 16.933 10.8772 17.0903 10.8772Z" fill="#391F85"/>
<path d="M17.9213 10.8772C18.0787 10.8772 18.2062 10.754 18.2062 10.602C18.2062 10.4499 18.0787 10.3267 17.9213 10.3267C17.764 10.3267 17.6365 10.4499 17.6365 10.602C17.6365 10.754 17.764 10.8772 17.9213 10.8772Z" fill="#391F85"/>
<path d="M15.4284 11.68C15.5858 11.68 15.7133 11.5567 15.7133 11.4047C15.7133 11.2526 15.5858 11.1294 15.4284 11.1294C15.2711 11.1294 15.1436 11.2526 15.1436 11.4047C15.1436 11.5567 15.2711 11.68 15.4284 11.68Z" fill="#391F85"/>
<path d="M16.259 11.68C16.4163 11.68 16.5439 11.5567 16.5439 11.4047C16.5439 11.2526 16.4163 11.1294 16.259 11.1294C16.1017 11.1294 15.9741 11.2526 15.9741 11.4047C15.9741 11.5567 16.1017 11.68 16.259 11.68Z" fill="#391F85"/>
<path d="M17.0903 11.68C17.2476 11.68 17.3752 11.5567 17.3752 11.4047C17.3752 11.2526 17.2476 11.1294 17.0903 11.1294C16.933 11.1294 16.8054 11.2526 16.8054 11.4047C16.8054 11.5567 16.933 11.68 17.0903 11.68Z" fill="#391F85"/>
<path d="M17.9213 11.68C18.0787 11.68 18.2062 11.5567 18.2062 11.4047C18.2062 11.2526 18.0787 11.1294 17.9213 11.1294C17.764 11.1294 17.6365 11.2526 17.6365 11.4047C17.6365 11.5567 17.764 11.68 17.9213 11.68Z" fill="#391F85"/>
<path d="M18.7282 11.68C18.8856 11.68 19.0131 11.5567 19.0131 11.4047C19.0131 11.2526 18.8856 11.1294 18.7282 11.1294C18.5709 11.1294 18.4434 11.2526 18.4434 11.4047C18.4434 11.5567 18.5709 11.68 18.7282 11.68Z" fill="#391F85"/>
<path d="M14.5979 12.483C14.7552 12.483 14.8827 12.3597 14.8827 12.2077C14.8827 12.0556 14.7552 11.9324 14.5979 11.9324C14.4405 11.9324 14.313 12.0556 14.313 12.2077C14.313 12.3597 14.4405 12.483 14.5979 12.483Z" fill="#391F85"/>
<path d="M15.4284 12.483C15.5858 12.483 15.7133 12.3597 15.7133 12.2077C15.7133 12.0556 15.5858 11.9324 15.4284 11.9324C15.2711 11.9324 15.1436 12.0556 15.1436 12.2077C15.1436 12.3597 15.2711 12.483 15.4284 12.483Z" fill="#391F85"/>
<path d="M16.259 12.483C16.4163 12.483 16.5439 12.3597 16.5439 12.2077C16.5439 12.0556 16.4163 11.9324 16.259 11.9324C16.1017 11.9324 15.9741 12.0556 15.9741 12.2077C15.9741 12.3597 16.1017 12.483 16.259 12.483Z" fill="#391F85"/>
<path d="M17.0903 12.483C17.2476 12.483 17.3752 12.3597 17.3752 12.2077C17.3752 12.0556 17.2476 11.9324 17.0903 11.9324C16.933 11.9324 16.8054 12.0556 16.8054 12.2077C16.8054 12.3597 16.933 12.483 17.0903 12.483Z" fill="#391F85"/>
<path d="M17.9213 12.483C18.0787 12.483 18.2062 12.3597 18.2062 12.2077C18.2062 12.0556 18.0787 11.9324 17.9213 11.9324C17.764 11.9324 17.6365 12.0556 17.6365 12.2077C17.6365 12.3597 17.764 12.483 17.9213 12.483Z" fill="#391F85"/>
<path d="M18.7282 12.483C18.8856 12.483 19.0131 12.3597 19.0131 12.2077C19.0131 12.0556 18.8856 11.9324 18.7282 11.9324C18.5709 11.9324 18.4434 12.0556 18.4434 12.2077C18.4434 12.3597 18.5709 12.483 18.7282 12.483Z" fill="#391F85"/>
<path d="M19.559 12.483C19.7164 12.483 19.8439 12.3597 19.8439 12.2077C19.8439 12.0556 19.7164 11.9324 19.559 11.9324C19.4017 11.9324 19.2742 12.0556 19.2742 12.2077C19.2742 12.3597 19.4017 12.483 19.559 12.483Z" fill="#391F85"/>
<path d="M20.3901 12.483C20.5474 12.483 20.675 12.3597 20.675 12.2077C20.675 12.0556 20.5474 11.9324 20.3901 11.9324C20.2328 11.9324 20.1052 12.0556 20.1052 12.2077C20.1052 12.3597 20.2328 12.483 20.3901 12.483Z" fill="#391F85"/>
<path d="M13.7668 13.2859C13.9241 13.2859 14.0517 13.1627 14.0517 13.0106C14.0517 12.8586 13.9241 12.7354 13.7668 12.7354C13.6095 12.7354 13.4819 12.8586 13.4819 13.0106C13.4819 13.1627 13.6095 13.2859 13.7668 13.2859Z" fill="#391F85"/>
<path d="M14.5979 13.2859C14.7552 13.2859 14.8827 13.1627 14.8827 13.0106C14.8827 12.8586 14.7552 12.7354 14.5979 12.7354C14.4405 12.7354 14.313 12.8586 14.313 13.0106C14.313 13.1627 14.4405 13.2859 14.5979 13.2859Z" fill="#391F85"/>
<path d="M15.4284 13.2859C15.5858 13.2859 15.7133 13.1627 15.7133 13.0106C15.7133 12.8586 15.5858 12.7354 15.4284 12.7354C15.2711 12.7354 15.1436 12.8586 15.1436 13.0106C15.1436 13.1627 15.2711 13.2859 15.4284 13.2859Z" fill="#391F85"/>
<path d="M16.259 13.2859C16.4163 13.2859 16.5439 13.1627 16.5439 13.0106C16.5439 12.8586 16.4163 12.7354 16.259 12.7354C16.1017 12.7354 15.9741 12.8586 15.9741 13.0106C15.9741 13.1627 16.1017 13.2859 16.259 13.2859Z" fill="#391F85"/>
<path d="M17.0903 13.2859C17.2476 13.2859 17.3752 13.1627 17.3752 13.0106C17.3752 12.8586 17.2476 12.7354 17.0903 12.7354C16.933 12.7354 16.8054 12.8586 16.8054 13.0106C16.8054 13.1627 16.933 13.2859 17.0903 13.2859Z" fill="#391F85"/>
<path d="M17.9213 13.2859C18.0787 13.2859 18.2062 13.1627 18.2062 13.0106C18.2062 12.8586 18.0787 12.7354 17.9213 12.7354C17.764 12.7354 17.6365 12.8586 17.6365 13.0106C17.6365 13.1627 17.764 13.2859 17.9213 13.2859Z" fill="#391F85"/>
<path d="M18.7282 13.2859C18.8856 13.2859 19.0131 13.1627 19.0131 13.0106C19.0131 12.8586 18.8856 12.7354 18.7282 12.7354C18.5709 12.7354 18.4434 12.8586 18.4434 13.0106C18.4434 13.1627 18.5709 13.2859 18.7282 13.2859Z" fill="#391F85"/>
<path d="M19.559 13.2859C19.7164 13.2859 19.8439 13.1627 19.8439 13.0106C19.8439 12.8586 19.7164 12.7354 19.559 12.7354C19.4017 12.7354 19.2742 12.8586 19.2742 13.0106C19.2742 13.1627 19.4017 13.2859 19.559 13.2859Z" fill="#391F85"/>
<path d="M20.3901 13.2859C20.5474 13.2859 20.675 13.1627 20.675 13.0106C20.675 12.8586 20.5474 12.7354 20.3901 12.7354C20.2328 12.7354 20.1052 12.8586 20.1052 13.0106C20.1052 13.1627 20.2328 13.2859 20.3901 13.2859Z" fill="#391F85"/>
<path d="M21.2207 13.2859C21.378 13.2859 21.5055 13.1627 21.5055 13.0106C21.5055 12.8586 21.378 12.7354 21.2207 12.7354C21.0633 12.7354 20.9358 12.8586 20.9358 13.0106C20.9358 13.1627 21.0633 13.2859 21.2207 13.2859Z" fill="#391F85"/>
<path d="M22.052 13.2859C22.2093 13.2859 22.3368 13.1627 22.3368 13.0106C22.3368 12.8586 22.2093 12.7354 22.052 12.7354C21.8946 12.7354 21.7671 12.8586 21.7671 13.0106C21.7671 13.1627 21.8946 13.2859 22.052 13.2859Z" fill="#391F85"/>
<path d="M22.8828 13.2859C23.0401 13.2859 23.1676 13.1627 23.1676 13.0106C23.1676 12.8586 23.0401 12.7354 22.8828 12.7354C22.7254 12.7354 22.5979 12.8586 22.5979 13.0106C22.5979 13.1627 22.7254 13.2859 22.8828 13.2859Z" fill="#391F85"/>
<path d="M23.6899 13.2859C23.8472 13.2859 23.9748 13.1627 23.9748 13.0106C23.9748 12.8586 23.8472 12.7354 23.6899 12.7354C23.5326 12.7354 23.405 12.8586 23.405 13.0106C23.405 13.1627 23.5326 13.2859 23.6899 13.2859Z" fill="#391F85"/>
<path d="M13.7668 14.066C13.9241 14.066 14.0517 13.9427 14.0517 13.7907C14.0517 13.6386 13.9241 13.5154 13.7668 13.5154C13.6095 13.5154 13.4819 13.6386 13.4819 13.7907C13.4819 13.9427 13.6095 14.066 13.7668 14.066Z" fill="#391F85"/>
<path d="M14.5979 14.066C14.7552 14.066 14.8827 13.9427 14.8827 13.7907C14.8827 13.6386 14.7552 13.5154 14.5979 13.5154C14.4405 13.5154 14.313 13.6386 14.313 13.7907C14.313 13.9427 14.4405 14.066 14.5979 14.066Z" fill="#391F85"/>
<path d="M15.4284 14.066C15.5858 14.066 15.7133 13.9427 15.7133 13.7907C15.7133 13.6386 15.5858 13.5154 15.4284 13.5154C15.2711 13.5154 15.1436 13.6386 15.1436 13.7907C15.1436 13.9427 15.2711 14.066 15.4284 14.066Z" fill="#391F85"/>
<path d="M16.259 14.066C16.4163 14.066 16.5439 13.9427 16.5439 13.7907C16.5439 13.6386 16.4163 13.5154 16.259 13.5154C16.1017 13.5154 15.9741 13.6386 15.9741 13.7907C15.9741 13.9427 16.1017 14.066 16.259 14.066Z" fill="#391F85"/>
<path d="M17.0903 14.066C17.2476 14.066 17.3752 13.9427 17.3752 13.7907C17.3752 13.6386 17.2476 13.5154 17.0903 13.5154C16.933 13.5154 16.8054 13.6386 16.8054 13.7907C16.8054 13.9427 16.933 14.066 17.0903 14.066Z" fill="#391F85"/>
<path d="M17.9213 14.066C18.0787 14.066 18.2062 13.9427 18.2062 13.7907C18.2062 13.6386 18.0787 13.5154 17.9213 13.5154C17.764 13.5154 17.6365 13.6386 17.6365 13.7907C17.6365 13.9427 17.764 14.066 17.9213 14.066Z" fill="#391F85"/>
<path d="M18.7282 14.066C18.8856 14.066 19.0131 13.9427 19.0131 13.7907C19.0131 13.6386 18.8856 13.5154 18.7282 13.5154C18.5709 13.5154 18.4434 13.6386 18.4434 13.7907C18.4434 13.9427 18.5709 14.066 18.7282 14.066Z" fill="#391F85"/>
<path d="M19.559 14.066C19.7164 14.066 19.8439 13.9427 19.8439 13.7907C19.8439 13.6386 19.7164 13.5154 19.559 13.5154C19.4017 13.5154 19.2742 13.6386 19.2742 13.7907C19.2742 13.9427 19.4017 14.066 19.559 14.066Z" fill="#391F85"/>
<path d="M20.3901 14.066C20.5474 14.066 20.675 13.9427 20.675 13.7907C20.675 13.6386 20.5474 13.5154 20.3901 13.5154C20.2328 13.5154 20.1052 13.6386 20.1052 13.7907C20.1052 13.9427 20.2328 14.066 20.3901 14.066Z" fill="#391F85"/>
<path d="M21.2207 14.066C21.378 14.066 21.5055 13.9427 21.5055 13.7907C21.5055 13.6386 21.378 13.5154 21.2207 13.5154C21.0633 13.5154 20.9358 13.6386 20.9358 13.7907C20.9358 13.9427 21.0633 14.066 21.2207 14.066Z" fill="#391F85"/>
<path d="M22.052 14.066C22.2093 14.066 22.3368 13.9427 22.3368 13.7907C22.3368 13.6386 22.2093 13.5154 22.052 13.5154C21.8946 13.5154 21.7671 13.6386 21.7671 13.7907C21.7671 13.9427 21.8946 14.066 22.052 14.066Z" fill="#391F85"/>
<path d="M22.8828 14.066C23.0401 14.066 23.1676 13.9427 23.1676 13.7907C23.1676 13.6386 23.0401 13.5154 22.8828 13.5154C22.7254 13.5154 22.5979 13.6386 22.5979 13.7907C22.5979 13.9427 22.7254 14.066 22.8828 14.066Z" fill="#391F85"/>
<path d="M23.6899 14.066C23.8472 14.066 23.9748 13.9427 23.9748 13.7907C23.9748 13.6386 23.8472 13.5154 23.6899 13.5154C23.5326 13.5154 23.405 13.6386 23.405 13.7907C23.405 13.9427 23.5326 14.066 23.6899 14.066Z" fill="#391F85"/>
<path d="M12.9597 14.8689C13.117 14.8689 13.2445 14.7457 13.2445 14.5937C13.2445 14.4416 13.117 14.3184 12.9597 14.3184C12.8023 14.3184 12.6748 14.4416 12.6748 14.5937C12.6748 14.7457 12.8023 14.8689 12.9597 14.8689Z" fill="#391F85"/>
<path d="M13.7668 14.8689C13.9241 14.8689 14.0517 14.7457 14.0517 14.5937C14.0517 14.4416 13.9241 14.3184 13.7668 14.3184C13.6095 14.3184 13.4819 14.4416 13.4819 14.5937C13.4819 14.7457 13.6095 14.8689 13.7668 14.8689Z" fill="#391F85"/>
<path d="M14.5979 14.8689C14.7552 14.8689 14.8827 14.7457 14.8827 14.5937C14.8827 14.4416 14.7552 14.3184 14.5979 14.3184C14.4405 14.3184 14.313 14.4416 14.313 14.5937C14.313 14.7457 14.4405 14.8689 14.5979 14.8689Z" fill="#391F85"/>
<path d="M15.4284 14.8689C15.5858 14.8689 15.7133 14.7457 15.7133 14.5937C15.7133 14.4416 15.5858 14.3184 15.4284 14.3184C15.2711 14.3184 15.1436 14.4416 15.1436 14.5937C15.1436 14.7457 15.2711 14.8689 15.4284 14.8689Z" fill="#391F85"/>
<path d="M16.259 14.8689C16.4163 14.8689 16.5439 14.7457 16.5439 14.5937C16.5439 14.4416 16.4163 14.3184 16.259 14.3184C16.1017 14.3184 15.9741 14.4416 15.9741 14.5937C15.9741 14.7457 16.1017 14.8689 16.259 14.8689Z" fill="#391F85"/>
<path d="M17.0903 14.8689C17.2476 14.8689 17.3752 14.7457 17.3752 14.5937C17.3752 14.4416 17.2476 14.3184 17.0903 14.3184C16.933 14.3184 16.8054 14.4416 16.8054 14.5937C16.8054 14.7457 16.933 14.8689 17.0903 14.8689Z" fill="#391F85"/>
<path d="M17.9213 14.8689C18.0787 14.8689 18.2062 14.7457 18.2062 14.5937C18.2062 14.4416 18.0787 14.3184 17.9213 14.3184C17.764 14.3184 17.6365 14.4416 17.6365 14.5937C17.6365 14.7457 17.764 14.8689 17.9213 14.8689Z" fill="#391F85"/>
<path d="M18.7282 14.8689C18.8856 14.8689 19.0131 14.7457 19.0131 14.5937C19.0131 14.4416 18.8856 14.3184 18.7282 14.3184C18.5709 14.3184 18.4434 14.4416 18.4434 14.5937C18.4434 14.7457 18.5709 14.8689 18.7282 14.8689Z" fill="#391F85"/>
<path d="M19.559 14.8689C19.7164 14.8689 19.8439 14.7457 19.8439 14.5937C19.8439 14.4416 19.7164 14.3184 19.559 14.3184C19.4017 14.3184 19.2742 14.4416 19.2742 14.5937C19.2742 14.7457 19.4017 14.8689 19.559 14.8689Z" fill="#391F85"/>
<path d="M20.3901 14.8689C20.5474 14.8689 20.675 14.7457 20.675 14.5937C20.675 14.4416 20.5474 14.3184 20.3901 14.3184C20.2328 14.3184 20.1052 14.4416 20.1052 14.5937C20.1052 14.7457 20.2328 14.8689 20.3901 14.8689Z" fill="#391F85"/>
<path d="M21.2207 14.8689C21.378 14.8689 21.5055 14.7457 21.5055 14.5937C21.5055 14.4416 21.378 14.3184 21.2207 14.3184C21.0633 14.3184 20.9358 14.4416 20.9358 14.5937C20.9358 14.7457 21.0633 14.8689 21.2207 14.8689Z" fill="#391F85"/>
<path d="M22.052 14.8689C22.2093 14.8689 22.3368 14.7457 22.3368 14.5937C22.3368 14.4416 22.2093 14.3184 22.052 14.3184C21.8946 14.3184 21.7671 14.4416 21.7671 14.5937C21.7671 14.7457 21.8946 14.8689 22.052 14.8689Z" fill="#391F85"/>
<path d="M22.8828 14.8689C23.0401 14.8689 23.1676 14.7457 23.1676 14.5937C23.1676 14.4416 23.0401 14.3184 22.8828 14.3184C22.7254 14.3184 22.5979 14.4416 22.5979 14.5937C22.5979 14.7457 22.7254 14.8689 22.8828 14.8689Z" fill="#391F85"/>
<path d="M23.6899 14.8689C23.8472 14.8689 23.9748 14.7457 23.9748 14.5937C23.9748 14.4416 23.8472 14.3184 23.6899 14.3184C23.5326 14.3184 23.405 14.4416 23.405 14.5937C23.405 14.7457 23.5326 14.8689 23.6899 14.8689Z" fill="#391F85"/>
<path d="M12.1291 15.6719C12.2864 15.6719 12.414 15.5487 12.414 15.3966C12.414 15.2446 12.2864 15.1213 12.1291 15.1213C11.9718 15.1213 11.8442 15.2446 11.8442 15.3966C11.8442 15.5487 11.9718 15.6719 12.1291 15.6719Z" fill="#391F85"/>
<path d="M12.9597 15.6719C13.117 15.6719 13.2445 15.5487 13.2445 15.3966C13.2445 15.2446 13.117 15.1213 12.9597 15.1213C12.8023 15.1213 12.6748 15.2446 12.6748 15.3966C12.6748 15.5487 12.8023 15.6719 12.9597 15.6719Z" fill="#391F85"/>
<path d="M13.7668 15.6719C13.9241 15.6719 14.0517 15.5487 14.0517 15.3966C14.0517 15.2446 13.9241 15.1213 13.7668 15.1213C13.6095 15.1213 13.4819 15.2446 13.4819 15.3966C13.4819 15.5487 13.6095 15.6719 13.7668 15.6719Z" fill="#391F85"/>
<path d="M14.5979 15.6719C14.7552 15.6719 14.8827 15.5487 14.8827 15.3966C14.8827 15.2446 14.7552 15.1213 14.5979 15.1213C14.4405 15.1213 14.313 15.2446 14.313 15.3966C14.313 15.5487 14.4405 15.6719 14.5979 15.6719Z" fill="#391F85"/>
<path d="M15.4284 15.6719C15.5858 15.6719 15.7133 15.5487 15.7133 15.3966C15.7133 15.2446 15.5858 15.1213 15.4284 15.1213C15.2711 15.1213 15.1436 15.2446 15.1436 15.3966C15.1436 15.5487 15.2711 15.6719 15.4284 15.6719Z" fill="#391F85"/>
<path d="M16.259 15.6719C16.4163 15.6719 16.5439 15.5487 16.5439 15.3966C16.5439 15.2446 16.4163 15.1213 16.259 15.1213C16.1017 15.1213 15.9741 15.2446 15.9741 15.3966C15.9741 15.5487 16.1017 15.6719 16.259 15.6719Z" fill="#391F85"/>
<path d="M17.0903 15.6719C17.2476 15.6719 17.3752 15.5487 17.3752 15.3966C17.3752 15.2446 17.2476 15.1213 17.0903 15.1213C16.933 15.1213 16.8054 15.2446 16.8054 15.3966C16.8054 15.5487 16.933 15.6719 17.0903 15.6719Z" fill="#391F85"/>
<path d="M17.9213 15.6719C18.0787 15.6719 18.2062 15.5487 18.2062 15.3966C18.2062 15.2446 18.0787 15.1213 17.9213 15.1213C17.764 15.1213 17.6365 15.2446 17.6365 15.3966C17.6365 15.5487 17.764 15.6719 17.9213 15.6719Z" fill="#391F85"/>
<path d="M18.7282 15.6719C18.8856 15.6719 19.0131 15.5487 19.0131 15.3966C19.0131 15.2446 18.8856 15.1213 18.7282 15.1213C18.5709 15.1213 18.4434 15.2446 18.4434 15.3966C18.4434 15.5487 18.5709 15.6719 18.7282 15.6719Z" fill="#391F85"/>
<path d="M19.559 15.6719C19.7164 15.6719 19.8439 15.5487 19.8439 15.3966C19.8439 15.2446 19.7164 15.1213 19.559 15.1213C19.4017 15.1213 19.2742 15.2446 19.2742 15.3966C19.2742 15.5487 19.4017 15.6719 19.559 15.6719Z" fill="#391F85"/>
<path d="M20.3901 15.6719C20.5474 15.6719 20.675 15.5487 20.675 15.3966C20.675 15.2446 20.5474 15.1213 20.3901 15.1213C20.2328 15.1213 20.1052 15.2446 20.1052 15.3966C20.1052 15.5487 20.2328 15.6719 20.3901 15.6719Z" fill="#391F85"/>
<path d="M21.2207 15.6719C21.378 15.6719 21.5055 15.5487 21.5055 15.3966C21.5055 15.2446 21.378 15.1213 21.2207 15.1213C21.0633 15.1213 20.9358 15.2446 20.9358 15.3966C20.9358 15.5487 21.0633 15.6719 21.2207 15.6719Z" fill="#391F85"/>
<path d="M22.052 15.6719C22.2093 15.6719 22.3368 15.5487 22.3368 15.3966C22.3368 15.2446 22.2093 15.1213 22.052 15.1213C21.8946 15.1213 21.7671 15.2446 21.7671 15.3966C21.7671 15.5487 21.8946 15.6719 22.052 15.6719Z" fill="#391F85"/>
<path d="M22.8828 15.6719C23.0401 15.6719 23.1676 15.5487 23.1676 15.3966C23.1676 15.2446 23.0401 15.1213 22.8828 15.1213C22.7254 15.1213 22.5979 15.2446 22.5979 15.3966C22.5979 15.5487 22.7254 15.6719 22.8828 15.6719Z" fill="#391F85"/>
<path d="M23.6899 15.6719C23.8472 15.6719 23.9748 15.5487 23.9748 15.3966C23.9748 15.2446 23.8472 15.1213 23.6899 15.1213C23.5326 15.1213 23.405 15.2446 23.405 15.3966C23.405 15.5487 23.5326 15.6719 23.6899 15.6719Z" fill="#391F85"/>
<path d="M11.2978 16.4749C11.4551 16.4749 11.5827 16.3516 11.5827 16.1996C11.5827 16.0476 11.4551 15.9243 11.2978 15.9243C11.1405 15.9243 11.0129 16.0476 11.0129 16.1996C11.0129 16.3516 11.1405 16.4749 11.2978 16.4749Z" fill="#391F85"/>
<path d="M12.1291 16.4749C12.2864 16.4749 12.414 16.3516 12.414 16.1996C12.414 16.0476 12.2864 15.9243 12.1291 15.9243C11.9718 15.9243 11.8442 16.0476 11.8442 16.1996C11.8442 16.3516 11.9718 16.4749 12.1291 16.4749Z" fill="#391F85"/>
<path d="M12.9597 16.4749C13.117 16.4749 13.2445 16.3516 13.2445 16.1996C13.2445 16.0476 13.117 15.9243 12.9597 15.9243C12.8023 15.9243 12.6748 16.0476 12.6748 16.1996C12.6748 16.3516 12.8023 16.4749 12.9597 16.4749Z" fill="#391F85"/>
<path d="M13.7668 16.4749C13.9241 16.4749 14.0517 16.3516 14.0517 16.1996C14.0517 16.0476 13.9241 15.9243 13.7668 15.9243C13.6095 15.9243 13.4819 16.0476 13.4819 16.1996C13.4819 16.3516 13.6095 16.4749 13.7668 16.4749Z" fill="#391F85"/>
<path d="M14.5979 16.4749C14.7552 16.4749 14.8827 16.3516 14.8827 16.1996C14.8827 16.0476 14.7552 15.9243 14.5979 15.9243C14.4405 15.9243 14.313 16.0476 14.313 16.1996C14.313 16.3516 14.4405 16.4749 14.5979 16.4749Z" fill="#391F85"/>
<path d="M15.4284 16.4749C15.5858 16.4749 15.7133 16.3516 15.7133 16.1996C15.7133 16.0476 15.5858 15.9243 15.4284 15.9243C15.2711 15.9243 15.1436 16.0476 15.1436 16.1996C15.1436 16.3516 15.2711 16.4749 15.4284 16.4749Z" fill="#391F85"/>
<path d="M16.259 16.4749C16.4163 16.4749 16.5439 16.3516 16.5439 16.1996C16.5439 16.0476 16.4163 15.9243 16.259 15.9243C16.1017 15.9243 15.9741 16.0476 15.9741 16.1996C15.9741 16.3516 16.1017 16.4749 16.259 16.4749Z" fill="#391F85"/>
<path d="M17.0903 16.4749C17.2476 16.4749 17.3752 16.3516 17.3752 16.1996C17.3752 16.0476 17.2476 15.9243 17.0903 15.9243C16.933 15.9243 16.8054 16.0476 16.8054 16.1996C16.8054 16.3516 16.933 16.4749 17.0903 16.4749Z" fill="#391F85"/>
<path d="M17.9213 16.4749C18.0787 16.4749 18.2062 16.3516 18.2062 16.1996C18.2062 16.0476 18.0787 15.9243 17.9213 15.9243C17.764 15.9243 17.6365 16.0476 17.6365 16.1996C17.6365 16.3516 17.764 16.4749 17.9213 16.4749Z" fill="#391F85"/>
<path d="M18.7282 16.4749C18.8856 16.4749 19.0131 16.3516 19.0131 16.1996C19.0131 16.0476 18.8856 15.9243 18.7282 15.9243C18.5709 15.9243 18.4434 16.0476 18.4434 16.1996C18.4434 16.3516 18.5709 16.4749 18.7282 16.4749Z" fill="#391F85"/>
<path d="M19.559 16.4749C19.7164 16.4749 19.8439 16.3516 19.8439 16.1996C19.8439 16.0476 19.7164 15.9243 19.559 15.9243C19.4017 15.9243 19.2742 16.0476 19.2742 16.1996C19.2742 16.3516 19.4017 16.4749 19.559 16.4749Z" fill="#391F85"/>
<path d="M20.3901 16.4749C20.5474 16.4749 20.675 16.3516 20.675 16.1996C20.675 16.0476 20.5474 15.9243 20.3901 15.9243C20.2328 15.9243 20.1052 16.0476 20.1052 16.1996C20.1052 16.3516 20.2328 16.4749 20.3901 16.4749Z" fill="#391F85"/>
<path d="M21.2207 16.4749C21.378 16.4749 21.5055 16.3516 21.5055 16.1996C21.5055 16.0476 21.378 15.9243 21.2207 15.9243C21.0633 15.9243 20.9358 16.0476 20.9358 16.1996C20.9358 16.3516 21.0633 16.4749 21.2207 16.4749Z" fill="#391F85"/>
<path d="M22.052 16.4749C22.2093 16.4749 22.3368 16.3516 22.3368 16.1996C22.3368 16.0476 22.2093 15.9243 22.052 15.9243C21.8946 15.9243 21.7671 16.0476 21.7671 16.1996C21.7671 16.3516 21.8946 16.4749 22.052 16.4749Z" fill="#391F85"/>
<path d="M22.8828 16.4749C23.0401 16.4749 23.1676 16.3516 23.1676 16.1996C23.1676 16.0476 23.0401 15.9243 22.8828 15.9243C22.7254 15.9243 22.5979 16.0476 22.5979 16.1996C22.5979 16.3516 22.7254 16.4749 22.8828 16.4749Z" fill="#391F85"/>
<path d="M23.6899 16.4749C23.8472 16.4749 23.9748 16.3516 23.9748 16.1996C23.9748 16.0476 23.8472 15.9243 23.6899 15.9243C23.5326 15.9243 23.405 16.0476 23.405 16.1996C23.405 16.3516 23.5326 16.4749 23.6899 16.4749Z" fill="#391F85"/>
<path d="M11.2978 17.2774C11.4551 17.2774 11.5827 17.1541 11.5827 17.0021C11.5827 16.8501 11.4551 16.7268 11.2978 16.7268C11.1405 16.7268 11.0129 16.8501 11.0129 17.0021C11.0129 17.1541 11.1405 17.2774 11.2978 17.2774Z" fill="#391F85"/>
<path d="M12.1291 17.2774C12.2864 17.2774 12.414 17.1541 12.414 17.0021C12.414 16.8501 12.2864 16.7268 12.1291 16.7268C11.9718 16.7268 11.8442 16.8501 11.8442 17.0021C11.8442 17.1541 11.9718 17.2774 12.1291 17.2774Z" fill="#391F85"/>
<path d="M12.9597 17.2774C13.117 17.2774 13.2445 17.1541 13.2445 17.0021C13.2445 16.8501 13.117 16.7268 12.9597 16.7268C12.8023 16.7268 12.6748 16.8501 12.6748 17.0021C12.6748 17.1541 12.8023 17.2774 12.9597 17.2774Z" fill="#391F85"/>
<path d="M13.7668 17.2774C13.9241 17.2774 14.0517 17.1541 14.0517 17.0021C14.0517 16.8501 13.9241 16.7268 13.7668 16.7268C13.6095 16.7268 13.4819 16.8501 13.4819 17.0021C13.4819 17.1541 13.6095 17.2774 13.7668 17.2774Z" fill="#391F85"/>
<path d="M14.5979 17.2774C14.7552 17.2774 14.8827 17.1541 14.8827 17.0021C14.8827 16.8501 14.7552 16.7268 14.5979 16.7268C14.4405 16.7268 14.313 16.8501 14.313 17.0021C14.313 17.1541 14.4405 17.2774 14.5979 17.2774Z" fill="#391F85"/>
<path d="M15.4284 17.2774C15.5858 17.2774 15.7133 17.1541 15.7133 17.0021C15.7133 16.8501 15.5858 16.7268 15.4284 16.7268C15.2711 16.7268 15.1436 16.8501 15.1436 17.0021C15.1436 17.1541 15.2711 17.2774 15.4284 17.2774Z" fill="#391F85"/>
<path d="M16.259 17.2774C16.4163 17.2774 16.5439 17.1541 16.5439 17.0021C16.5439 16.8501 16.4163 16.7268 16.259 16.7268C16.1017 16.7268 15.9741 16.8501 15.9741 17.0021C15.9741 17.1541 16.1017 17.2774 16.259 17.2774Z" fill="#391F85"/>
<path d="M17.0903 17.2774C17.2476 17.2774 17.3752 17.1541 17.3752 17.0021C17.3752 16.8501 17.2476 16.7268 17.0903 16.7268C16.933 16.7268 16.8054 16.8501 16.8054 17.0021C16.8054 17.1541 16.933 17.2774 17.0903 17.2774Z" fill="#391F85"/>
<path d="M17.9213 17.2774C18.0787 17.2774 18.2062 17.1541 18.2062 17.0021C18.2062 16.8501 18.0787 16.7268 17.9213 16.7268C17.764 16.7268 17.6365 16.8501 17.6365 17.0021C17.6365 17.1541 17.764 17.2774 17.9213 17.2774Z" fill="#391F85"/>
<path d="M18.7282 17.2774C18.8856 17.2774 19.0131 17.1541 19.0131 17.0021C19.0131 16.8501 18.8856 16.7268 18.7282 16.7268C18.5709 16.7268 18.4434 16.8501 18.4434 17.0021C18.4434 17.1541 18.5709 17.2774 18.7282 17.2774Z" fill="#391F85"/>
<path d="M19.559 17.2774C19.7164 17.2774 19.8439 17.1541 19.8439 17.0021C19.8439 16.8501 19.7164 16.7268 19.559 16.7268C19.4017 16.7268 19.2742 16.8501 19.2742 17.0021C19.2742 17.1541 19.4017 17.2774 19.559 17.2774Z" fill="#391F85"/>
<path d="M20.3901 17.2774C20.5474 17.2774 20.675 17.1541 20.675 17.0021C20.675 16.8501 20.5474 16.7268 20.3901 16.7268C20.2328 16.7268 20.1052 16.8501 20.1052 17.0021C20.1052 17.1541 20.2328 17.2774 20.3901 17.2774Z" fill="#391F85"/>
<path d="M21.2207 17.2774C21.378 17.2774 21.5055 17.1541 21.5055 17.0021C21.5055 16.8501 21.378 16.7268 21.2207 16.7268C21.0633 16.7268 20.9358 16.8501 20.9358 17.0021C20.9358 17.1541 21.0633 17.2774 21.2207 17.2774Z" fill="#391F85"/>
<path d="M22.052 17.2774C22.2093 17.2774 22.3368 17.1541 22.3368 17.0021C22.3368 16.8501 22.2093 16.7268 22.052 16.7268C21.8946 16.7268 21.7671 16.8501 21.7671 17.0021C21.7671 17.1541 21.8946 17.2774 22.052 17.2774Z" fill="#391F85"/>
<path d="M22.8828 17.2774C23.0401 17.2774 23.1676 17.1541 23.1676 17.0021C23.1676 16.8501 23.0401 16.7268 22.8828 16.7268C22.7254 16.7268 22.5979 16.8501 22.5979 17.0021C22.5979 17.1541 22.7254 17.2774 22.8828 17.2774Z" fill="#391F85"/>
<path d="M23.6899 17.2774C23.8472 17.2774 23.9748 17.1541 23.9748 17.0021C23.9748 16.8501 23.8472 16.7268 23.6899 16.7268C23.5326 16.7268 23.405 16.8501 23.405 17.0021C23.405 17.1541 23.5326 17.2774 23.6899 17.2774Z" fill="#391F85"/>
<path d="M24.5207 17.2774C24.678 17.2774 24.8056 17.1541 24.8056 17.0021C24.8056 16.8501 24.678 16.7268 24.5207 16.7268C24.3634 16.7268 24.2358 16.8501 24.2358 17.0021C24.2358 17.1541 24.3634 17.2774 24.5207 17.2774Z" fill="#391F85"/>
<path d="M11.2978 18.0809C11.4551 18.0809 11.5827 17.9576 11.5827 17.8056C11.5827 17.6535 11.4551 17.5303 11.2978 17.5303C11.1405 17.5303 11.0129 17.6535 11.0129 17.8056C11.0129 17.9576 11.1405 18.0809 11.2978 18.0809Z" fill="#391F85"/>
<path d="M12.1291 18.0809C12.2864 18.0809 12.414 17.9576 12.414 17.8056C12.414 17.6535 12.2864 17.5303 12.1291 17.5303C11.9718 17.5303 11.8442 17.6535 11.8442 17.8056C11.8442 17.9576 11.9718 18.0809 12.1291 18.0809Z" fill="#391F85"/>
<path d="M12.9597 18.0809C13.117 18.0809 13.2445 17.9576 13.2445 17.8056C13.2445 17.6535 13.117 17.5303 12.9597 17.5303C12.8023 17.5303 12.6748 17.6535 12.6748 17.8056C12.6748 17.9576 12.8023 18.0809 12.9597 18.0809Z" fill="#391F85"/>
<path d="M13.7668 18.0809C13.9241 18.0809 14.0517 17.9576 14.0517 17.8056C14.0517 17.6535 13.9241 17.5303 13.7668 17.5303C13.6095 17.5303 13.4819 17.6535 13.4819 17.8056C13.4819 17.9576 13.6095 18.0809 13.7668 18.0809Z" fill="#391F85"/>
<path d="M14.5979 18.0809C14.7552 18.0809 14.8827 17.9576 14.8827 17.8056C14.8827 17.6535 14.7552 17.5303 14.5979 17.5303C14.4405 17.5303 14.313 17.6535 14.313 17.8056C14.313 17.9576 14.4405 18.0809 14.5979 18.0809Z" fill="#391F85"/>
<path d="M15.4284 18.0809C15.5858 18.0809 15.7133 17.9576 15.7133 17.8056C15.7133 17.6535 15.5858 17.5303 15.4284 17.5303C15.2711 17.5303 15.1436 17.6535 15.1436 17.8056C15.1436 17.9576 15.2711 18.0809 15.4284 18.0809Z" fill="#391F85"/>
<path d="M16.259 18.0809C16.4163 18.0809 16.5439 17.9576 16.5439 17.8056C16.5439 17.6535 16.4163 17.5303 16.259 17.5303C16.1017 17.5303 15.9741 17.6535 15.9741 17.8056C15.9741 17.9576 16.1017 18.0809 16.259 18.0809Z" fill="#391F85"/>
<path d="M17.0903 18.0809C17.2476 18.0809 17.3752 17.9576 17.3752 17.8056C17.3752 17.6535 17.2476 17.5303 17.0903 17.5303C16.933 17.5303 16.8054 17.6535 16.8054 17.8056C16.8054 17.9576 16.933 18.0809 17.0903 18.0809Z" fill="#391F85"/>
<path d="M17.9213 18.0809C18.0787 18.0809 18.2062 17.9576 18.2062 17.8056C18.2062 17.6535 18.0787 17.5303 17.9213 17.5303C17.764 17.5303 17.6365 17.6535 17.6365 17.8056C17.6365 17.9576 17.764 18.0809 17.9213 18.0809Z" fill="#391F85"/>
<path d="M18.7282 18.0809C18.8856 18.0809 19.0131 17.9576 19.0131 17.8056C19.0131 17.6535 18.8856 17.5303 18.7282 17.5303C18.5709 17.5303 18.4434 17.6535 18.4434 17.8056C18.4434 17.9576 18.5709 18.0809 18.7282 18.0809Z" fill="#391F85"/>
<path d="M19.559 18.0809C19.7164 18.0809 19.8439 17.9576 19.8439 17.8056C19.8439 17.6535 19.7164 17.5303 19.559 17.5303C19.4017 17.5303 19.2742 17.6535 19.2742 17.8056C19.2742 17.9576 19.4017 18.0809 19.559 18.0809Z" fill="#391F85"/>
<path d="M20.3901 18.0809C20.5474 18.0809 20.675 17.9576 20.675 17.8056C20.675 17.6535 20.5474 17.5303 20.3901 17.5303C20.2328 17.5303 20.1052 17.6535 20.1052 17.8056C20.1052 17.9576 20.2328 18.0809 20.3901 18.0809Z" fill="#391F85"/>
<path d="M21.2207 18.0809C21.378 18.0809 21.5055 17.9576 21.5055 17.8056C21.5055 17.6535 21.378 17.5303 21.2207 17.5303C21.0633 17.5303 20.9358 17.6535 20.9358 17.8056C20.9358 17.9576 21.0633 18.0809 21.2207 18.0809Z" fill="#391F85"/>
<path d="M22.052 18.0809C22.2093 18.0809 22.3368 17.9576 22.3368 17.8056C22.3368 17.6535 22.2093 17.5303 22.052 17.5303C21.8946 17.5303 21.7671 17.6535 21.7671 17.8056C21.7671 17.9576 21.8946 18.0809 22.052 18.0809Z" fill="#391F85"/>
<path d="M22.8828 18.0809C23.0401 18.0809 23.1676 17.9576 23.1676 17.8056C23.1676 17.6535 23.0401 17.5303 22.8828 17.5303C22.7254 17.5303 22.5979 17.6535 22.5979 17.8056C22.5979 17.9576 22.7254 18.0809 22.8828 18.0809Z" fill="#391F85"/>
<path d="M23.6899 18.0809C23.8472 18.0809 23.9748 17.9576 23.9748 17.8056C23.9748 17.6535 23.8472 17.5303 23.6899 17.5303C23.5326 17.5303 23.405 17.6535 23.405 17.8056C23.405 17.9576 23.5326 18.0809 23.6899 18.0809Z" fill="#391F85"/>
<path d="M24.5207 18.0809C24.678 18.0809 24.8056 17.9576 24.8056 17.8056C24.8056 17.6535 24.678 17.5303 24.5207 17.5303C24.3634 17.5303 24.2358 17.6535 24.2358 17.8056C24.2358 17.9576 24.3634 18.0809 24.5207 18.0809Z" fill="#391F85"/>
<path d="M11.2978 18.8606C11.4551 18.8606 11.5827 18.7374 11.5827 18.5854C11.5827 18.4333 11.4551 18.3101 11.2978 18.3101C11.1405 18.3101 11.0129 18.4333 11.0129 18.5854C11.0129 18.7374 11.1405 18.8606 11.2978 18.8606Z" fill="#391F85"/>
<path d="M12.1291 18.8606C12.2864 18.8606 12.414 18.7374 12.414 18.5854C12.414 18.4333 12.2864 18.3101 12.1291 18.3101C11.9718 18.3101 11.8442 18.4333 11.8442 18.5854C11.8442 18.7374 11.9718 18.8606 12.1291 18.8606Z" fill="#391F85"/>
<path d="M12.9597 18.8606C13.117 18.8606 13.2445 18.7374 13.2445 18.5854C13.2445 18.4333 13.117 18.3101 12.9597 18.3101C12.8023 18.3101 12.6748 18.4333 12.6748 18.5854C12.6748 18.7374 12.8023 18.8606 12.9597 18.8606Z" fill="#391F85"/>
<path d="M13.7668 18.8606C13.9241 18.8606 14.0517 18.7374 14.0517 18.5854C14.0517 18.4333 13.9241 18.3101 13.7668 18.3101C13.6095 18.3101 13.4819 18.4333 13.4819 18.5854C13.4819 18.7374 13.6095 18.8606 13.7668 18.8606Z" fill="#391F85"/>
<path d="M14.5979 18.8606C14.7552 18.8606 14.8827 18.7374 14.8827 18.5854C14.8827 18.4333 14.7552 18.3101 14.5979 18.3101C14.4405 18.3101 14.313 18.4333 14.313 18.5854C14.313 18.7374 14.4405 18.8606 14.5979 18.8606Z" fill="#391F85"/>
<path d="M15.4284 18.8606C15.5858 18.8606 15.7133 18.7374 15.7133 18.5854C15.7133 18.4333 15.5858 18.3101 15.4284 18.3101C15.2711 18.3101 15.1436 18.4333 15.1436 18.5854C15.1436 18.7374 15.2711 18.8606 15.4284 18.8606Z" fill="#391F85"/>
<path d="M16.259 18.8606C16.4163 18.8606 16.5439 18.7374 16.5439 18.5854C16.5439 18.4333 16.4163 18.3101 16.259 18.3101C16.1017 18.3101 15.9741 18.4333 15.9741 18.5854C15.9741 18.7374 16.1017 18.8606 16.259 18.8606Z" fill="#391F85"/>
<path d="M17.0903 18.8606C17.2476 18.8606 17.3752 18.7374 17.3752 18.5854C17.3752 18.4333 17.2476 18.3101 17.0903 18.3101C16.933 18.3101 16.8054 18.4333 16.8054 18.5854C16.8054 18.7374 16.933 18.8606 17.0903 18.8606Z" fill="#391F85"/>
<path d="M17.9213 18.8606C18.0787 18.8606 18.2062 18.7374 18.2062 18.5854C18.2062 18.4333 18.0787 18.3101 17.9213 18.3101C17.764 18.3101 17.6365 18.4333 17.6365 18.5854C17.6365 18.7374 17.764 18.8606 17.9213 18.8606Z" fill="#391F85"/>
<path d="M18.7282 18.8606C18.8856 18.8606 19.0131 18.7374 19.0131 18.5854C19.0131 18.4333 18.8856 18.3101 18.7282 18.3101C18.5709 18.3101 18.4434 18.4333 18.4434 18.5854C18.4434 18.7374 18.5709 18.8606 18.7282 18.8606Z" fill="#391F85"/>
<path d="M19.559 18.8606C19.7164 18.8606 19.8439 18.7374 19.8439 18.5854C19.8439 18.4333 19.7164 18.3101 19.559 18.3101C19.4017 18.3101 19.2742 18.4333 19.2742 18.5854C19.2742 18.7374 19.4017 18.8606 19.559 18.8606Z" fill="#391F85"/>
<path d="M20.3901 18.8606C20.5474 18.8606 20.675 18.7374 20.675 18.5854C20.675 18.4333 20.5474 18.3101 20.3901 18.3101C20.2328 18.3101 20.1052 18.4333 20.1052 18.5854C20.1052 18.7374 20.2328 18.8606 20.3901 18.8606Z" fill="#391F85"/>
<path d="M21.2207 18.8606C21.378 18.8606 21.5055 18.7374 21.5055 18.5854C21.5055 18.4333 21.378 18.3101 21.2207 18.3101C21.0633 18.3101 20.9358 18.4333 20.9358 18.5854C20.9358 18.7374 21.0633 18.8606 21.2207 18.8606Z" fill="#391F85"/>
<path d="M22.052 18.8606C22.2093 18.8606 22.3368 18.7374 22.3368 18.5854C22.3368 18.4333 22.2093 18.3101 22.052 18.3101C21.8946 18.3101 21.7671 18.4333 21.7671 18.5854C21.7671 18.7374 21.8946 18.8606 22.052 18.8606Z" fill="#391F85"/>
<path d="M22.8828 18.8606C23.0401 18.8606 23.1676 18.7374 23.1676 18.5854C23.1676 18.4333 23.0401 18.3101 22.8828 18.3101C22.7254 18.3101 22.5979 18.4333 22.5979 18.5854C22.5979 18.7374 22.7254 18.8606 22.8828 18.8606Z" fill="#391F85"/>
<path d="M23.6899 18.8606C23.8472 18.8606 23.9748 18.7374 23.9748 18.5854C23.9748 18.4333 23.8472 18.3101 23.6899 18.3101C23.5326 18.3101 23.405 18.4333 23.405 18.5854C23.405 18.7374 23.5326 18.8606 23.6899 18.8606Z" fill="#391F85"/>
<path d="M24.5207 18.8606C24.678 18.8606 24.8056 18.7374 24.8056 18.5854C24.8056 18.4333 24.678 18.3101 24.5207 18.3101C24.3634 18.3101 24.2358 18.4333 24.2358 18.5854C24.2358 18.7374 24.3634 18.8606 24.5207 18.8606Z" fill="#391F85"/>
<path d="M25.3513 18.8606C25.5086 18.8606 25.6361 18.7374 25.6361 18.5854C25.6361 18.4333 25.5086 18.3101 25.3513 18.3101C25.1939 18.3101 25.0664 18.4333 25.0664 18.5854C25.0664 18.7374 25.1939 18.8606 25.3513 18.8606Z" fill="#391F85"/>
<path d="M11.2978 19.6634C11.4551 19.6634 11.5827 19.5401 11.5827 19.3881C11.5827 19.236 11.4551 19.1128 11.2978 19.1128C11.1405 19.1128 11.0129 19.236 11.0129 19.3881C11.0129 19.5401 11.1405 19.6634 11.2978 19.6634Z" fill="#391F85"/>
<path d="M12.1291 19.6634C12.2864 19.6634 12.414 19.5401 12.414 19.3881C12.414 19.236 12.2864 19.1128 12.1291 19.1128C11.9718 19.1128 11.8442 19.236 11.8442 19.3881C11.8442 19.5401 11.9718 19.6634 12.1291 19.6634Z" fill="#391F85"/>
<path d="M12.9597 19.6634C13.117 19.6634 13.2445 19.5401 13.2445 19.3881C13.2445 19.236 13.117 19.1128 12.9597 19.1128C12.8023 19.1128 12.6748 19.236 12.6748 19.3881C12.6748 19.5401 12.8023 19.6634 12.9597 19.6634Z" fill="#391F85"/>
<path d="M13.7668 19.6634C13.9241 19.6634 14.0517 19.5401 14.0517 19.3881C14.0517 19.236 13.9241 19.1128 13.7668 19.1128C13.6095 19.1128 13.4819 19.236 13.4819 19.3881C13.4819 19.5401 13.6095 19.6634 13.7668 19.6634Z" fill="#391F85"/>
<path d="M14.5979 19.6634C14.7552 19.6634 14.8827 19.5401 14.8827 19.3881C14.8827 19.236 14.7552 19.1128 14.5979 19.1128C14.4405 19.1128 14.313 19.236 14.313 19.3881C14.313 19.5401 14.4405 19.6634 14.5979 19.6634Z" fill="#391F85"/>
<path d="M15.4284 19.6634C15.5858 19.6634 15.7133 19.5401 15.7133 19.3881C15.7133 19.236 15.5858 19.1128 15.4284 19.1128C15.2711 19.1128 15.1436 19.236 15.1436 19.3881C15.1436 19.5401 15.2711 19.6634 15.4284 19.6634Z" fill="#391F85"/>
<path d="M16.259 19.6634C16.4163 19.6634 16.5439 19.5401 16.5439 19.3881C16.5439 19.236 16.4163 19.1128 16.259 19.1128C16.1017 19.1128 15.9741 19.236 15.9741 19.3881C15.9741 19.5401 16.1017 19.6634 16.259 19.6634Z" fill="#391F85"/>
<path d="M17.0903 19.6634C17.2476 19.6634 17.3752 19.5401 17.3752 19.3881C17.3752 19.236 17.2476 19.1128 17.0903 19.1128C16.933 19.1128 16.8054 19.236 16.8054 19.3881C16.8054 19.5401 16.933 19.6634 17.0903 19.6634Z" fill="#391F85"/>
<path d="M17.9213 19.6634C18.0787 19.6634 18.2062 19.5401 18.2062 19.3881C18.2062 19.236 18.0787 19.1128 17.9213 19.1128C17.764 19.1128 17.6365 19.236 17.6365 19.3881C17.6365 19.5401 17.764 19.6634 17.9213 19.6634Z" fill="#391F85"/>
<path d="M18.7282 19.6634C18.8856 19.6634 19.0131 19.5401 19.0131 19.3881C19.0131 19.236 18.8856 19.1128 18.7282 19.1128C18.5709 19.1128 18.4434 19.236 18.4434 19.3881C18.4434 19.5401 18.5709 19.6634 18.7282 19.6634Z" fill="#391F85"/>
<path d="M19.559 19.6634C19.7164 19.6634 19.8439 19.5401 19.8439 19.3881C19.8439 19.236 19.7164 19.1128 19.559 19.1128C19.4017 19.1128 19.2742 19.236 19.2742 19.3881C19.2742 19.5401 19.4017 19.6634 19.559 19.6634Z" fill="#391F85"/>
<path d="M20.3901 19.6634C20.5474 19.6634 20.675 19.5401 20.675 19.3881C20.675 19.236 20.5474 19.1128 20.3901 19.1128C20.2328 19.1128 20.1052 19.236 20.1052 19.3881C20.1052 19.5401 20.2328 19.6634 20.3901 19.6634Z" fill="#391F85"/>
<path d="M21.2207 19.6634C21.378 19.6634 21.5055 19.5401 21.5055 19.3881C21.5055 19.236 21.378 19.1128 21.2207 19.1128C21.0633 19.1128 20.9358 19.236 20.9358 19.3881C20.9358 19.5401 21.0633 19.6634 21.2207 19.6634Z" fill="#391F85"/>
<path d="M22.052 19.6634C22.2093 19.6634 22.3368 19.5401 22.3368 19.3881C22.3368 19.236 22.2093 19.1128 22.052 19.1128C21.8946 19.1128 21.7671 19.236 21.7671 19.3881C21.7671 19.5401 21.8946 19.6634 22.052 19.6634Z" fill="#391F85"/>
<path d="M22.8828 19.6634C23.0401 19.6634 23.1676 19.5401 23.1676 19.3881C23.1676 19.236 23.0401 19.1128 22.8828 19.1128C22.7254 19.1128 22.5979 19.236 22.5979 19.3881C22.5979 19.5401 22.7254 19.6634 22.8828 19.6634Z" fill="#391F85"/>
<path d="M23.6899 19.6634C23.8472 19.6634 23.9748 19.5401 23.9748 19.3881C23.9748 19.236 23.8472 19.1128 23.6899 19.1128C23.5326 19.1128 23.405 19.236 23.405 19.3881C23.405 19.5401 23.5326 19.6634 23.6899 19.6634Z" fill="#391F85"/>
<path d="M24.5207 19.6634C24.678 19.6634 24.8056 19.5401 24.8056 19.3881C24.8056 19.236 24.678 19.1128 24.5207 19.1128C24.3634 19.1128 24.2358 19.236 24.2358 19.3881C24.2358 19.5401 24.3634 19.6634 24.5207 19.6634Z" fill="#391F85"/>
<path d="M25.3513 19.6634C25.5086 19.6634 25.6361 19.5401 25.6361 19.3881C25.6361 19.236 25.5086 19.1128 25.3513 19.1128C25.1939 19.1128 25.0664 19.236 25.0664 19.3881C25.0664 19.5401 25.1939 19.6634 25.3513 19.6634Z" fill="#391F85"/>
<path d="M26.1823 19.6634C26.3397 19.6634 26.4672 19.5401 26.4672 19.3881C26.4672 19.236 26.3397 19.1128 26.1823 19.1128C26.025 19.1128 25.8975 19.236 25.8975 19.3881C25.8975 19.5401 26.025 19.6634 26.1823 19.6634Z" fill="#391F85"/>
<path d="M11.2978 20.4664C11.4551 20.4664 11.5827 20.3431 11.5827 20.1911C11.5827 20.039 11.4551 19.9158 11.2978 19.9158C11.1405 19.9158 11.0129 20.039 11.0129 20.1911C11.0129 20.3431 11.1405 20.4664 11.2978 20.4664Z" fill="#391F85"/>
<path d="M12.1291 20.4664C12.2864 20.4664 12.414 20.3431 12.414 20.1911C12.414 20.039 12.2864 19.9158 12.1291 19.9158C11.9718 19.9158 11.8442 20.039 11.8442 20.1911C11.8442 20.3431 11.9718 20.4664 12.1291 20.4664Z" fill="#391F85"/>
<path d="M12.9597 20.4664C13.117 20.4664 13.2445 20.3431 13.2445 20.1911C13.2445 20.039 13.117 19.9158 12.9597 19.9158C12.8023 19.9158 12.6748 20.039 12.6748 20.1911C12.6748 20.3431 12.8023 20.4664 12.9597 20.4664Z" fill="#391F85"/>
<path d="M13.7668 20.4664C13.9241 20.4664 14.0517 20.3431 14.0517 20.1911C14.0517 20.039 13.9241 19.9158 13.7668 19.9158C13.6095 19.9158 13.4819 20.039 13.4819 20.1911C13.4819 20.3431 13.6095 20.4664 13.7668 20.4664Z" fill="#391F85"/>
<path d="M14.5979 20.4664C14.7552 20.4664 14.8827 20.3431 14.8827 20.1911C14.8827 20.039 14.7552 19.9158 14.5979 19.9158C14.4405 19.9158 14.313 20.039 14.313 20.1911C14.313 20.3431 14.4405 20.4664 14.5979 20.4664Z" fill="#391F85"/>
<path d="M15.4284 20.4664C15.5858 20.4664 15.7133 20.3431 15.7133 20.1911C15.7133 20.039 15.5858 19.9158 15.4284 19.9158C15.2711 19.9158 15.1436 20.039 15.1436 20.1911C15.1436 20.3431 15.2711 20.4664 15.4284 20.4664Z" fill="#391F85"/>
<path d="M16.259 20.4664C16.4163 20.4664 16.5439 20.3431 16.5439 20.1911C16.5439 20.039 16.4163 19.9158 16.259 19.9158C16.1017 19.9158 15.9741 20.039 15.9741 20.1911C15.9741 20.3431 16.1017 20.4664 16.259 20.4664Z" fill="#391F85"/>
<path d="M17.0903 20.4664C17.2476 20.4664 17.3752 20.3431 17.3752 20.1911C17.3752 20.039 17.2476 19.9158 17.0903 19.9158C16.933 19.9158 16.8054 20.039 16.8054 20.1911C16.8054 20.3431 16.933 20.4664 17.0903 20.4664Z" fill="#391F85"/>
<path d="M17.9213 20.4664C18.0787 20.4664 18.2062 20.3431 18.2062 20.1911C18.2062 20.039 18.0787 19.9158 17.9213 19.9158C17.764 19.9158 17.6365 20.039 17.6365 20.1911C17.6365 20.3431 17.764 20.4664 17.9213 20.4664Z" fill="#391F85"/>
<path d="M18.7282 20.4664C18.8856 20.4664 19.0131 20.3431 19.0131 20.1911C19.0131 20.039 18.8856 19.9158 18.7282 19.9158C18.5709 19.9158 18.4434 20.039 18.4434 20.1911C18.4434 20.3431 18.5709 20.4664 18.7282 20.4664Z" fill="#391F85"/>
<path d="M19.559 20.4664C19.7164 20.4664 19.8439 20.3431 19.8439 20.1911C19.8439 20.039 19.7164 19.9158 19.559 19.9158C19.4017 19.9158 19.2742 20.039 19.2742 20.1911C19.2742 20.3431 19.4017 20.4664 19.559 20.4664Z" fill="#391F85"/>
<path d="M20.3901 20.4664C20.5474 20.4664 20.675 20.3431 20.675 20.1911C20.675 20.039 20.5474 19.9158 20.3901 19.9158C20.2328 19.9158 20.1052 20.039 20.1052 20.1911C20.1052 20.3431 20.2328 20.4664 20.3901 20.4664Z" fill="#391F85"/>
<path d="M21.2207 20.4664C21.378 20.4664 21.5055 20.3431 21.5055 20.1911C21.5055 20.039 21.378 19.9158 21.2207 19.9158C21.0633 19.9158 20.9358 20.039 20.9358 20.1911C20.9358 20.3431 21.0633 20.4664 21.2207 20.4664Z" fill="#391F85"/>
<path d="M22.052 20.4664C22.2093 20.4664 22.3368 20.3431 22.3368 20.1911C22.3368 20.039 22.2093 19.9158 22.052 19.9158C21.8946 19.9158 21.7671 20.039 21.7671 20.1911C21.7671 20.3431 21.8946 20.4664 22.052 20.4664Z" fill="#391F85"/>
<path d="M22.8828 20.4664C23.0401 20.4664 23.1676 20.3431 23.1676 20.1911C23.1676 20.039 23.0401 19.9158 22.8828 19.9158C22.7254 19.9158 22.5979 20.039 22.5979 20.1911C22.5979 20.3431 22.7254 20.4664 22.8828 20.4664Z" fill="#391F85"/>
<path d="M23.6899 20.4664C23.8472 20.4664 23.9748 20.3431 23.9748 20.1911C23.9748 20.039 23.8472 19.9158 23.6899 19.9158C23.5326 19.9158 23.405 20.039 23.405 20.1911C23.405 20.3431 23.5326 20.4664 23.6899 20.4664Z" fill="#391F85"/>
<path d="M24.5207 20.4664C24.678 20.4664 24.8056 20.3431 24.8056 20.1911C24.8056 20.039 24.678 19.9158 24.5207 19.9158C24.3634 19.9158 24.2358 20.039 24.2358 20.1911C24.2358 20.3431 24.3634 20.4664 24.5207 20.4664Z" fill="#391F85"/>
<path d="M25.3513 20.4664C25.5086 20.4664 25.6361 20.3431 25.6361 20.1911C25.6361 20.039 25.5086 19.9158 25.3513 19.9158C25.1939 19.9158 25.0664 20.039 25.0664 20.1911C25.0664 20.3431 25.1939 20.4664 25.3513 20.4664Z" fill="#391F85"/>
<path d="M26.1823 20.4664C26.3397 20.4664 26.4672 20.3431 26.4672 20.1911C26.4672 20.039 26.3397 19.9158 26.1823 19.9158C26.025 19.9158 25.8975 20.039 25.8975 20.1911C25.8975 20.3431 26.025 20.4664 26.1823 20.4664Z" fill="#391F85"/>
<path d="M11.2978 21.2693C11.4551 21.2693 11.5827 21.1461 11.5827 20.994C11.5827 20.842 11.4551 20.7188 11.2978 20.7188C11.1405 20.7188 11.0129 20.842 11.0129 20.994C11.0129 21.1461 11.1405 21.2693 11.2978 21.2693Z" fill="#391F85"/>
<path d="M12.1291 21.2693C12.2864 21.2693 12.414 21.1461 12.414 20.994C12.414 20.842 12.2864 20.7188 12.1291 20.7188C11.9718 20.7188 11.8442 20.842 11.8442 20.994C11.8442 21.1461 11.9718 21.2693 12.1291 21.2693Z" fill="#391F85"/>
<path d="M12.9597 21.2693C13.117 21.2693 13.2445 21.1461 13.2445 20.994C13.2445 20.842 13.117 20.7188 12.9597 20.7188C12.8023 20.7188 12.6748 20.842 12.6748 20.994C12.6748 21.1461 12.8023 21.2693 12.9597 21.2693Z" fill="#391F85"/>
<path d="M13.7668 21.2693C13.9241 21.2693 14.0517 21.1461 14.0517 20.994C14.0517 20.842 13.9241 20.7188 13.7668 20.7188C13.6095 20.7188 13.4819 20.842 13.4819 20.994C13.4819 21.1461 13.6095 21.2693 13.7668 21.2693Z" fill="#391F85"/>
<path d="M14.5979 21.2693C14.7552 21.2693 14.8827 21.1461 14.8827 20.994C14.8827 20.842 14.7552 20.7188 14.5979 20.7188C14.4405 20.7188 14.313 20.842 14.313 20.994C14.313 21.1461 14.4405 21.2693 14.5979 21.2693Z" fill="#391F85"/>
<path d="M15.4284 21.2693C15.5858 21.2693 15.7133 21.1461 15.7133 20.994C15.7133 20.842 15.5858 20.7188 15.4284 20.7188C15.2711 20.7188 15.1436 20.842 15.1436 20.994C15.1436 21.1461 15.2711 21.2693 15.4284 21.2693Z" fill="#391F85"/>
<path d="M16.259 21.2693C16.4163 21.2693 16.5439 21.1461 16.5439 20.994C16.5439 20.842 16.4163 20.7188 16.259 20.7188C16.1017 20.7188 15.9741 20.842 15.9741 20.994C15.9741 21.1461 16.1017 21.2693 16.259 21.2693Z" fill="#391F85"/>
<path d="M17.0903 21.2693C17.2476 21.2693 17.3752 21.1461 17.3752 20.994C17.3752 20.842 17.2476 20.7188 17.0903 20.7188C16.933 20.7188 16.8054 20.842 16.8054 20.994C16.8054 21.1461 16.933 21.2693 17.0903 21.2693Z" fill="#391F85"/>
<path d="M17.9213 21.2693C18.0787 21.2693 18.2062 21.1461 18.2062 20.994C18.2062 20.842 18.0787 20.7188 17.9213 20.7188C17.764 20.7188 17.6365 20.842 17.6365 20.994C17.6365 21.1461 17.764 21.2693 17.9213 21.2693Z" fill="#391F85"/>
<path d="M18.7282 21.2693C18.8856 21.2693 19.0131 21.1461 19.0131 20.994C19.0131 20.842 18.8856 20.7188 18.7282 20.7188C18.5709 20.7188 18.4434 20.842 18.4434 20.994C18.4434 21.1461 18.5709 21.2693 18.7282 21.2693Z" fill="#391F85"/>
<path d="M19.559 21.2693C19.7164 21.2693 19.8439 21.1461 19.8439 20.994C19.8439 20.842 19.7164 20.7188 19.559 20.7188C19.4017 20.7188 19.2742 20.842 19.2742 20.994C19.2742 21.1461 19.4017 21.2693 19.559 21.2693Z" fill="#391F85"/>
<path d="M20.3901 21.2693C20.5474 21.2693 20.675 21.1461 20.675 20.994C20.675 20.842 20.5474 20.7188 20.3901 20.7188C20.2328 20.7188 20.1052 20.842 20.1052 20.994C20.1052 21.1461 20.2328 21.2693 20.3901 21.2693Z" fill="#391F85"/>
<path d="M21.2207 21.2693C21.378 21.2693 21.5055 21.1461 21.5055 20.994C21.5055 20.842 21.378 20.7188 21.2207 20.7188C21.0633 20.7188 20.9358 20.842 20.9358 20.994C20.9358 21.1461 21.0633 21.2693 21.2207 21.2693Z" fill="#391F85"/>
<path d="M22.052 21.2693C22.2093 21.2693 22.3368 21.1461 22.3368 20.994C22.3368 20.842 22.2093 20.7188 22.052 20.7188C21.8946 20.7188 21.7671 20.842 21.7671 20.994C21.7671 21.1461 21.8946 21.2693 22.052 21.2693Z" fill="#391F85"/>
<path d="M22.8828 21.2693C23.0401 21.2693 23.1676 21.1461 23.1676 20.994C23.1676 20.842 23.0401 20.7188 22.8828 20.7188C22.7254 20.7188 22.5979 20.842 22.5979 20.994C22.5979 21.1461 22.7254 21.2693 22.8828 21.2693Z" fill="#391F85"/>
<path d="M23.6899 21.2693C23.8472 21.2693 23.9748 21.1461 23.9748 20.994C23.9748 20.842 23.8472 20.7188 23.6899 20.7188C23.5326 20.7188 23.405 20.842 23.405 20.994C23.405 21.1461 23.5326 21.2693 23.6899 21.2693Z" fill="#391F85"/>
<path d="M24.5207 21.2693C24.678 21.2693 24.8056 21.1461 24.8056 20.994C24.8056 20.842 24.678 20.7188 24.5207 20.7188C24.3634 20.7188 24.2358 20.842 24.2358 20.994C24.2358 21.1461 24.3634 21.2693 24.5207 21.2693Z" fill="#391F85"/>
<path d="M25.3513 21.2693C25.5086 21.2693 25.6361 21.1461 25.6361 20.994C25.6361 20.842 25.5086 20.7188 25.3513 20.7188C25.1939 20.7188 25.0664 20.842 25.0664 20.994C25.0664 21.1461 25.1939 21.2693 25.3513 21.2693Z" fill="#391F85"/>
<path d="M26.1823 21.2693C26.3397 21.2693 26.4672 21.1461 26.4672 20.994C26.4672 20.842 26.3397 20.7188 26.1823 20.7188C26.025 20.7188 25.8975 20.842 25.8975 20.994C25.8975 21.1461 26.025 21.2693 26.1823 21.2693Z" fill="#391F85"/>
<path d="M11.2978 22.0723C11.4551 22.0723 11.5827 21.9491 11.5827 21.797C11.5827 21.645 11.4551 21.5217 11.2978 21.5217C11.1405 21.5217 11.0129 21.645 11.0129 21.797C11.0129 21.9491 11.1405 22.0723 11.2978 22.0723Z" fill="#391F85"/>
<path d="M12.1291 22.0723C12.2864 22.0723 12.414 21.9491 12.414 21.797C12.414 21.645 12.2864 21.5217 12.1291 21.5217C11.9718 21.5217 11.8442 21.645 11.8442 21.797C11.8442 21.9491 11.9718 22.0723 12.1291 22.0723Z" fill="#391F85"/>
<path d="M12.9597 22.0723C13.117 22.0723 13.2445 21.9491 13.2445 21.797C13.2445 21.645 13.117 21.5217 12.9597 21.5217C12.8023 21.5217 12.6748 21.645 12.6748 21.797C12.6748 21.9491 12.8023 22.0723 12.9597 22.0723Z" fill="#391F85"/>
<path d="M13.7668 22.0723C13.9241 22.0723 14.0517 21.9491 14.0517 21.797C14.0517 21.645 13.9241 21.5217 13.7668 21.5217C13.6095 21.5217 13.4819 21.645 13.4819 21.797C13.4819 21.9491 13.6095 22.0723 13.7668 22.0723Z" fill="#391F85"/>
<path d="M14.5979 22.0723C14.7552 22.0723 14.8827 21.9491 14.8827 21.797C14.8827 21.645 14.7552 21.5217 14.5979 21.5217C14.4405 21.5217 14.313 21.645 14.313 21.797C14.313 21.9491 14.4405 22.0723 14.5979 22.0723Z" fill="#391F85"/>
<path d="M15.4284 22.0723C15.5858 22.0723 15.7133 21.9491 15.7133 21.797C15.7133 21.645 15.5858 21.5217 15.4284 21.5217C15.2711 21.5217 15.1436 21.645 15.1436 21.797C15.1436 21.9491 15.2711 22.0723 15.4284 22.0723Z" fill="#391F85"/>
<path d="M16.259 22.0723C16.4163 22.0723 16.5439 21.9491 16.5439 21.797C16.5439 21.645 16.4163 21.5217 16.259 21.5217C16.1017 21.5217 15.9741 21.645 15.9741 21.797C15.9741 21.9491 16.1017 22.0723 16.259 22.0723Z" fill="#391F85"/>
<path d="M17.0903 22.0723C17.2476 22.0723 17.3752 21.9491 17.3752 21.797C17.3752 21.645 17.2476 21.5217 17.0903 21.5217C16.933 21.5217 16.8054 21.645 16.8054 21.797C16.8054 21.9491 16.933 22.0723 17.0903 22.0723Z" fill="#391F85"/>
<path d="M17.9213 22.0723C18.0787 22.0723 18.2062 21.9491 18.2062 21.797C18.2062 21.645 18.0787 21.5217 17.9213 21.5217C17.764 21.5217 17.6365 21.645 17.6365 21.797C17.6365 21.9491 17.764 22.0723 17.9213 22.0723Z" fill="#391F85"/>
<path d="M18.7282 22.0723C18.8856 22.0723 19.0131 21.9491 19.0131 21.797C19.0131 21.645 18.8856 21.5217 18.7282 21.5217C18.5709 21.5217 18.4434 21.645 18.4434 21.797C18.4434 21.9491 18.5709 22.0723 18.7282 22.0723Z" fill="#391F85"/>
<path d="M19.559 22.0723C19.7164 22.0723 19.8439 21.9491 19.8439 21.797C19.8439 21.645 19.7164 21.5217 19.559 21.5217C19.4017 21.5217 19.2742 21.645 19.2742 21.797C19.2742 21.9491 19.4017 22.0723 19.559 22.0723Z" fill="#391F85"/>
<path d="M20.3901 22.0723C20.5474 22.0723 20.675 21.9491 20.675 21.797C20.675 21.645 20.5474 21.5217 20.3901 21.5217C20.2328 21.5217 20.1052 21.645 20.1052 21.797C20.1052 21.9491 20.2328 22.0723 20.3901 22.0723Z" fill="#391F85"/>
<path d="M21.2207 22.0723C21.378 22.0723 21.5055 21.9491 21.5055 21.797C21.5055 21.645 21.378 21.5217 21.2207 21.5217C21.0633 21.5217 20.9358 21.645 20.9358 21.797C20.9358 21.9491 21.0633 22.0723 21.2207 22.0723Z" fill="#391F85"/>
<path d="M22.052 22.0723C22.2093 22.0723 22.3368 21.9491 22.3368 21.797C22.3368 21.645 22.2093 21.5217 22.052 21.5217C21.8946 21.5217 21.7671 21.645 21.7671 21.797C21.7671 21.9491 21.8946 22.0723 22.052 22.0723Z" fill="#391F85"/>
<path d="M22.8828 22.0723C23.0401 22.0723 23.1676 21.9491 23.1676 21.797C23.1676 21.645 23.0401 21.5217 22.8828 21.5217C22.7254 21.5217 22.5979 21.645 22.5979 21.797C22.5979 21.9491 22.7254 22.0723 22.8828 22.0723Z" fill="#391F85"/>
<path d="M23.6899 22.0723C23.8472 22.0723 23.9748 21.9491 23.9748 21.797C23.9748 21.645 23.8472 21.5217 23.6899 21.5217C23.5326 21.5217 23.405 21.645 23.405 21.797C23.405 21.9491 23.5326 22.0723 23.6899 22.0723Z" fill="#391F85"/>
<path d="M24.5207 22.0723C24.678 22.0723 24.8056 21.9491 24.8056 21.797C24.8056 21.645 24.678 21.5217 24.5207 21.5217C24.3634 21.5217 24.2358 21.645 24.2358 21.797C24.2358 21.9491 24.3634 22.0723 24.5207 22.0723Z" fill="#391F85"/>
<path d="M25.3513 22.0723C25.5086 22.0723 25.6361 21.9491 25.6361 21.797C25.6361 21.645 25.5086 21.5217 25.3513 21.5217C25.1939 21.5217 25.0664 21.645 25.0664 21.797C25.0664 21.9491 25.1939 22.0723 25.3513 22.0723Z" fill="#391F85"/>
<path d="M26.1823 22.0723C26.3397 22.0723 26.4672 21.9491 26.4672 21.797C26.4672 21.645 26.3397 21.5217 26.1823 21.5217C26.025 21.5217 25.8975 21.645 25.8975 21.797C25.8975 21.9491 26.025 22.0723 26.1823 22.0723Z" fill="#391F85"/>
<path d="M11.2978 22.8753C11.4551 22.8753 11.5827 22.752 11.5827 22.6C11.5827 22.448 11.4551 22.3247 11.2978 22.3247C11.1405 22.3247 11.0129 22.448 11.0129 22.6C11.0129 22.752 11.1405 22.8753 11.2978 22.8753Z" fill="#391F85"/>
<path d="M12.1291 22.8753C12.2864 22.8753 12.414 22.752 12.414 22.6C12.414 22.448 12.2864 22.3247 12.1291 22.3247C11.9718 22.3247 11.8442 22.448 11.8442 22.6C11.8442 22.752 11.9718 22.8753 12.1291 22.8753Z" fill="#391F85"/>
<path d="M12.9597 22.8753C13.117 22.8753 13.2445 22.752 13.2445 22.6C13.2445 22.448 13.117 22.3247 12.9597 22.3247C12.8023 22.3247 12.6748 22.448 12.6748 22.6C12.6748 22.752 12.8023 22.8753 12.9597 22.8753Z" fill="#391F85"/>
<path d="M13.7668 22.8753C13.9241 22.8753 14.0517 22.752 14.0517 22.6C14.0517 22.448 13.9241 22.3247 13.7668 22.3247C13.6095 22.3247 13.4819 22.448 13.4819 22.6C13.4819 22.752 13.6095 22.8753 13.7668 22.8753Z" fill="#391F85"/>
<path d="M14.5979 22.8753C14.7552 22.8753 14.8827 22.752 14.8827 22.6C14.8827 22.448 14.7552 22.3247 14.5979 22.3247C14.4405 22.3247 14.313 22.448 14.313 22.6C14.313 22.752 14.4405 22.8753 14.5979 22.8753Z" fill="#391F85"/>
<path d="M15.4284 22.8753C15.5858 22.8753 15.7133 22.752 15.7133 22.6C15.7133 22.448 15.5858 22.3247 15.4284 22.3247C15.2711 22.3247 15.1436 22.448 15.1436 22.6C15.1436 22.752 15.2711 22.8753 15.4284 22.8753Z" fill="#391F85"/>
<path d="M16.259 22.8753C16.4163 22.8753 16.5439 22.752 16.5439 22.6C16.5439 22.448 16.4163 22.3247 16.259 22.3247C16.1017 22.3247 15.9741 22.448 15.9741 22.6C15.9741 22.752 16.1017 22.8753 16.259 22.8753Z" fill="#391F85"/>
<path d="M17.0903 22.8753C17.2476 22.8753 17.3752 22.752 17.3752 22.6C17.3752 22.448 17.2476 22.3247 17.0903 22.3247C16.933 22.3247 16.8054 22.448 16.8054 22.6C16.8054 22.752 16.933 22.8753 17.0903 22.8753Z" fill="#391F85"/>
<path d="M17.9213 22.8753C18.0787 22.8753 18.2062 22.752 18.2062 22.6C18.2062 22.448 18.0787 22.3247 17.9213 22.3247C17.764 22.3247 17.6365 22.448 17.6365 22.6C17.6365 22.752 17.764 22.8753 17.9213 22.8753Z" fill="#391F85"/>
<path d="M18.7282 22.8753C18.8856 22.8753 19.0131 22.752 19.0131 22.6C19.0131 22.448 18.8856 22.3247 18.7282 22.3247C18.5709 22.3247 18.4434 22.448 18.4434 22.6C18.4434 22.752 18.5709 22.8753 18.7282 22.8753Z" fill="#391F85"/>
<path d="M19.559 22.8753C19.7164 22.8753 19.8439 22.752 19.8439 22.6C19.8439 22.448 19.7164 22.3247 19.559 22.3247C19.4017 22.3247 19.2742 22.448 19.2742 22.6C19.2742 22.752 19.4017 22.8753 19.559 22.8753Z" fill="#391F85"/>
<path d="M20.3901 22.8753C20.5474 22.8753 20.675 22.752 20.675 22.6C20.675 22.448 20.5474 22.3247 20.3901 22.3247C20.2328 22.3247 20.1052 22.448 20.1052 22.6C20.1052 22.752 20.2328 22.8753 20.3901 22.8753Z" fill="#391F85"/>
<path d="M21.2207 22.8753C21.378 22.8753 21.5055 22.752 21.5055 22.6C21.5055 22.448 21.378 22.3247 21.2207 22.3247C21.0633 22.3247 20.9358 22.448 20.9358 22.6C20.9358 22.752 21.0633 22.8753 21.2207 22.8753Z" fill="#391F85"/>
<path d="M22.052 22.8753C22.2093 22.8753 22.3368 22.752 22.3368 22.6C22.3368 22.448 22.2093 22.3247 22.052 22.3247C21.8946 22.3247 21.7671 22.448 21.7671 22.6C21.7671 22.752 21.8946 22.8753 22.052 22.8753Z" fill="#391F85"/>
<path d="M22.8828 22.8753C23.0401 22.8753 23.1676 22.752 23.1676 22.6C23.1676 22.448 23.0401 22.3247 22.8828 22.3247C22.7254 22.3247 22.5979 22.448 22.5979 22.6C22.5979 22.752 22.7254 22.8753 22.8828 22.8753Z" fill="#391F85"/>
<path d="M23.6899 22.8753C23.8472 22.8753 23.9748 22.752 23.9748 22.6C23.9748 22.448 23.8472 22.3247 23.6899 22.3247C23.5326 22.3247 23.405 22.448 23.405 22.6C23.405 22.752 23.5326 22.8753 23.6899 22.8753Z" fill="#391F85"/>
<path d="M24.5207 22.8753C24.678 22.8753 24.8056 22.752 24.8056 22.6C24.8056 22.448 24.678 22.3247 24.5207 22.3247C24.3634 22.3247 24.2358 22.448 24.2358 22.6C24.2358 22.752 24.3634 22.8753 24.5207 22.8753Z" fill="#391F85"/>
<path d="M25.3513 22.8753C25.5086 22.8753 25.6361 22.752 25.6361 22.6C25.6361 22.448 25.5086 22.3247 25.3513 22.3247C25.1939 22.3247 25.0664 22.448 25.0664 22.6C25.0664 22.752 25.1939 22.8753 25.3513 22.8753Z" fill="#391F85"/>
<path d="M26.1823 22.8753C26.3397 22.8753 26.4672 22.752 26.4672 22.6C26.4672 22.448 26.3397 22.3247 26.1823 22.3247C26.025 22.3247 25.8975 22.448 25.8975 22.6C25.8975 22.752 26.025 22.8753 26.1823 22.8753Z" fill="#391F85"/>
<path d="M13.7668 23.6783C13.9241 23.6783 14.0517 23.555 14.0517 23.403C14.0517 23.2509 13.9241 23.1277 13.7668 23.1277C13.6095 23.1277 13.4819 23.2509 13.4819 23.403C13.4819 23.555 13.6095 23.6783 13.7668 23.6783Z" fill="#391F85"/>
<path d="M14.5979 23.6783C14.7552 23.6783 14.8827 23.555 14.8827 23.403C14.8827 23.2509 14.7552 23.1277 14.5979 23.1277C14.4405 23.1277 14.313 23.2509 14.313 23.403C14.313 23.555 14.4405 23.6783 14.5979 23.6783Z" fill="#391F85"/>
<path d="M15.4284 23.6783C15.5858 23.6783 15.7133 23.555 15.7133 23.403C15.7133 23.2509 15.5858 23.1277 15.4284 23.1277C15.2711 23.1277 15.1436 23.2509 15.1436 23.403C15.1436 23.555 15.2711 23.6783 15.4284 23.6783Z" fill="#391F85"/>
<path d="M16.259 23.6783C16.4163 23.6783 16.5439 23.555 16.5439 23.403C16.5439 23.2509 16.4163 23.1277 16.259 23.1277C16.1017 23.1277 15.9741 23.2509 15.9741 23.403C15.9741 23.555 16.1017 23.6783 16.259 23.6783Z" fill="#391F85"/>
<path d="M17.0903 23.6783C17.2476 23.6783 17.3752 23.555 17.3752 23.403C17.3752 23.2509 17.2476 23.1277 17.0903 23.1277C16.933 23.1277 16.8054 23.2509 16.8054 23.403C16.8054 23.555 16.933 23.6783 17.0903 23.6783Z" fill="#391F85"/>
<path d="M19.559 23.6783C19.7164 23.6783 19.8439 23.555 19.8439 23.403C19.8439 23.2509 19.7164 23.1277 19.559 23.1277C19.4017 23.1277 19.2742 23.2509 19.2742 23.403C19.2742 23.555 19.4017 23.6783 19.559 23.6783Z" fill="#391F85"/>
<path d="M20.3901 23.6783C20.5474 23.6783 20.675 23.555 20.675 23.403C20.675 23.2509 20.5474 23.1277 20.3901 23.1277C20.2328 23.1277 20.1052 23.2509 20.1052 23.403C20.1052 23.555 20.2328 23.6783 20.3901 23.6783Z" fill="#391F85"/>
<path d="M21.2207 23.6783C21.378 23.6783 21.5055 23.555 21.5055 23.403C21.5055 23.2509 21.378 23.1277 21.2207 23.1277C21.0633 23.1277 20.9358 23.2509 20.9358 23.403C20.9358 23.555 21.0633 23.6783 21.2207 23.6783Z" fill="#391F85"/>
<path d="M22.052 23.6783C22.2093 23.6783 22.3368 23.555 22.3368 23.403C22.3368 23.2509 22.2093 23.1277 22.052 23.1277C21.8946 23.1277 21.7671 23.2509 21.7671 23.403C21.7671 23.555 21.8946 23.6783 22.052 23.6783Z" fill="#391F85"/>
<path d="M22.8828 23.6783C23.0401 23.6783 23.1676 23.555 23.1676 23.403C23.1676 23.2509 23.0401 23.1277 22.8828 23.1277C22.7254 23.1277 22.5979 23.2509 22.5979 23.403C22.5979 23.555 22.7254 23.6783 22.8828 23.6783Z" fill="#391F85"/>
<path d="M23.6899 23.6783C23.8472 23.6783 23.9748 23.555 23.9748 23.403C23.9748 23.2509 23.8472 23.1277 23.6899 23.1277C23.5326 23.1277 23.405 23.2509 23.405 23.403C23.405 23.555 23.5326 23.6783 23.6899 23.6783Z" fill="#391F85"/>
<path d="M24.5207 23.6783C24.678 23.6783 24.8056 23.555 24.8056 23.403C24.8056 23.2509 24.678 23.1277 24.5207 23.1277C24.3634 23.1277 24.2358 23.2509 24.2358 23.403C24.2358 23.555 24.3634 23.6783 24.5207 23.6783Z" fill="#391F85"/>
<path d="M25.3513 23.6783C25.5086 23.6783 25.6361 23.555 25.6361 23.403C25.6361 23.2509 25.5086 23.1277 25.3513 23.1277C25.1939 23.1277 25.0664 23.2509 25.0664 23.403C25.0664 23.555 25.1939 23.6783 25.3513 23.6783Z" fill="#391F85"/>
<path d="M26.1823 23.6783C26.3397 23.6783 26.4672 23.555 26.4672 23.403C26.4672 23.2509 26.3397 23.1277 26.1823 23.1277C26.025 23.1277 25.8975 23.2509 25.8975 23.403C25.8975 23.555 26.025 23.6783 26.1823 23.6783Z" fill="#391F85"/>
<path d="M21.2207 24.4583C21.378 24.4583 21.5055 24.335 21.5055 24.183C21.5055 24.031 21.378 23.9077 21.2207 23.9077C21.0633 23.9077 20.9358 24.031 20.9358 24.183C20.9358 24.335 21.0633 24.4583 21.2207 24.4583Z" fill="#391F85"/>
<path d="M22.052 24.4583C22.2093 24.4583 22.3368 24.335 22.3368 24.183C22.3368 24.031 22.2093 23.9077 22.052 23.9077C21.8946 23.9077 21.7671 24.031 21.7671 24.183C21.7671 24.335 21.8946 24.4583 22.052 24.4583Z" fill="#391F85"/>
<path d="M22.8828 24.4583C23.0401 24.4583 23.1676 24.335 23.1676 24.183C23.1676 24.031 23.0401 23.9077 22.8828 23.9077C22.7254 23.9077 22.5979 24.031 22.5979 24.183C22.5979 24.335 22.7254 24.4583 22.8828 24.4583Z" fill="#391F85"/>
<path d="M23.6899 24.4583C23.8472 24.4583 23.9748 24.335 23.9748 24.183C23.9748 24.031 23.8472 23.9077 23.6899 23.9077C23.5326 23.9077 23.405 24.031 23.405 24.183C23.405 24.335 23.5326 24.4583 23.6899 24.4583Z" fill="#391F85"/>
<path d="M24.5207 24.4583C24.678 24.4583 24.8056 24.335 24.8056 24.183C24.8056 24.031 24.678 23.9077 24.5207 23.9077C24.3634 23.9077 24.2358 24.031 24.2358 24.183C24.2358 24.335 24.3634 24.4583 24.5207 24.4583Z" fill="#391F85"/>
<path d="M25.3513 24.4583C25.5086 24.4583 25.6361 24.335 25.6361 24.183C25.6361 24.031 25.5086 23.9077 25.3513 23.9077C25.1939 23.9077 25.0664 24.031 25.0664 24.183C25.0664 24.335 25.1939 24.4583 25.3513 24.4583Z" fill="#391F85"/>
<path d="M26.1823 24.4583C26.3397 24.4583 26.4672 24.335 26.4672 24.183C26.4672 24.031 26.3397 23.9077 26.1823 23.9077C26.025 23.9077 25.8975 24.031 25.8975 24.183C25.8975 24.335 26.025 24.4583 26.1823 24.4583Z" fill="#391F85"/>
<path d="M21.2207 25.2613C21.378 25.2613 21.5055 25.138 21.5055 24.986C21.5055 24.8339 21.378 24.7107 21.2207 24.7107C21.0633 24.7107 20.9358 24.8339 20.9358 24.986C20.9358 25.138 21.0633 25.2613 21.2207 25.2613Z" fill="#391F85"/>
<path d="M22.052 25.2613C22.2093 25.2613 22.3368 25.138 22.3368 24.986C22.3368 24.8339 22.2093 24.7107 22.052 24.7107C21.8946 24.7107 21.7671 24.8339 21.7671 24.986C21.7671 25.138 21.8946 25.2613 22.052 25.2613Z" fill="#391F85"/>
<path d="M22.8828 25.2613C23.0401 25.2613 23.1676 25.138 23.1676 24.986C23.1676 24.8339 23.0401 24.7107 22.8828 24.7107C22.7254 24.7107 22.5979 24.8339 22.5979 24.986C22.5979 25.138 22.7254 25.2613 22.8828 25.2613Z" fill="#391F85"/>
<path d="M23.6899 25.2613C23.8472 25.2613 23.9748 25.138 23.9748 24.986C23.9748 24.8339 23.8472 24.7107 23.6899 24.7107C23.5326 24.7107 23.405 24.8339 23.405 24.986C23.405 25.138 23.5326 25.2613 23.6899 25.2613Z" fill="#391F85"/>
<path d="M24.5207 25.2613C24.678 25.2613 24.8056 25.138 24.8056 24.986C24.8056 24.8339 24.678 24.7107 24.5207 24.7107C24.3634 24.7107 24.2358 24.8339 24.2358 24.986C24.2358 25.138 24.3634 25.2613 24.5207 25.2613Z" fill="#391F85"/>
<path d="M25.3513 25.2613C25.5086 25.2613 25.6361 25.138 25.6361 24.986C25.6361 24.8339 25.5086 24.7107 25.3513 24.7107C25.1939 24.7107 25.0664 24.8339 25.0664 24.986C25.0664 25.138 25.1939 25.2613 25.3513 25.2613Z" fill="#391F85"/>
<path d="M26.1823 25.2613C26.3397 25.2613 26.4672 25.138 26.4672 24.986C26.4672 24.8339 26.3397 24.7107 26.1823 24.7107C26.025 24.7107 25.8975 24.8339 25.8975 24.986C25.8975 25.138 26.025 25.2613 26.1823 25.2613Z" fill="#391F85"/>
<path d="M21.2207 26.0643C21.378 26.0643 21.5055 25.941 21.5055 25.789C21.5055 25.6369 21.378 25.5137 21.2207 25.5137C21.0633 25.5137 20.9358 25.6369 20.9358 25.789C20.9358 25.941 21.0633 26.0643 21.2207 26.0643Z" fill="#391F85"/>
<path d="M22.052 26.0643C22.2093 26.0643 22.3368 25.941 22.3368 25.789C22.3368 25.6369 22.2093 25.5137 22.052 25.5137C21.8946 25.5137 21.7671 25.6369 21.7671 25.789C21.7671 25.941 21.8946 26.0643 22.052 26.0643Z" fill="#391F85"/>
<path d="M22.8828 26.0643C23.0401 26.0643 23.1676 25.941 23.1676 25.789C23.1676 25.6369 23.0401 25.5137 22.8828 25.5137C22.7254 25.5137 22.5979 25.6369 22.5979 25.789C22.5979 25.941 22.7254 26.0643 22.8828 26.0643Z" fill="#391F85"/>
<path d="M23.6899 26.0643C23.8472 26.0643 23.9748 25.941 23.9748 25.789C23.9748 25.6369 23.8472 25.5137 23.6899 25.5137C23.5326 25.5137 23.405 25.6369 23.405 25.789C23.405 25.941 23.5326 26.0643 23.6899 26.0643Z" fill="#391F85"/>
<path d="M24.5207 26.0643C24.678 26.0643 24.8056 25.941 24.8056 25.789C24.8056 25.6369 24.678 25.5137 24.5207 25.5137C24.3634 25.5137 24.2358 25.6369 24.2358 25.789C24.2358 25.941 24.3634 26.0643 24.5207 26.0643Z" fill="#391F85"/>
<path d="M25.3513 26.0643C25.5086 26.0643 25.6361 25.941 25.6361 25.789C25.6361 25.6369 25.5086 25.5137 25.3513 25.5137C25.1939 25.5137 25.0664 25.6369 25.0664 25.789C25.0664 25.941 25.1939 26.0643 25.3513 26.0643Z" fill="#391F85"/>
<path d="M26.1823 26.0643C26.3397 26.0643 26.4672 25.941 26.4672 25.789C26.4672 25.6369 26.3397 25.5137 26.1823 25.5137C26.025 25.5137 25.8975 25.6369 25.8975 25.789C25.8975 25.941 26.025 26.0643 26.1823 26.0643Z" fill="#391F85"/>
<path d="M27.0139 26.0643C27.1712 26.0643 27.2987 25.941 27.2987 25.789C27.2987 25.6369 27.1712 25.5137 27.0139 25.5137C26.8565 25.5137 26.729 25.6369 26.729 25.789C26.729 25.941 26.8565 26.0643 27.0139 26.0643Z" fill="#391F85"/>
<path d="M22.052 26.8672C22.2093 26.8672 22.3368 26.744 22.3368 26.5919C22.3368 26.4399 22.2093 26.3167 22.052 26.3167C21.8946 26.3167 21.7671 26.4399 21.7671 26.5919C21.7671 26.744 21.8946 26.8672 22.052 26.8672Z" fill="#391F85"/>
<path d="M22.8828 26.8672C23.0401 26.8672 23.1676 26.744 23.1676 26.5919C23.1676 26.4399 23.0401 26.3167 22.8828 26.3167C22.7254 26.3167 22.5979 26.4399 22.5979 26.5919C22.5979 26.744 22.7254 26.8672 22.8828 26.8672Z" fill="#391F85"/>
<path d="M23.6899 26.8672C23.8472 26.8672 23.9748 26.744 23.9748 26.5919C23.9748 26.4399 23.8472 26.3167 23.6899 26.3167C23.5326 26.3167 23.405 26.4399 23.405 26.5919C23.405 26.744 23.5326 26.8672 23.6899 26.8672Z" fill="#391F85"/>
<path d="M24.5207 26.8672C24.678 26.8672 24.8056 26.744 24.8056 26.5919C24.8056 26.4399 24.678 26.3167 24.5207 26.3167C24.3634 26.3167 24.2358 26.4399 24.2358 26.5919C24.2358 26.744 24.3634 26.8672 24.5207 26.8672Z" fill="#391F85"/>
<path d="M25.3513 26.8672C25.5086 26.8672 25.6361 26.744 25.6361 26.5919C25.6361 26.4399 25.5086 26.3167 25.3513 26.3167C25.1939 26.3167 25.0664 26.4399 25.0664 26.5919C25.0664 26.744 25.1939 26.8672 25.3513 26.8672Z" fill="#391F85"/>
<path d="M26.1823 26.8672C26.3397 26.8672 26.4672 26.744 26.4672 26.5919C26.4672 26.4399 26.3397 26.3167 26.1823 26.3167C26.025 26.3167 25.8975 26.4399 25.8975 26.5919C25.8975 26.744 26.025 26.8672 26.1823 26.8672Z" fill="#391F85"/>
<path d="M27.0139 26.8672C27.1712 26.8672 27.2987 26.744 27.2987 26.5919C27.2987 26.4399 27.1712 26.3167 27.0139 26.3167C26.8565 26.3167 26.729 26.4399 26.729 26.5919C26.729 26.744 26.8565 26.8672 27.0139 26.8672Z" fill="#391F85"/>
<path d="M27.8442 26.8672C28.0015 26.8672 28.1291 26.744 28.1291 26.5919C28.1291 26.4399 28.0015 26.3167 27.8442 26.3167C27.6869 26.3167 27.5593 26.4399 27.5593 26.5919C27.5593 26.744 27.6869 26.8672 27.8442 26.8672Z" fill="#391F85"/>
<path d="M28.6516 26.8672C28.8089 26.8672 28.9364 26.744 28.9364 26.5919C28.9364 26.4399 28.8089 26.3167 28.6516 26.3167C28.4942 26.3167 28.3667 26.4399 28.3667 26.5919C28.3667 26.744 28.4942 26.8672 28.6516 26.8672Z" fill="#391F85"/>
<path d="M23.6899 27.67C23.8472 27.67 23.9748 27.5467 23.9748 27.3947C23.9748 27.2426 23.8472 27.1194 23.6899 27.1194C23.5326 27.1194 23.405 27.2426 23.405 27.3947C23.405 27.5467 23.5326 27.67 23.6899 27.67Z" fill="#391F85"/>
<path d="M26.1823 27.67C26.3397 27.67 26.4672 27.5467 26.4672 27.3947C26.4672 27.2426 26.3397 27.1194 26.1823 27.1194C26.025 27.1194 25.8975 27.2426 25.8975 27.3947C25.8975 27.5467 26.025 27.67 26.1823 27.67Z" fill="#391F85"/>
<path d="M27.0139 27.67C27.1712 27.67 27.2987 27.5467 27.2987 27.3947C27.2987 27.2426 27.1712 27.1194 27.0139 27.1194C26.8565 27.1194 26.729 27.2426 26.729 27.3947C26.729 27.5467 26.8565 27.67 27.0139 27.67Z" fill="#391F85"/>
<path d="M27.8442 27.67C28.0015 27.67 28.1291 27.5467 28.1291 27.3947C28.1291 27.2426 28.0015 27.1194 27.8442 27.1194C27.6869 27.1194 27.5593 27.2426 27.5593 27.3947C27.5593 27.5467 27.6869 27.67 27.8442 27.67Z" fill="#391F85"/>
<path d="M28.6516 27.67C28.8089 27.67 28.9364 27.5467 28.9364 27.3947C28.9364 27.2426 28.8089 27.1194 28.6516 27.1194C28.4942 27.1194 28.3667 27.2426 28.3667 27.3947C28.3667 27.5467 28.4942 27.67 28.6516 27.67Z" fill="#391F85"/>
<path d="M29.4821 27.67C29.6395 27.67 29.767 27.5467 29.767 27.3947C29.767 27.2426 29.6395 27.1194 29.4821 27.1194C29.3248 27.1194 29.1973 27.2426 29.1973 27.3947C29.1973 27.5467 29.3248 27.67 29.4821 27.67Z" fill="#391F85"/>
<path d="M30.3132 27.67C30.4705 27.67 30.5981 27.5467 30.5981 27.3947C30.5981 27.2426 30.4705 27.1194 30.3132 27.1194C30.1559 27.1194 30.0283 27.2426 30.0283 27.3947C30.0283 27.5467 30.1559 27.67 30.3132 27.67Z" fill="#391F85"/>
<path d="M31.1438 27.67C31.3011 27.67 31.4286 27.5467 31.4286 27.3947C31.4286 27.2426 31.3011 27.1194 31.1438 27.1194C30.9864 27.1194 30.8589 27.2426 30.8589 27.3947C30.8589 27.5467 30.9864 27.67 31.1438 27.67Z" fill="#391F85"/>
<path d="M24.5207 28.4729C24.678 28.4729 24.8056 28.3497 24.8056 28.1977C24.8056 28.0456 24.678 27.9224 24.5207 27.9224C24.3634 27.9224 24.2358 28.0456 24.2358 28.1977C24.2358 28.3497 24.3634 28.4729 24.5207 28.4729Z" fill="#391F85"/>
<path d="M26.1823 28.4729C26.3397 28.4729 26.4672 28.3497 26.4672 28.1977C26.4672 28.0456 26.3397 27.9224 26.1823 27.9224C26.025 27.9224 25.8975 28.0456 25.8975 28.1977C25.8975 28.3497 26.025 28.4729 26.1823 28.4729Z" fill="#391F85"/>
<path d="M27.0139 28.4729C27.1712 28.4729 27.2987 28.3497 27.2987 28.1977C27.2987 28.0456 27.1712 27.9224 27.0139 27.9224C26.8565 27.9224 26.729 28.0456 26.729 28.1977C26.729 28.3497 26.8565 28.4729 27.0139 28.4729Z" fill="#391F85"/>
<path d="M27.8442 28.4729C28.0015 28.4729 28.1291 28.3497 28.1291 28.1977C28.1291 28.0456 28.0015 27.9224 27.8442 27.9224C27.6869 27.9224 27.5593 28.0456 27.5593 28.1977C27.5593 28.3497 27.6869 28.4729 27.8442 28.4729Z" fill="#391F85"/>
<path d="M28.6516 28.4729C28.8089 28.4729 28.9364 28.3497 28.9364 28.1977C28.9364 28.0456 28.8089 27.9224 28.6516 27.9224C28.4942 27.9224 28.3667 28.0456 28.3667 28.1977C28.3667 28.3497 28.4942 28.4729 28.6516 28.4729Z" fill="#391F85"/>
<path d="M29.4821 28.4729C29.6395 28.4729 29.767 28.3497 29.767 28.1977C29.767 28.0456 29.6395 27.9224 29.4821 27.9224C29.3248 27.9224 29.1973 28.0456 29.1973 28.1977C29.1973 28.3497 29.3248 28.4729 29.4821 28.4729Z" fill="#391F85"/>
<path d="M30.3132 28.4729C30.4705 28.4729 30.5981 28.3497 30.5981 28.1977C30.5981 28.0456 30.4705 27.9224 30.3132 27.9224C30.1559 27.9224 30.0283 28.0456 30.0283 28.1977C30.0283 28.3497 30.1559 28.4729 30.3132 28.4729Z" fill="#391F85"/>
<path d="M31.1438 28.4729C31.3011 28.4729 31.4286 28.3497 31.4286 28.1977C31.4286 28.0456 31.3011 27.9224 31.1438 27.9224C30.9864 27.9224 30.8589 28.0456 30.8589 28.1977C30.8589 28.3497 30.9864 28.4729 31.1438 28.4729Z" fill="#391F85"/>
<path d="M24.5207 29.253C24.678 29.253 24.8056 29.1297 24.8056 28.9777C24.8056 28.8256 24.678 28.7024 24.5207 28.7024C24.3634 28.7024 24.2358 28.8256 24.2358 28.9777C24.2358 29.1297 24.3634 29.253 24.5207 29.253Z" fill="#391F85"/>
<path d="M25.3513 29.253C25.5086 29.253 25.6361 29.1297 25.6361 28.9777C25.6361 28.8256 25.5086 28.7024 25.3513 28.7024C25.1939 28.7024 25.0664 28.8256 25.0664 28.9777C25.0664 29.1297 25.1939 29.253 25.3513 29.253Z" fill="#391F85"/>
<path d="M26.1823 29.253C26.3397 29.253 26.4672 29.1297 26.4672 28.9777C26.4672 28.8256 26.3397 28.7024 26.1823 28.7024C26.025 28.7024 25.8975 28.8256 25.8975 28.9777C25.8975 29.1297 26.025 29.253 26.1823 29.253Z" fill="#391F85"/>
<path d="M27.0139 29.253C27.1712 29.253 27.2987 29.1297 27.2987 28.9777C27.2987 28.8256 27.1712 28.7024 27.0139 28.7024C26.8565 28.7024 26.729 28.8256 26.729 28.9777C26.729 29.1297 26.8565 29.253 27.0139 29.253Z" fill="#391F85"/>
<path d="M27.8442 29.253C28.0015 29.253 28.1291 29.1297 28.1291 28.9777C28.1291 28.8256 28.0015 28.7024 27.8442 28.7024C27.6869 28.7024 27.5593 28.8256 27.5593 28.9777C27.5593 29.1297 27.6869 29.253 27.8442 29.253Z" fill="#391F85"/>
<path d="M28.6516 29.253C28.8089 29.253 28.9364 29.1297 28.9364 28.9777C28.9364 28.8256 28.8089 28.7024 28.6516 28.7024C28.4942 28.7024 28.3667 28.8256 28.3667 28.9777C28.3667 29.1297 28.4942 29.253 28.6516 29.253Z" fill="#391F85"/>
<path d="M29.4821 29.253C29.6395 29.253 29.767 29.1297 29.767 28.9777C29.767 28.8256 29.6395 28.7024 29.4821 28.7024C29.3248 28.7024 29.1973 28.8256 29.1973 28.9777C29.1973 29.1297 29.3248 29.253 29.4821 29.253Z" fill="#391F85"/>
<path d="M24.5207 30.056C24.678 30.056 24.8056 29.9327 24.8056 29.7807C24.8056 29.6286 24.678 29.5054 24.5207 29.5054C24.3634 29.5054 24.2358 29.6286 24.2358 29.7807C24.2358 29.9327 24.3634 30.056 24.5207 30.056Z" fill="#391F85"/>
<path d="M25.3513 30.056C25.5086 30.056 25.6361 29.9327 25.6361 29.7807C25.6361 29.6286 25.5086 29.5054 25.3513 29.5054C25.1939 29.5054 25.0664 29.6286 25.0664 29.7807C25.0664 29.9327 25.1939 30.056 25.3513 30.056Z" fill="#391F85"/>
<path d="M26.1823 30.056C26.3397 30.056 26.4672 29.9327 26.4672 29.7807C26.4672 29.6286 26.3397 29.5054 26.1823 29.5054C26.025 29.5054 25.8975 29.6286 25.8975 29.7807C25.8975 29.9327 26.025 30.056 26.1823 30.056Z" fill="#391F85"/>
<path d="M23.6899 30.8589C23.8472 30.8589 23.9748 30.7357 23.9748 30.5836C23.9748 30.4316 23.8472 30.3083 23.6899 30.3083C23.5326 30.3083 23.405 30.4316 23.405 30.5836C23.405 30.7357 23.5326 30.8589 23.6899 30.8589Z" fill="#391F85"/>
<path d="M24.5207 30.8589C24.678 30.8589 24.8056 30.7357 24.8056 30.5836C24.8056 30.4316 24.678 30.3083 24.5207 30.3083C24.3634 30.3083 24.2358 30.4316 24.2358 30.5836C24.2358 30.7357 24.3634 30.8589 24.5207 30.8589Z" fill="#391F85"/>
<path d="M25.3513 30.8589C25.5086 30.8589 25.6361 30.7357 25.6361 30.5836C25.6361 30.4316 25.5086 30.3083 25.3513 30.3083C25.1939 30.3083 25.0664 30.4316 25.0664 30.5836C25.0664 30.7357 25.1939 30.8589 25.3513 30.8589Z" fill="#391F85"/>
<path d="M26.1823 30.8589C26.3397 30.8589 26.4672 30.7357 26.4672 30.5836C26.4672 30.4316 26.3397 30.3083 26.1823 30.3083C26.025 30.3083 25.8975 30.4316 25.8975 30.5836C25.8975 30.7357 26.025 30.8589 26.1823 30.8589Z" fill="#391F85"/>
<path d="M27.0139 30.8589C27.1712 30.8589 27.2987 30.7357 27.2987 30.5836C27.2987 30.4316 27.1712 30.3083 27.0139 30.3083C26.8565 30.3083 26.729 30.4316 26.729 30.5836C26.729 30.7357 26.8565 30.8589 27.0139 30.8589Z" fill="#391F85"/>
<path d="M23.6899 31.6619C23.8472 31.6619 23.9748 31.5387 23.9748 31.3866C23.9748 31.2346 23.8472 31.1113 23.6899 31.1113C23.5326 31.1113 23.405 31.2346 23.405 31.3866C23.405 31.5387 23.5326 31.6619 23.6899 31.6619Z" fill="#391F85"/>
<path d="M24.5207 31.6619C24.678 31.6619 24.8056 31.5387 24.8056 31.3866C24.8056 31.2346 24.678 31.1113 24.5207 31.1113C24.3634 31.1113 24.2358 31.2346 24.2358 31.3866C24.2358 31.5387 24.3634 31.6619 24.5207 31.6619Z" fill="#391F85"/>
<path d="M25.3513 31.6619C25.5086 31.6619 25.6361 31.5387 25.6361 31.3866C25.6361 31.2346 25.5086 31.1113 25.3513 31.1113C25.1939 31.1113 25.0664 31.2346 25.0664 31.3866C25.0664 31.5387 25.1939 31.6619 25.3513 31.6619Z" fill="#391F85"/>
<path d="M22.8828 32.4649C23.0401 32.4649 23.1676 32.3416 23.1676 32.1896C23.1676 32.0376 23.0401 31.9143 22.8828 31.9143C22.7254 31.9143 22.5979 32.0376 22.5979 32.1896C22.5979 32.3416 22.7254 32.4649 22.8828 32.4649Z" fill="#391F85"/>
<path d="M23.6899 32.4649C23.8472 32.4649 23.9748 32.3416 23.9748 32.1896C23.9748 32.0376 23.8472 31.9143 23.6899 31.9143C23.5326 31.9143 23.405 32.0376 23.405 32.1896C23.405 32.3416 23.5326 32.4649 23.6899 32.4649Z" fill="#391F85"/>
</svg>
