<svg width="40" height="40" viewBox="0 0 40 40" fill="none" xmlns="http://www.w3.org/2000/svg">
<circle cx="20" cy="20" r="20" fill="#005E72"/>
<path fill-rule="evenodd" clip-rule="evenodd" d="M18.0499 21.6405L18.1953 21.3746C18.5189 20.7828 18.7291 20.1375 18.8162 19.4686L18.8553 19.1681L20.4129 18.9429C20.5948 18.8989 20.7252 18.729 20.717 18.5208C20.6845 17.7223 20.3894 16.8832 20.0667 16.0884L20.0664 16.0877C19.9928 15.9053 19.7889 15.7953 19.5884 15.8372L19.5877 15.8374L18.1902 16.1271L18.0432 15.8887C17.6921 15.3195 17.2333 14.8107 16.6868 14.393L16.4619 14.2211L16.9022 12.8692C16.9626 12.6838 16.88 12.4733 16.6934 12.3743C15.9496 11.987 15.1481 11.7326 14.3472 11.6135C14.1491 11.5854 13.9611 11.7045 13.9003 11.8913L13.4585 13.2476L13.174 13.2529C12.4897 13.2655 11.8188 13.4089 11.1987 13.6626L10.9395 13.7686L9.98139 12.7121C9.98131 12.712 9.98122 12.7119 9.98114 12.7118C9.83992 12.5571 9.61283 12.528 9.44649 12.6317L9.44577 12.6321C8.71588 13.0849 7.98062 13.5879 7.48428 14.2137L7.48336 14.2148L7.48243 14.216C7.36259 14.3648 7.36573 14.5842 7.49818 14.7356L8.60964 15.8364L8.46535 16.1003C8.14172 16.6922 7.93162 17.3374 7.84556 18.0027L7.80684 18.302L6.26242 18.5328C6.06587 18.5795 5.93382 18.7561 5.94143 18.9498C5.975 19.7447 6.27294 20.5842 6.59604 21.38L6.59636 21.3808C6.66997 21.5632 6.87384 21.6732 7.07432 21.6312L7.07611 21.6308L8.47194 21.3452L8.61854 21.5829C8.96963 22.1522 9.42844 22.6609 9.97489 23.0786L10.1999 23.2506L9.75948 24.6025C9.699 24.7881 9.7819 24.9989 9.96903 25.0977C10.7111 25.4879 11.5091 25.7412 12.3103 25.8603C12.5098 25.8886 12.7 25.769 12.7614 25.5804L13.2022 24.2273L13.4866 24.222C14.1709 24.2094 14.8419 24.0659 15.462 23.8123L15.7212 23.7062L16.6793 24.7628C16.6794 24.7629 16.6795 24.763 16.6795 24.7631C16.8208 24.9178 17.0478 24.9469 17.2142 24.8432L17.2149 24.8428C17.9486 24.3876 18.6939 23.89 19.189 23.266C19.3122 23.1089 19.3061 22.8894 19.1773 22.7412L18.0499 21.6405ZM19.4662 22.4648C19.734 22.7588 19.7481 23.2017 19.5025 23.5138C18.9588 24.1992 18.1563 24.729 17.4255 25.1823C17.0913 25.3906 16.6517 25.3258 16.3839 25.0319L15.6133 24.1821C14.9488 24.4539 14.2291 24.6079 13.494 24.6215L13.1413 25.7041C13.0196 26.0779 12.6445 26.3121 12.2526 26.2557C11.408 26.1303 10.5663 25.8632 9.78267 25.4511C9.42943 25.2648 9.25675 24.8557 9.37955 24.4787L9.73223 23.3961C9.14722 22.9489 8.65531 22.4037 8.27844 21.7927L7.1562 22.0223C6.76991 22.1032 6.37321 21.8955 6.22582 21.5303C5.90228 20.7335 5.57884 19.8369 5.54219 18.966C5.52643 18.5724 5.79872 18.2228 6.18932 18.1397L7.44929 17.9514C7.54175 17.2367 7.76742 16.5439 8.11476 15.9086L7.20851 15.0111C6.94073 14.7171 6.92339 14.2731 7.17122 13.9654C7.71486 13.2799 8.50433 12.7459 9.23513 12.2926C9.56936 12.0842 10.009 12.149 10.2768 12.443L11.0474 13.2928C11.7118 13.021 12.4315 12.8669 13.1666 12.8534L13.5204 11.7675C13.6411 11.397 14.0129 11.1617 14.4049 11.2181C15.2495 11.3435 16.0944 11.6117 16.879 12.0205C17.2323 12.2069 17.405 12.616 17.2822 12.993L16.9295 14.0756C17.5145 14.5228 18.0064 15.0679 18.3833 15.679L19.5066 15.4461C19.8929 15.3653 20.2896 15.5729 20.4369 15.9381C20.7605 16.7349 21.0807 17.6305 21.1163 18.5046C21.132 18.8982 20.876 19.2531 20.4854 19.3362L19.2124 19.5202C19.1189 20.2382 18.8932 20.931 18.5459 21.5663L19.4662 22.4648ZM14.6785 21.3595L14.6292 21.3768C12.8802 21.9871 11.405 21.2393 10.7791 20.0235C10.1521 18.8057 10.4102 17.1815 11.9432 16.1425L11.9865 16.1132L12.0358 16.096C13.7847 15.4856 15.26 16.2334 15.8859 17.4492C16.5128 18.667 16.2547 20.2913 14.7217 21.3303L14.6785 21.3595ZM12.1674 16.4732C9.43273 18.3267 11.3705 22.0907 14.4976 20.9995C17.2322 19.146 15.2945 15.382 12.1674 16.4732Z" fill="#F0C03E"/>
<path fill-rule="evenodd" clip-rule="evenodd" d="M31.1337 25.8072L31.2319 25.6275C31.4505 25.2276 31.5926 24.7917 31.6514 24.3397L31.6779 24.1367L32.7303 23.9845C32.8532 23.9548 32.9413 23.84 32.9358 23.6993C32.9138 23.1597 32.7144 22.5928 32.4964 22.0558L32.4962 22.0553C32.4464 21.932 32.3087 21.8577 32.1732 21.8861L32.1727 21.8862L31.2284 22.0819L31.1291 21.9209C30.8919 21.5362 30.5819 21.1925 30.2127 20.9103L30.0607 20.7941L30.3582 19.8806C30.399 19.7554 30.3432 19.6131 30.2171 19.5463C29.7146 19.2845 29.173 19.1126 28.6318 19.0322C28.498 19.0132 28.371 19.0937 28.3299 19.2199L28.0313 20.1363L27.8391 20.1399C27.3768 20.1484 26.9234 20.2453 26.5044 20.4167L26.3293 20.4884L25.682 19.7745C25.6819 19.7744 25.6818 19.7744 25.6818 19.7743C25.5864 19.6697 25.4329 19.6501 25.3205 19.7201L25.3201 19.7204C24.8269 20.0264 24.3301 20.3662 23.9947 20.789L23.9941 20.7898L23.9935 20.7906C23.9125 20.8912 23.9146 21.0394 24.0041 21.1417L24.7551 21.8855L24.6576 22.0638C24.4389 22.4638 24.297 22.8997 24.2388 23.3492L24.2127 23.5514L23.1691 23.7074C23.0363 23.7389 22.9471 23.8582 22.9523 23.9891C22.9749 24.5262 23.1762 25.0935 23.3946 25.6312L23.3948 25.6317C23.4445 25.7549 23.5823 25.8293 23.7177 25.8009L23.7189 25.8007L24.6621 25.6077L24.7611 25.7683C24.9983 26.1529 25.3083 26.4967 25.6776 26.7789L25.8296 26.8951L25.532 27.8085C25.4912 27.9339 25.5472 28.0764 25.6736 28.1431C26.175 28.4068 26.7142 28.578 27.2556 28.6584C27.3904 28.6775 27.5188 28.5967 27.5604 28.4693L27.8582 27.555L28.0504 27.5515C28.5127 27.5429 28.9661 27.446 29.3851 27.2746L29.5602 27.203L30.2076 27.9169C30.2076 27.9169 30.2077 27.917 30.2077 27.917C30.3032 28.0216 30.4566 28.0412 30.569 27.9712L30.5695 27.9709C31.0652 27.6633 31.5688 27.3271 31.9033 26.9055C31.9866 26.7993 31.9824 26.651 31.8954 26.5509L31.1337 25.8072ZM32.0906 26.3642C32.2716 26.5628 32.2811 26.8621 32.1151 27.0729C31.7478 27.536 31.2056 27.894 30.7118 28.2003C30.486 28.3411 30.1889 28.2973 30.008 28.0987L29.4873 27.5245C29.0383 27.7081 28.5521 27.8122 28.0554 27.8214L27.8171 28.5529C27.7348 28.8054 27.4814 28.9637 27.2165 28.9256C26.6459 28.8408 26.0772 28.6604 25.5477 28.3819C25.309 28.256 25.1923 27.9796 25.2753 27.7249L25.5136 26.9934C25.1183 26.6912 24.786 26.3229 24.5313 25.91L23.773 26.0652C23.512 26.1198 23.244 25.9795 23.1444 25.7327C22.9258 25.1943 22.7073 24.5886 22.6825 24.0001C22.6719 23.7342 22.8558 23.4979 23.1197 23.4418L23.9711 23.3146C24.0336 22.8316 24.186 22.3635 24.4207 21.9343L23.8084 21.3278C23.6275 21.1292 23.6157 20.8292 23.7832 20.6213C24.1505 20.1582 24.6839 19.7973 25.1777 19.491C25.4036 19.3503 25.7006 19.394 25.8815 19.5927L26.4022 20.1668C26.8512 19.9832 27.3375 19.8791 27.8342 19.8699L28.0732 19.1363C28.1547 18.8859 28.4059 18.7269 28.6708 18.765C29.2415 18.8498 29.8124 19.031 30.3425 19.3072C30.5812 19.4331 30.6979 19.7095 30.6149 19.9643L30.3766 20.6958C30.7719 20.9979 31.1043 21.3663 31.3589 21.7791L32.1179 21.6218C32.3789 21.5672 32.6469 21.7075 32.7465 21.9542C32.9651 22.4926 33.1815 23.0977 33.2055 23.6883C33.2162 23.9543 33.0432 24.1941 32.7793 24.2502L31.9191 24.3746C31.856 24.8597 31.7035 25.3278 31.4688 25.757L32.0906 26.3642ZM28.8557 25.6174L28.8224 25.629C27.6406 26.0414 26.6439 25.5361 26.2209 24.7146C25.7973 23.8918 25.9717 22.7943 27.0075 22.0923L27.0367 22.0725L27.07 22.0609C28.2518 21.6485 29.2486 22.1537 29.6715 22.9752C30.0951 23.7981 29.9207 24.8955 28.8849 25.5976L28.8557 25.6174ZM27.159 22.3158C25.3112 23.5681 26.6205 26.1114 28.7334 25.3741C30.5812 24.1217 29.2719 21.5785 27.159 22.3158Z" fill="#4DC8F0"/>
<path fill-rule="evenodd" clip-rule="evenodd" d="M17.7141 12.1667C17.7935 12.0215 17.9756 11.9682 18.1208 12.0477L28.1837 17.5538C28.3289 17.6332 28.3822 17.8153 28.3028 17.9605C28.2233 18.1057 28.0412 18.159 27.896 18.0796L17.8331 12.5735C17.6879 12.494 17.6346 12.3119 17.7141 12.1667Z" fill="#EF7959"/>
<path fill-rule="evenodd" clip-rule="evenodd" d="M13.4344 26.1208C13.4674 25.9586 13.6256 25.8539 13.7878 25.8869L24.9879 28.1649C25.1501 28.1978 25.2548 28.3561 25.2218 28.5183C25.1888 28.6804 25.0306 28.7852 24.8684 28.7522L13.6684 26.4742C13.5062 26.4412 13.4014 26.283 13.4344 26.1208Z" fill="#EF7959"/>
</svg>
