<svg xmlns="http://www.w3.org/2000/svg" xmlns:xlink="http://www.w3.org/1999/xlink" viewBox="0 0 75.83 75.83"><defs><style>.cls-1{fill:none;}.cls-2{fill:#245d70;}.cls-3{clip-path:url(#clip-path);}</style><clipPath id="clip-path" transform="translate(-12.14 -12.17)"><rect class="cls-1" width="100" height="100"/></clipPath></defs><title>Asset 1</title><g id="Layer_2" data-name="Layer 2"><g id="Layer_1-2" data-name="Layer 1"><path class="cls-2" d="M70.79,67.85h0Z" transform="translate(-12.14 -12.17)"/><g class="cls-3"><path class="cls-2" d="M12.14,88H88V12.17H12.14ZM83.23,58.89c-3.17-1.12-7.11-4.08-11.06-12C67.82,38.23,62,32.52,56.7,29.81c-.12.39-.28.85-.5,1.41L57,33.3l-.26,1.09c3.92,2.77,8.36,7.81,12.3,15.7,4.28,8.54,10,11.31,14.22,12.2v21H16.88V61.94a22.15,22.15,0,0,0,12.54-9l.42.45.7.47h.51l.79-.35h1s-.71.47-.71.59.44.47.44.47l1.5,0,1.53.24.63-.12.23-.51.44-1,.55.83.67-.67.59-.9,0,.86.82-.59-.15-1H40L41.4,52l.91.91.66-.47.91.35.47.35.08.75.31.91s.24.66.28.79a3.42,3.42,0,0,0,.32.46l.39.4.79,0,1.1-.28,1,.4-.47.27-.08.83.12.55s.79.86.75,1a5,5,0,0,1-.36.54l-.19.67.74.63v.51l-.39.59.94.28.87.28,0,.54,1,.4,1.22.32H54l.47.27.64,0,1.21.16.24.55,1.5.39,1.81.39.94,1.54,1.38,2,.31.79-.51.16.24.83-.56.27-1.37-.55L59,69.93l-.24-.75-.51-1.1-1.22.13.87.66.43,1.42-.87,1.06-.74,1.57.2,2-.2.79-.87,1.46-1.42.47-.11.51-.12,1.3.39.27-.08.44-.59.11-1.06-.08-.43.4.27,1.1,1,.08.27.59.67-.87,1.1-.47s.75-.75,1.3-1.34a2.52,2.52,0,0,1,1.7-.51h.15l2.52.51-.47-.47,1.85-.67,2.28-.27,0-1-.28-.72-.39.32h-.63a1.12,1.12,0,0,0-.82-.28h-.27c-.56,0,.62-1,.62-1a.43.43,0,0,1,.36-.67,1.79,1.79,0,0,0,1.1-.75L68,73.32l1.38.24.74.15h.6l-.4-.79-.74-.43h1.33s1.54-.62,1.66-.62a3.17,3.17,0,0,0,2.2-1.54,6.6,6.6,0,0,1,3-2.09l.47-.55-.43-.51.43-.94L77.21,66,76,66.2l-1.74,1-1.1-.31s-2-.16-2-.67a.44.44,0,0,0-.51-.44h-.08s-.83-.16-.87-.82-1.41-.9-1.41-.9l-2.13-.36c-1.77-.63-3-3.31-3-3.31A8.12,8.12,0,0,1,63,57.78c.2-1.34,0-12.12,0-12.12l-.39-.87-.2-1.33-.35.27-1.34-.4-.31-.62-.4-1.42-1.26-.75-1.57-.86.83-.59L56.2,36.17l.39-.51v-.75l.12-.52c-.43-.3-.87-.59-1.29-.84a10.45,10.45,0,0,0-10.72,0c-4.22,2.52-9.21,7.76-13.6,16.54a21.17,21.17,0,0,1-1.72,2.53l-.14-.23-.43,0-.2.24L28,51.83,27.63,51l-.27-.77-.67-.31-.39-.08a31.22,31.22,0,0,0,1.64-2.9c6.32-12.64,15.8-19,22.12-19a14.86,14.86,0,0,1,6.64,1.84c.56-1.84.1-2-.1-2a.22.22,0,0,0-.09,0l-3.66-.67-1.46-.4-1.65.55.36-.82L48.29,25l-.4,0-2.63-1.58-.91.16.44-.35-.64-2-.46.19-1.54-1.73L23.65,33.81,22.28,45.42v1.11l.55-.24v-.71l.63-.71.59,1,.08.59.55.62.43.59v.64l-.47.27-.86.27a7.3,7.3,0,0,0-.72.52l-.23.55.55.47.83.16.51.45h.8l.07-.09V51h-.07a20.89,20.89,0,0,1-8.64,7.36V16.91H83.23Z" transform="translate(-12.14 -12.17)"/></g></g></g></svg>