<svg width="46" height="53" viewBox="0 0 46 53" fill="none" xmlns="http://www.w3.org/2000/svg">
<path fill-rule="evenodd" clip-rule="evenodd" d="M37.3597 9.50407L45.3213 2.21348L43.8463 0.862793L36.2048 7.86021C33.3935 4.42262 28.8369 2.18815 23.6938 2.18815C15.1537 2.18815 8.23047 8.34934 8.23047 15.9495C8.23047 18.0181 8.74334 19.9801 9.66209 21.7403L12.4746 29.5904L0.523438 40.5343L1.99844 41.885L13.2033 31.6245L16.1333 39.8026L14.7568 39.8026V42.5549H32.9692V39.8026L31.5967 39.8026L37.8744 21.4462C38.6995 19.7626 39.1572 17.9036 39.1572 15.9495C39.1572 13.6206 38.5071 11.4269 37.3597 9.50407ZM34.723 9.21711C32.326 6.21512 28.3538 4.18815 23.6938 4.18815C16.0326 4.18815 10.2305 9.66678 10.2305 15.9495C10.2305 17.6817 10.6588 19.3276 11.4351 20.8149L11.4986 20.9366L14.0743 28.1256L19.7548 22.9238C19.3342 22.1914 19.0938 21.3425 19.0938 20.4374C19.0938 17.676 21.3323 15.4374 24.0938 15.4374C25.1562 15.4374 26.1413 15.7688 26.9513 16.3339L34.723 9.21711ZM28.327 17.7754L35.8414 10.8943C36.6884 12.4429 37.1572 14.1637 37.1572 15.9495C37.1572 17.5863 36.7748 19.1453 36.0785 20.566L36.0229 20.6795L30.167 37.8026H25V25.3555C27.3288 24.9291 29.0938 22.8894 29.0938 20.4374C29.0938 19.459 28.8127 18.5463 28.327 17.7754ZM25.4131 17.7424C25.015 17.5471 24.5672 17.4374 24.0938 17.4374C22.4369 17.4374 21.0938 18.7806 21.0938 20.4374C21.0938 20.8173 21.1644 21.1806 21.2931 21.5151L25.4131 17.7424ZM22.5867 23.032L26.8108 19.1639C26.9923 19.5504 27.0938 19.9821 27.0938 20.4374C27.0938 22.0943 25.7506 23.4374 24.0938 23.4374C23.5444 23.4374 23.0295 23.2898 22.5867 23.032ZM21.0706 24.4203L14.803 30.1596L17.5413 37.8026H23V25.3174C22.2876 25.1585 21.6325 24.8475 21.0706 24.4203ZM14.7568 48.6714V45.9189V43.1667H32.9692V45.9191V48.6714H27.121C27.0329 50.251 25.607 52.1881 23.8609 52.1881C22.1148 52.1881 20.6888 50.251 20.6007 48.6714H14.7568ZM23.2138 47.7466L22.6663 45.1667H25.0554L24.5083 47.7467L24.8961 47.9191H25.1599L25.1241 48.5599C25.108 48.8485 24.938 49.3204 24.5957 49.7187C24.2543 50.116 23.9708 50.1881 23.8609 50.1881C23.7509 50.1881 23.4674 50.116 23.126 49.7187C22.7837 49.3204 22.6137 48.8485 22.5976 48.5599L22.5618 47.9191H22.8256L23.2138 47.7466Z" fill="white"/>
</svg>
