<svg xmlns="http://www.w3.org/2000/svg" xmlns:xlink="http://www.w3.org/1999/xlink" viewBox="0 0 1544 319.32"><defs><style>.cls-1,.cls-19,.cls-21,.cls-5{fill:none;}.cls-2{clip-path:url(#clip-path);}.cls-3{fill:url(#linear-gradient);}.cls-4{clip-path:url(#clip-path-2);}.cls-19,.cls-21,.cls-5{stroke-miterlimit:10;stroke-width:5px;}.cls-5{stroke:url(#linear-gradient-2);}.cls-6{fill:url(#linear-gradient-3);}.cls-7{fill:url(#linear-gradient-4);}.cls-8{fill:url(#linear-gradient-5);}.cls-9{fill:url(#linear-gradient-6);}.cls-10{fill:url(#linear-gradient-7);}.cls-11{fill:url(#linear-gradient-8);}.cls-12{fill:url(#linear-gradient-9);}.cls-13{fill:url(#linear-gradient-10);}.cls-14{fill:url(#linear-gradient-11);}.cls-15{fill:url(#linear-gradient-12);}.cls-16{fill:url(#linear-gradient-13);}.cls-17{fill:url(#linear-gradient-14);}.cls-18{fill:url(#linear-gradient-15);}.cls-19{stroke:url(#linear-gradient-16);}.cls-20{fill:url(#linear-gradient-17);}.cls-21{stroke:url(#linear-gradient-18);}.cls-22{fill:url(#linear-gradient-19);}.cls-23{fill:url(#linear-gradient-20);}.cls-24{fill:url(#linear-gradient-21);}</style><clipPath id="clip-path" transform="translate(0 -85.5)"><rect class="cls-1" x="69" width="1440" height="467"/></clipPath><linearGradient id="linear-gradient" x1="1549.23" y1="346.92" x2="1359.1" y2="277.71" gradientUnits="userSpaceOnUse"><stop offset="0" stop-color="#86a8e7" stop-opacity="0.68"/><stop offset="0.3" stop-color="#cfe4f9" stop-opacity="0.92"/><stop offset="0.45" stop-color="#eaf8fe"/><stop offset="0.58" stop-color="#cbeffc" stop-opacity="0.5"/><stop offset="1" stop-color="#4dc8f0" stop-opacity="0.4"/></linearGradient><clipPath id="clip-path-2" transform="translate(0 -85.5)"><rect class="cls-1" x="1231" y="131.5" width="467" height="229"/></clipPath><linearGradient id="linear-gradient-2" x1="1037.3" y1="92.38" x2="1235.67" y2="18.66" gradientTransform="matrix(1, 0, 0, -1, 287, 314)" xlink:href="#linear-gradient"/><linearGradient id="linear-gradient-3" x1="1173.28" y1="-41.2" x2="1253.73" y2="6.72" gradientTransform="matrix(1, 0, 0, -1, 287, 314)" xlink:href="#linear-gradient"/><linearGradient id="linear-gradient-4" x1="1075.95" y1="89.79" x2="1156.4" y2="137.71" gradientTransform="matrix(1, 0, 0, -1, 287, 314)" xlink:href="#linear-gradient"/><linearGradient id="linear-gradient-5" x1="981.74" y1="15.34" x2="1129.41" y2="103.3" gradientTransform="matrix(1, 0, 0, -1, 287, 314)" xlink:href="#linear-gradient"/><linearGradient id="linear-gradient-6" x1="1074.69" y1="-22.61" x2="1031.32" y2="-32.54" gradientTransform="matrix(1, 0, 0, -1, 287, 314)" xlink:href="#linear-gradient"/><linearGradient id="linear-gradient-7" x1="18.06" y1="175.79" x2="-157.46" y2="288.28" gradientTransform="matrix(1, 0, 0, -1, 287, 314)" xlink:href="#linear-gradient"/><linearGradient id="linear-gradient-8" x1="1179.06" y1="175.79" x2="1003.55" y2="288.28" gradientTransform="matrix(1, 0, 0, -1, 287, 314)" xlink:href="#linear-gradient"/><linearGradient id="linear-gradient-9" x1="88.08" y1="192" x2="7.65" y2="213.48" gradientTransform="matrix(1, 0, 0, -1, 287, 314)" xlink:href="#linear-gradient"/><linearGradient id="linear-gradient-10" x1="1249.09" y1="191.99" x2="1168.66" y2="213.48" gradientTransform="matrix(1, 0, 0, -1, 287, 314)" xlink:href="#linear-gradient"/><linearGradient id="linear-gradient-11" x1="-1.23" y1="192.03" x2="-45.91" y2="181.8" gradientTransform="matrix(1, 0, 0, -1, 287, 314)" xlink:href="#linear-gradient"/><linearGradient id="linear-gradient-12" x1="-160.34" y1="208.13" x2="-190.31" y2="201.27" gradientTransform="matrix(1, 0, 0, -1, 287, 314)" xlink:href="#linear-gradient"/><linearGradient id="linear-gradient-13" x1="-120.31" y1="45.39" x2="-163.68" y2="35.46" gradientTransform="matrix(1, 0, 0, -1, 287, 314)" xlink:href="#linear-gradient"/><linearGradient id="linear-gradient-14" x1="-48.13" y1="-50.94" x2="-78.35" y2="-57.86" gradientTransform="matrix(1, 0, 0, -1, 287, 314)" xlink:href="#linear-gradient"/><linearGradient id="linear-gradient-15" x1="1130.69" y1="192.39" x2="1087.32" y2="182.46" gradientTransform="matrix(1, 0, 0, -1, 287, 314)" xlink:href="#linear-gradient"/><linearGradient id="linear-gradient-16" x1="-16.58" y1="178.71" x2="-223.53" y2="89.25" gradientTransform="matrix(1, 0, 0, -1, 287, 314)" xlink:href="#linear-gradient"/><linearGradient id="linear-gradient-17" x1="-103.34" y1="19.58" x2="-287" y2="152.91" gradientTransform="matrix(1, 0, 0, -1, 287, 314)" xlink:href="#linear-gradient"/><linearGradient id="linear-gradient-18" x1="24.8" y1="31.69" x2="-85.74" y2="-4.69" gradientTransform="matrix(1, 0, 0, -1, 287, 314)" xlink:href="#linear-gradient"/><linearGradient id="linear-gradient-19" x1="-123.38" y1="-11.39" x2="-239.62" y2="38.09" gradientTransform="matrix(1, 0, 0, -1, 287, 314)" xlink:href="#linear-gradient"/><linearGradient id="linear-gradient-20" x1="76.08" y1="-40" x2="-4.35" y2="-18.52" gradientTransform="matrix(1, 0, 0, -1, 287, 314)" xlink:href="#linear-gradient"/><linearGradient id="linear-gradient-21" x1="-91.04" y1="-133.57" x2="-225.47" y2="-19.24" gradientTransform="matrix(1, 0, 0, -1, 287, 314)" xlink:href="#linear-gradient"/></defs><title>Mission Section Asset</title><g id="Layer_2" data-name="Layer 2"><g id="Layer_1-2" data-name="Layer 1"><g class="cls-2"><rect class="cls-3" x="1386.32" y="313.32" width="157.68" height="6" rx="3"/><g class="cls-4"><path class="cls-5" d="M1357.68,296H1489c23.17,0,42.16-16.92,42.16-37.54s-19-37.54-42.16-37.54H1357.68c-23.16,0-42.16,16.91-42.16,37.54S1334.52,296,1357.68,296Z" transform="translate(0 -85.5)"/><path class="cls-6" d="M1461.13,337h69.49c2.77,0,4.91-1.37,4.91-3s-2.25-3-4.91-3h-69.49c-2.77,0-4.91,1.37-4.91,3S1458.36,337,1461.13,337Z" transform="translate(0 -85.5)"/><path class="cls-7" d="M1363.77,206h69.48c2.78,0,4.91-1.37,4.91-3s-2.24-3-4.91-3h-69.48c-2.78,0-4.91,1.37-4.91,3S1361.1,206,1363.77,206Z" transform="translate(0 -85.5)"/><path class="cls-8" d="M1264.84,262.79h138.32c2.17,0,3.84-1.37,3.84-3s-1.75-3-3.84-3H1264.84c-2.17,0-3.84,1.37-3.84,3S1262.75,262.79,1264.84,262.79Z" transform="translate(0 -85.5)"/><path class="cls-9" d="M1355.38,336.66h-8.54v-8.54a3.58,3.58,0,0,0-3.62-3.62h-1.44a3.58,3.58,0,0,0-3.62,3.62v8.54h-8.54a3.58,3.58,0,0,0-3.62,3.62v1.44a3.58,3.58,0,0,0,3.62,3.62h8.54v8.54a3.58,3.58,0,0,0,3.62,3.62h1.44a3.58,3.58,0,0,0,3.62-3.62v-8.54h8.54a3.58,3.58,0,0,0,3.62-3.62v-1.44A3.58,3.58,0,0,0,1355.38,336.66Z" transform="translate(0 -85.5)"/></g><path class="cls-10" d="M312.72,91.5H142.28c-3,0-5.28-1.37-5.28-3s2.41-3,5.28-3H312.72c3,0,5.28,1.37,5.28,3S315.59,91.5,312.72,91.5Z" transform="translate(0 -85.5)"/><path class="cls-11" d="M1473.72,91.5H1303.28c-3,0-5.28-1.37-5.28-3s2.41-3,5.28-3h170.44c3,0,5.28,1.37,5.28,3S1476.59,91.5,1473.72,91.5Z" transform="translate(0 -85.5)"/><path class="cls-12" d="M368.8,115.5H310.2c-1.18,0-2.2-1.31-2.2-3s1-3,2.2-3h58.6c1.18,0,2.2,1.31,2.2,3S370,115.5,368.8,115.5Z" transform="translate(0 -85.5)"/><path class="cls-13" d="M1529.8,115.5h-58.6c-1.18,0-2.2-1.31-2.2-3s1-3,2.2-3h58.6c1.18,0,2.2,1.31,2.2,3S1531,115.5,1529.8,115.5Z" transform="translate(0 -85.5)"/><path class="cls-14" d="M279.27,122h-8.8v-8.8a3.69,3.69,0,0,0-3.72-3.73h-1.5a3.69,3.69,0,0,0-3.72,3.73V122h-8.8a3.69,3.69,0,0,0-3.73,3.72v1.5a3.69,3.69,0,0,0,3.73,3.72h8.8v8.8a3.69,3.69,0,0,0,3.72,3.73h1.5a3.69,3.69,0,0,0,3.72-3.73V131h8.8a3.69,3.69,0,0,0,3.73-3.72v-1.5A3.69,3.69,0,0,0,279.27,122Z" transform="translate(0 -85.5)"/><path class="cls-15" d="M122.3,105.9h-5.9V100a2.48,2.48,0,0,0-2.5-2.5h-1a2.48,2.48,0,0,0-2.5,2.5v5.9h-5.9a2.48,2.48,0,0,0-2.5,2.5v1a2.48,2.48,0,0,0,2.5,2.5h5.9v5.9a2.48,2.48,0,0,0,2.5,2.5h1a2.48,2.48,0,0,0,2.5-2.5v-5.9h5.9a2.48,2.48,0,0,0,2.5-2.5v-1A2.48,2.48,0,0,0,122.3,105.9Z" transform="translate(0 -85.5)"/><path class="cls-16" d="M160.38,268.66h-8.54v-8.54a3.58,3.58,0,0,0-3.62-3.62h-1.44a3.58,3.58,0,0,0-3.62,3.62v8.54h-8.54a3.58,3.58,0,0,0-3.62,3.62v1.44a3.58,3.58,0,0,0,3.62,3.62h8.54v8.54a3.58,3.58,0,0,0,3.62,3.62h1.44a3.58,3.58,0,0,0,3.62-3.62v-8.54h8.54a3.58,3.58,0,0,0,3.62-3.62v-1.44A3.58,3.58,0,0,0,160.38,268.66Z" transform="translate(0 -85.5)"/><path class="cls-17" d="M234.48,365h-5.95v-6A2.5,2.5,0,0,0,226,356.5h-1a2.5,2.5,0,0,0-2.53,2.52v6h-5.95A2.5,2.5,0,0,0,214,367.5v1a2.5,2.5,0,0,0,2.52,2.53h5.95v6A2.5,2.5,0,0,0,225,379.5h1a2.5,2.5,0,0,0,2.53-2.52v-6h5.95A2.5,2.5,0,0,0,237,368.5v-1A2.5,2.5,0,0,0,234.48,365Z" transform="translate(0 -85.5)"/><path class="cls-18" d="M1411.38,121.66h-8.54v-8.54a3.58,3.58,0,0,0-3.62-3.62h-1.44a3.58,3.58,0,0,0-3.62,3.62v8.54h-8.54a3.58,3.58,0,0,0-3.62,3.62v1.44a3.58,3.58,0,0,0,3.62,3.62h8.54v8.54a3.58,3.58,0,0,0,3.62,3.62h1.44a3.58,3.58,0,0,0,3.62-3.62v-8.54h8.54a3.58,3.58,0,0,0,3.62-3.62v-1.44A3.58,3.58,0,0,0,1411.38,121.66Z" transform="translate(0 -85.5)"/><path class="cls-19" d="M258.42,202.5H75.58C60.91,202.5,49,192.33,49,180s12-22.5,26.58-22.5H258.42c14.67,0,26.58,10.17,26.58,22.5S273,202.5,258.42,202.5Z" transform="translate(0 -85.5)"/><path class="cls-20" d="M199,238.5H6c-3.38,0-6-1.37-6-3s2.73-3,6-3H199c3.38,0,6,1.37,6,3S202.27,238.5,199,238.5Z" transform="translate(0 -85.5)"/><path class="cls-21" d="M292.18,323.5h-71.3a23,23,0,0,1,0-46h71.24a23,23,0,0,1,.06,46Z" transform="translate(0 -85.5)"/><path class="cls-22" d="M158.88,306.5H65.51a3,3,0,1,1,0-6h93.37a3,3,0,1,1,0,6Z" transform="translate(0 -85.5)"/><path class="cls-23" d="M356.8,347.5H298.2c-1.18,0-2.2-1.31-2.2-3s1-3,2.2-3h58.6c1.18,0,2.2,1.31,2.2,3S358,347.5,356.8,347.5Z" transform="translate(0 -85.5)"/><path class="cls-24" d="M214,400H59c-4,0-7-1.37-7-3s3.2-3,7-3H214c4,0,7,1.37,7,3C221.15,398.63,218,400,214,400Z" transform="translate(0 -85.5)"/></g></g></g></svg>