<svg width="81" height="77" viewBox="0 0 81 77" fill="none" xmlns="http://www.w3.org/2000/svg">
<path fill-rule="evenodd" clip-rule="evenodd" d="M19.5657 17.1569C12.2825 23.0885 7.5 31.7052 7.5 40.5002C7.5 58.1733 21.8269 72.5002 39.5 72.5002C57.1731 72.5002 71.5 58.1733 71.5 40.5002C71.5 30.0312 66.4733 20.7365 58.6997 14.8976L59.3003 14.098C67.3145 20.1177 72.5 29.7034 72.5 40.5002C72.5 58.7256 57.7254 73.5002 39.5 73.5002C21.2746 73.5002 6.5 58.7256 6.5 40.5002C6.5 31.3459 11.4675 22.4626 18.9343 16.3815C26.4052 10.297 36.4285 6.97595 46.5981 9.00987L46.4019 9.99045C36.5715 8.02437 26.8448 11.2287 19.5657 17.1569Z" fill="white"/>
<path fill-rule="evenodd" clip-rule="evenodd" d="M25.6967 31.3589C22.7357 29.0802 19.8196 25.0019 16.5664 19.2462L17.437 18.7542C20.6838 24.4985 23.5176 28.4201 26.3066 30.5664C27.6921 31.6326 29.0504 32.2477 30.4304 32.4409C31.8086 32.6339 33.2473 32.4115 34.8039 31.741C35.8995 31.269 37.0898 30.6176 38.3743 29.9147C38.9674 29.5901 39.5806 29.2545 40.2138 28.9206C42.191 27.8778 44.329 26.8717 46.4989 26.3955C48.6786 25.9171 50.9168 25.9678 53.0657 27.068C55.2085 28.1651 57.1966 30.2721 58.9489 33.7766C59.7666 35.4119 60.8818 36.2538 62.0819 36.6328C63.3011 37.0178 64.6556 36.9394 65.9509 36.6382C67.2426 36.3378 68.438 35.8245 69.3156 35.3819C69.7529 35.1613 70.108 34.96 70.3526 34.8146C70.4748 34.7419 70.5693 34.6833 70.6325 34.6433C70.664 34.6233 70.6878 34.608 70.7033 34.598L70.7202 34.5869L70.7239 34.5845C70.7238 34.5845 70.7243 34.5842 71.0017 35.0002C71.279 35.4162 71.2789 35.4163 71.2786 35.4165L71.2762 35.4181L71.2701 35.4221L71.2483 35.4364C71.2295 35.4486 71.2022 35.4662 71.167 35.4884C71.0967 35.5329 70.9944 35.5964 70.8637 35.6741C70.6024 35.8294 70.227 36.0422 69.7659 36.2747C68.8466 36.7384 67.5732 37.2876 66.1774 37.6122C64.7853 37.9359 63.2335 38.0451 61.7808 37.5863C60.3091 37.1216 58.9868 36.0884 58.0545 34.2238C56.3625 30.8399 54.5036 28.9277 52.61 27.9582C50.7225 26.9918 48.7349 26.9286 46.7132 27.3723C44.6816 27.8181 42.6425 28.7702 40.6803 29.8051C40.0836 30.1198 39.4903 30.4444 38.9068 30.7636C37.5986 31.4794 36.3394 32.1683 35.1995 32.6594C33.5061 33.3889 31.8823 33.654 30.2917 33.4313C28.703 33.2089 27.1863 32.5052 25.6967 31.3589Z" fill="white"/>
<path fill-rule="evenodd" clip-rule="evenodd" d="M9.26771 37.7963C9.0064 36.9107 8.59101 36.2814 7.80859 35.9634L8.18519 35.037C9.35693 35.5133 9.91862 36.4688 10.2268 37.5133C10.4445 38.251 10.5519 39.1003 10.6539 39.9066C10.6914 40.2036 10.7282 40.4947 10.7696 40.7724C10.9307 41.8548 11.1609 42.7744 11.6802 43.4283C12.1655 44.0393 12.9643 44.4894 14.4433 44.5C19.3219 43.4346 23.1571 45.1016 24.9747 47.9402C26.7913 50.7772 26.5021 54.6497 23.4186 57.785C23.2277 58.243 23.2031 58.5658 23.2487 58.8034C23.2963 59.0516 23.4332 59.2739 23.6766 59.5043C23.927 59.7414 24.2626 59.9617 24.6719 60.2108C24.7528 60.26 24.8366 60.3104 24.9225 60.362C25.2565 60.5627 25.6223 60.7826 25.9721 61.0288C26.8669 61.6585 27.7443 62.5179 28.0555 63.9317C28.362 65.3243 28.0981 67.1604 26.9529 69.7054L26.0409 69.295C27.1457 66.84 27.3192 65.2386 27.0789 64.1467C26.8433 63.0762 26.1893 62.4044 25.3966 61.8466C25.0793 61.6233 24.7535 61.4273 24.4232 61.2287C24.3331 61.1746 24.2427 61.1202 24.152 61.065C23.7429 60.816 23.3246 60.548 22.9891 60.2305C22.6465 59.9062 22.3655 59.5073 22.2666 58.9918C22.1684 58.4798 22.263 57.9204 22.54 57.2971L22.5777 57.2123L22.6433 57.1466C25.496 54.2939 25.6815 50.8985 24.1325 48.4794C22.5781 46.0517 19.1853 44.4705 14.6054 45.4883L14.5518 45.5002H14.4969C12.7603 45.5002 11.6235 44.9649 10.8971 44.0502C10.199 43.1711 9.9433 42.0136 9.78046 40.9196C9.7312 40.5887 9.69028 40.2651 9.65043 39.95C9.55241 39.1748 9.4609 38.4511 9.26771 37.7963Z" fill="white"/>
<path fill-rule="evenodd" clip-rule="evenodd" d="M47.4957 64.0795C48.2303 61.7756 49.0684 60.2239 49.9455 59.2969C50.8141 58.3788 51.7004 58.0889 52.5994 58.243C53.5374 58.4038 54.5852 59.0638 55.7006 60.2627C56.809 61.4541 57.9415 63.132 59.0545 65.2342L59.9383 64.7663C58.8012 62.6186 57.6212 60.859 56.4328 59.5815C55.2513 58.3116 54.0179 57.4716 52.7684 57.2574C51.4799 57.0365 50.2724 57.4964 49.2191 58.6096C48.1834 59.7042 47.2796 61.4427 46.5196 63.8495L46.4964 63.923V64.0001C46.4964 65.9397 45.0382 67.0532 43.1545 68.1891C42.955 68.3095 42.7505 68.4302 42.544 68.5522C41.814 68.9833 41.0594 69.4289 40.412 69.9216C39.5741 70.5592 38.842 71.3272 38.5195 72.3497L39.4732 72.6505C39.7059 71.9127 40.2513 71.3004 41.0176 70.7174C41.6137 70.2637 42.299 69.8588 43.0197 69.433C43.2341 69.3063 43.4517 69.1777 43.6709 69.0455C45.4906 67.9481 47.4551 66.589 47.4957 64.0795Z" fill="white"/>
<path fill-rule="evenodd" clip-rule="evenodd" d="M55.9237 3.46581L55.4113 4.39757C55.0991 4.96518 54.4725 5.23055 53.8849 5.13597C53.1655 5.02017 52.4571 5.03176 51.7813 5.15318C50.7162 5.34458 49.4334 5.06854 48.6482 4.06066C48.3635 3.69518 47.8378 3.63529 47.4923 3.90444L47.3945 3.98061C47.0931 4.21546 47.0391 4.65021 47.2739 4.95165C48.0747 5.97956 47.9532 7.31096 47.4217 8.26082C47.0736 8.88292 46.8261 9.57645 46.7057 10.3244C46.6115 10.9098 46.141 11.4009 45.5066 11.4704L43.8383 11.6532C43.3904 11.7023 43.0671 12.1052 43.1162 12.5531C43.1653 13.001 43.5681 13.3243 44.016 13.2752L44.4163 13.2313C45.8592 13.0732 47.0678 13.9253 47.7582 14.9114C47.8265 15.0088 47.8974 15.1044 47.9711 15.1978C48.6333 16.0383 48.9492 17.3085 48.3342 18.4267C48.1596 18.7443 48.2754 19.1433 48.593 19.318L48.7606 19.4101C49.1401 19.6188 49.6169 19.4804 49.8256 19.1009L50.2745 18.2847C50.6071 17.6799 51.2746 17.4038 51.8942 17.5036C52.6396 17.6235 53.3732 17.6068 54.071 17.4727C55.1086 17.2734 56.3662 17.5248 57.1415 18.52C57.4067 18.8603 57.8976 18.9213 58.238 18.6561L58.3953 18.5335C58.6789 18.3126 58.7297 17.9036 58.5088 17.62C57.7241 16.6128 57.8378 15.3086 58.3591 14.3758C58.7063 13.7544 58.9531 13.0619 59.0733 12.3151C59.1711 11.7078 59.6586 11.1925 60.3223 11.1198L61.9859 10.9375C62.4338 10.8885 62.7571 10.4856 62.708 10.0377C62.659 9.58978 62.2561 9.26647 61.8082 9.31555L61.341 9.36674C59.9021 9.5244 58.6948 8.67926 58.0006 7.69942C57.9343 7.60586 57.8655 7.51411 57.7942 7.42429C57.1178 6.572 56.7889 5.27854 57.4154 4.13943C57.5983 3.80685 57.477 3.38896 57.1444 3.20606L57.0317 3.14409C56.6369 2.92696 56.1408 3.071 55.9237 3.46581ZM54.535 3.91568C54.439 4.09026 54.2405 4.18034 54.0438 4.14868C53.2116 4.01472 52.3896 4.02786 51.6045 4.16895C50.8037 4.31284 49.9371 4.08787 49.4371 3.44608C48.8207 2.65497 47.6688 2.49924 46.8777 3.11558L46.7799 3.19176C46.0428 3.76603 45.9108 4.82912 46.4851 5.56623C46.9761 6.19647 46.9391 7.0753 46.549 7.7725C46.1445 8.49534 45.8577 9.30019 45.7185 10.1655C45.6921 10.3291 45.5624 10.4583 45.3977 10.4764L43.7294 10.6592C42.7325 10.7684 42.0129 11.6651 42.1221 12.662C42.2314 13.6589 43.1281 14.3785 44.125 14.2692L44.5252 14.2254C45.4903 14.1196 46.3822 14.6895 46.939 15.4849C47.0181 15.5978 47.1003 15.7085 47.1856 15.8167C47.6662 16.4266 47.8322 17.2644 47.458 17.9448C47.0172 18.7463 47.3096 19.7534 48.1111 20.1942L48.2787 20.2864C49.1422 20.7612 50.227 20.4462 50.7018 19.5828L51.1507 18.7666C51.2649 18.5591 51.5015 18.4532 51.7353 18.4909C52.5976 18.6297 53.4489 18.6105 54.2596 18.4548C55.0343 18.306 55.8678 18.5123 56.3526 19.1345C56.9573 19.9106 58.0765 20.0496 58.8526 19.445L59.0099 19.3224C59.7292 18.762 59.858 17.7247 59.2976 17.0054C58.8209 16.3935 58.8536 15.5408 59.232 14.8636C59.6355 14.1417 59.9216 13.338 60.0606 12.474C60.0911 12.2848 60.2407 12.1347 60.4312 12.1139L62.0948 11.9316C63.0917 11.8224 63.8113 10.9257 63.7021 9.92877C63.5929 8.93187 62.6962 8.21227 61.6993 8.3215L61.2321 8.37269C60.2684 8.47827 59.377 7.91239 58.8166 7.12135C58.7398 7.01296 58.6601 6.90666 58.5775 6.8026C58.0823 6.17875 57.9078 5.31922 58.2916 4.62133C58.7407 3.80481 58.4428 2.77887 57.6263 2.32982L57.5136 2.26786C56.6349 1.78459 55.5307 2.10518 55.0475 2.98392L54.535 3.91568Z" fill="white"/>
<path fill-rule="evenodd" clip-rule="evenodd" d="M43.0177 47.6328L42.6848 48.1C42.4685 48.4037 42.0945 48.513 41.7679 48.4198C41.397 48.314 41.0239 48.2763 40.6611 48.2986C40.0675 48.3351 39.381 48.1015 39.0153 47.4915C38.9007 47.3004 38.6542 47.2435 38.4763 47.3518L38.4188 47.3867C38.2664 47.4795 38.2172 47.6788 38.3089 47.8318C38.6827 48.4552 38.5253 49.1839 38.1721 49.6719C37.9494 49.9795 37.7752 50.3312 37.6643 50.7197C37.5704 51.0487 37.2687 51.299 36.902 51.2962L36.0032 51.2895C35.7883 51.2879 35.6121 51.4618 35.6098 51.678C35.6074 51.8942 35.7797 52.0707 35.9946 52.0723L36.2097 52.0739C37.0129 52.0799 37.6164 52.6286 37.9265 53.2113C37.956 53.2668 37.9871 53.3215 38.0198 53.3753C38.3264 53.8807 38.4178 54.6046 38.0033 55.1864C37.9054 55.3238 37.9365 55.5146 38.0728 55.6126L38.156 55.6724C38.3229 55.7924 38.5554 55.7532 38.6753 55.585L38.9669 55.1756C39.1967 54.8531 39.5932 54.7409 39.9363 54.8388C40.3207 54.9484 40.7075 54.985 41.0828 54.9573C41.6624 54.9145 42.3377 55.1332 42.6993 55.7362C42.8049 55.9123 43.0326 55.9684 43.208 55.8616L43.2997 55.8058C43.442 55.7192 43.4879 55.5332 43.4023 55.3903C43.0358 54.7791 43.187 54.0643 43.5337 53.5845C43.7556 53.2774 43.9293 52.9265 44.0399 52.5389C44.1369 52.1989 44.4487 51.9371 44.8307 51.94L45.7315 51.9467C45.9465 51.9483 46.1226 51.7744 46.125 51.5582C46.1274 51.342 45.955 51.1655 45.7401 51.1639L45.4864 51.162C44.685 51.156 44.0816 50.6109 43.7691 50.0311C43.7402 49.9777 43.71 49.925 43.6783 49.8732C43.3649 49.3607 43.2679 48.6234 43.69 48.0309C43.7932 47.886 43.7604 47.6848 43.6167 47.5814L43.5608 47.5413C43.3863 47.4158 43.1431 47.4568 43.0177 47.6328ZM42.2084 47.7574C42.1456 47.8456 42.0333 47.8816 41.9298 47.8521C41.4945 47.7279 41.0553 47.6833 40.6274 47.7096C40.191 47.7365 39.7433 47.5613 39.518 47.1855C39.2401 46.722 38.6356 46.5661 38.1738 46.8473L38.1164 46.8823C37.6863 47.1441 37.5475 47.7062 37.8063 48.1378C38.0275 48.5069 37.9512 48.9761 37.6982 49.3257C37.4356 49.6885 37.2306 50.1028 37.1005 50.5588C37.0758 50.6454 36.9979 50.7069 36.9085 50.7062L36.0097 50.6995C35.4707 50.6954 35.0291 51.1316 35.0231 51.6736C35.0172 52.2157 35.4492 52.6583 35.9882 52.6624L36.2032 52.664C36.7245 52.6679 37.1633 53.0295 37.409 53.4912C37.4438 53.5565 37.4803 53.6208 37.5187 53.684C37.7358 54.0418 37.7703 54.5021 37.5268 54.8439C37.2399 55.2466 37.3311 55.8059 37.7305 56.093L37.8137 56.1529C38.2438 56.462 38.8428 56.3611 39.1517 55.9275L39.4434 55.5182C39.5179 55.4135 39.6515 55.3714 39.7743 55.4065C40.2255 55.5352 40.681 55.5784 41.1236 55.5458C41.5466 55.5146 41.9781 55.6777 42.1967 56.0423C42.4693 56.4969 43.0575 56.6419 43.5105 56.3661L43.6022 56.3103C44.0221 56.0546 44.1577 55.5057 43.905 55.0843C43.69 54.7258 43.7624 54.27 44.0079 53.9302C44.2696 53.5681 44.4739 53.1547 44.6037 52.6998C44.6321 52.6003 44.7214 52.5293 44.8242 52.53L45.7251 52.5368C46.264 52.5408 46.7057 52.1046 46.7116 51.5626C46.7176 51.0206 46.2855 50.5779 45.7466 50.5739L45.4929 50.572C44.972 50.5681 44.533 50.2083 44.285 49.7484C44.2511 49.6856 44.2155 49.6237 44.1783 49.5628C43.9543 49.1966 43.9166 48.7241 44.1664 48.3735C44.4587 47.9632 44.3658 47.3935 43.959 47.101L43.9031 47.0609C43.4654 46.7462 42.8557 46.8489 42.5412 47.2902L42.2084 47.7574Z" fill="white"/>
<path fill-rule="evenodd" clip-rule="evenodd" d="M9.01771 63.6328L8.68485 64.1C8.46847 64.4037 8.09447 64.513 7.76785 64.4198C7.39698 64.314 7.02392 64.2763 6.66114 64.2986C6.0675 64.3351 5.38104 64.1015 5.01531 63.4915C4.90068 63.3004 4.65419 63.2435 4.47631 63.3518L4.41885 63.3867C4.26642 63.4795 4.21721 63.6788 4.30894 63.8318C4.68272 64.4552 4.52528 65.1839 4.17206 65.6719C3.94942 65.9795 3.77518 66.3312 3.66431 66.7197C3.57044 67.0487 3.26867 67.299 2.902 67.2962L2.00319 67.2895C1.78827 67.2879 1.61212 67.4618 1.60975 67.678C1.60738 67.8942 1.77969 68.0707 1.99462 68.0723L2.20967 68.0739C3.01289 68.0799 3.6164 68.6286 3.92646 69.2113C3.95602 69.2668 3.98714 69.3215 4.01978 69.3753C4.32639 69.8807 4.41779 70.6046 4.00328 71.1864C3.9054 71.3238 3.93651 71.5146 4.07276 71.6126L4.156 71.6724C4.32289 71.7924 4.55538 71.7532 4.67527 71.585L4.9669 71.1756C5.1967 70.8531 5.59324 70.7409 5.93632 70.8388C6.32072 70.9484 6.7075 70.985 7.08279 70.9573C7.66244 70.9145 8.33774 71.1332 8.69933 71.7362C8.80488 71.9123 9.03262 71.9684 9.20802 71.8616L9.29969 71.8058C9.44199 71.7192 9.48793 71.5332 9.4023 71.3903C9.0358 70.7791 9.18704 70.0643 9.53373 69.5845C9.7556 69.2774 9.92927 68.9265 10.0399 68.5389C10.1369 68.1989 10.4487 67.9371 10.8307 67.94L11.7315 67.9467C11.9465 67.9483 12.1226 67.7744 12.125 67.5582C12.1274 67.342 11.955 67.1655 11.7401 67.1639L11.4864 67.162C10.685 67.156 10.0816 66.6109 9.76907 66.0311C9.74024 65.9777 9.70997 65.925 9.67828 65.8732C9.36487 65.3607 9.26785 64.6234 9.68996 64.0309C9.79321 63.886 9.76039 63.6848 9.61667 63.5814L9.56084 63.5413C9.38628 63.4158 9.14311 63.4568 9.01771 63.6328ZM8.20838 63.7574C8.14558 63.8456 8.03329 63.8816 7.92984 63.8521C7.49454 63.7279 7.05527 63.6833 6.62738 63.7096C6.19103 63.7365 5.74334 63.5613 5.51798 63.1855C5.24011 62.722 4.63561 62.5661 4.17383 62.8473L4.11636 62.8823C3.68632 63.1441 3.54748 63.7062 3.80626 64.1378C4.02754 64.5069 3.95123 64.9761 3.6982 65.3257C3.4356 65.6885 3.23058 66.1028 3.10045 66.5588C3.07576 66.6454 2.99789 66.7069 2.90847 66.7062L2.00965 66.6995C1.47074 66.6954 1.02906 67.1316 1.02312 67.6736C1.01718 68.2157 1.44924 68.6583 1.98815 68.6624L2.2032 68.664C2.72453 68.6679 3.16334 69.0295 3.409 69.4912C3.44375 69.5565 3.48033 69.6208 3.5187 69.684C3.73578 70.0418 3.77034 70.5021 3.52682 70.8439C3.23989 71.2466 3.33107 71.8059 3.73048 72.093L3.81371 72.1529C4.24375 72.462 4.84281 72.3611 5.15174 71.9275L5.44337 71.5182C5.51792 71.4135 5.65153 71.3714 5.77434 71.4065C6.22553 71.5352 6.68101 71.5784 7.12364 71.5458C7.54657 71.5146 7.97806 71.6777 8.19665 72.0423C8.46926 72.4969 9.05749 72.6419 9.5105 72.3661L9.60217 72.3103C10.0221 72.0546 10.1577 71.5057 9.90498 71.0843C9.69002 70.7258 9.76236 70.27 10.0079 69.9302C10.2696 69.5681 10.4739 69.1547 10.6037 68.6998C10.6321 68.6003 10.7214 68.5293 10.8242 68.53L11.7251 68.5368C12.264 68.5408 12.7057 68.1046 12.7116 67.5626C12.7176 67.0206 12.2855 66.5779 11.7466 66.5739L11.4929 66.572C10.972 66.5681 10.533 66.2083 10.285 65.7484C10.2511 65.6856 10.2155 65.6237 10.1783 65.5628C9.95434 65.1966 9.91664 64.7241 10.1664 64.3735C10.4587 63.9632 10.3658 63.3935 9.95896 63.101L9.90312 63.0609C9.46542 62.7462 8.85568 62.8489 8.54124 63.2902L8.20838 63.7574Z" fill="white"/>
<path fill-rule="evenodd" clip-rule="evenodd" d="M24.1138 5.6216C23.0359 5.23638 21.8497 5.79796 21.4645 6.87592L20.9589 8.29064C20.7876 8.77014 20.3304 9.06273 19.8477 9.06273C18.7109 9.06273 17.6204 9.25626 16.6067 9.61176C15.3928 10.0374 13.9213 9.92591 12.9079 8.98306C12.0652 8.19905 10.7359 8.23828 9.96038 9.07182L9.83953 9.20171C9.12653 9.96806 9.16978 11.1673 9.93613 11.8803C10.9489 12.8226 11.0891 14.2897 10.6505 15.4881C10.2666 16.5369 10.0569 17.6702 10.0569 18.8536C10.0569 19.3027 9.76454 19.7192 9.30956 19.8445L7.02317 20.4742C5.91953 20.7781 5.27124 21.9192 5.57516 23.0228C5.87909 24.1264 7.02015 24.7747 8.1238 24.4708L8.64415 24.3275C8.94946 24.2434 9.19817 24.1445 9.42926 24.0505C9.44515 24.0441 9.46119 24.0375 9.47735 24.0309C9.68206 23.9474 9.90769 23.8553 10.1285 23.8085C10.3914 23.7527 10.6681 23.7544 10.9643 23.8737C11.2432 23.986 11.5023 24.1879 11.7682 24.4604C11.961 24.658 11.9571 24.9746 11.7595 25.1674C11.5618 25.3603 11.2453 25.3564 11.0524 25.1588C10.8324 24.9333 10.687 24.8401 10.5908 24.8013C10.5117 24.7695 10.4423 24.7642 10.336 24.7867C10.2053 24.8144 10.0572 24.8747 9.80761 24.9762L9.80605 24.9768C9.56946 25.0731 9.27509 25.191 8.90966 25.2916L8.3893 25.4349C6.75319 25.8855 5.06162 24.9244 4.61105 23.2883C4.16049 21.6522 5.12157 19.9606 6.75767 19.5101L9.04406 18.8804L9.04411 18.8804C9.04498 18.8802 9.04708 18.8796 9.05023 18.8753C9.05384 18.8705 9.05688 18.863 9.05688 18.8536C9.05688 17.5512 9.28782 16.3017 9.71142 15.1444C10.0505 14.2181 9.89863 13.2113 9.25497 12.6124C8.08427 11.5232 8.0182 9.69124 9.1074 8.52054L9.47347 8.86113L9.1074 8.52054L9.22825 8.39065C10.3884 7.14367 12.3512 7.09924 13.589 8.25093C14.2627 8.87765 15.3152 9.00494 16.2758 8.6681C17.3944 8.27583 18.5967 8.06273 19.8477 8.06273C19.9347 8.06273 19.9969 8.01101 20.0173 7.95412L20.5228 6.5394C21.0939 4.94136 22.8523 4.10885 24.4503 4.67993L24.6204 4.74069C26.1245 5.27821 26.9081 6.93329 26.3706 8.43743C26.2519 8.76946 26.342 9.29733 26.6486 9.9189C26.9432 10.5163 27.3789 11.0788 27.7477 11.4161C27.9515 11.6024 27.9656 11.9187 27.7793 12.1225C27.5929 12.3263 27.2766 12.3404 27.0729 12.154C26.6086 11.7295 26.0991 11.0655 25.7517 10.3612C25.4163 9.68106 25.1677 8.8319 25.4289 8.10091C25.7806 7.11685 25.2679 6.03403 24.2839 5.68236L24.1138 5.6216Z" fill="white"/>
<path fill-rule="evenodd" clip-rule="evenodd" d="M61.1636 74.7202C62.2941 74.9003 63.3565 74.1298 63.5366 72.9993L63.7729 71.5157C63.853 71.0128 64.2484 70.641 64.7228 70.5521C65.8402 70.3427 66.8764 69.9516 67.8073 69.4154C68.922 68.7734 70.3888 68.612 71.5586 69.352C72.5313 69.9673 73.8306 69.6839 74.4393 68.7218L74.5341 68.5718C75.0938 67.6873 74.8303 66.5165 73.9458 65.9569C72.7767 65.2173 72.3686 63.8011 72.579 62.5424C72.7631 61.4409 72.7605 60.2883 72.5425 59.1252C72.4598 58.6837 72.6704 58.2205 73.0945 58.0135L75.2258 56.9735C76.2545 56.4714 76.6815 55.2305 76.1795 54.2017C75.6775 53.173 74.4365 52.746 73.4077 53.248L72.9227 53.4847C72.6381 53.6236 72.4119 53.7666 72.202 53.9016C72.1876 53.9109 72.1731 53.9202 72.1584 53.9297C71.9726 54.0495 71.7678 54.1816 71.5593 54.2683C71.3112 54.3716 71.039 54.4208 70.7259 54.3582C70.431 54.2992 70.1391 54.1484 69.8277 53.9296C69.6017 53.7708 69.5472 53.459 69.706 53.233C69.8647 53.0071 70.1766 52.9526 70.4025 53.1113C70.6603 53.2924 70.8203 53.3573 70.9221 53.3776C71.0057 53.3943 71.0749 53.3868 71.1752 53.345C71.2985 53.2937 71.433 53.2072 71.6596 53.0615L71.6611 53.0605C71.8759 52.9224 72.1435 52.7522 72.4841 52.586L72.9692 52.3493C74.4943 51.605 76.334 52.2381 77.0782 53.7632C77.8224 55.2883 77.1894 57.1279 75.6643 57.8722L73.533 58.9122L73.533 58.9123C73.5322 58.9127 73.5302 58.9136 73.5279 58.9184C73.5253 58.9238 73.5237 58.9318 73.5254 58.941C73.7653 60.2211 73.7685 61.4918 73.5653 62.7073C73.4027 63.6802 73.7374 64.6418 74.4804 65.1118C75.8317 65.9667 76.2341 67.7552 75.3792 69.1065L74.9567 68.8392L75.3792 69.1065L75.2844 69.2564C74.3738 70.6958 72.4528 71.101 71.024 70.1971C70.2464 69.7052 69.1884 69.7739 68.3064 70.282C67.2791 70.8736 66.1367 71.3045 64.9071 71.535C64.8216 71.551 64.7699 71.6133 64.7604 71.673L64.5241 73.1566C64.2572 74.8325 62.6822 75.9747 61.0063 75.7078L60.828 75.6794C59.2506 75.4281 58.1756 73.9457 58.4268 72.3683C58.4823 72.0201 58.2964 71.5179 57.8806 70.9634C57.481 70.4305 56.9492 69.9579 56.5245 69.6943C56.2899 69.5487 56.2178 69.2404 56.3634 69.0058C56.509 68.7712 56.8173 68.699 57.0519 68.8447C57.5864 69.1764 58.2095 69.7351 58.6807 70.3634C59.1357 70.9702 59.5364 71.759 59.4143 72.5256C59.25 73.5576 59.9533 74.5274 60.9853 74.6918L61.1636 74.7202Z" fill="white"/>
</svg>
