<svg width="75" height="69" viewBox="0 0 75 69" fill="none" xmlns="http://www.w3.org/2000/svg">
<path fill-rule="evenodd" clip-rule="evenodd" d="M41.0887 3.91304V3.91309L39.4766 3.91309V6.52173H40.0447C41.7015 6.52173 43.0447 7.86487 43.0447 9.52173V15.913C43.0447 17.5699 41.7015 18.913 40.0447 18.913H37.5664C35.9096 18.913 34.5664 17.5699 34.5664 15.913V9.52173C34.5664 7.86488 35.9096 6.52173 37.5664 6.52173H38.4766V3.91309L32.3047 3.91309V33.9131H66.515V33.9253C66.6231 33.9172 66.7322 33.9131 66.8422 33.9131C66.9521 33.9131 67.0612 33.9172 67.1694 33.9253C69.7182 34.116 71.7335 36.5196 71.7335 39.4565C71.7335 42.3935 69.7182 44.797 67.1694 44.9878C67.0612 44.9959 66.9521 45 66.8422 45C66.7322 45 66.6231 44.9959 66.515 44.9878L66.5141 45H22.8193C23.0138 44.6568 23.1927 44.3251 23.3573 44C24.7882 41.1732 25.1303 38.854 25.1518 33.9131H31.3047L31.3047 3.91309H21.5234V3.91304V2.91309V0H22.5234V2.91309L41.0859 2.91309V0H42.0859V3.91304H41.0887ZM40.0447 7.52173H37.5664C36.4618 7.52173 35.5664 8.41716 35.5664 9.52173V15.913C35.5664 17.0176 36.4618 17.913 37.5664 17.913H40.0447C41.1492 17.913 42.0447 17.0176 42.0447 15.913V9.52173C42.0447 8.41716 41.1492 7.52173 40.0447 7.52173ZM65.515 44V43.9102L66.5896 43.9906C66.673 43.9968 66.7572 44 66.8422 44C68.8773 44 70.7335 42.0871 70.7335 39.4565C70.7335 36.8259 68.8773 34.9131 66.8422 34.9131C66.7572 34.9131 66.673 34.9162 66.5896 34.9225L65.515 35.0029V34.9131H26.1425C26.1083 37.1821 25.9833 38.9265 25.6631 40.4767C25.4026 41.7376 25.0174 42.8497 24.4711 44H65.515ZM15.3203 44.6522C18.8705 44.6522 21.8203 41.6366 21.8203 37.8261C21.8203 34.0156 18.8705 31 15.3203 31C11.7701 31 8.82031 34.0156 8.82031 37.8261C8.82031 41.6366 11.7701 44.6522 15.3203 44.6522ZM15.3203 45.6522C19.4624 45.6522 22.8203 42.1483 22.8203 37.8261C22.8203 33.5039 19.4624 30 15.3203 30C11.1782 30 7.82031 33.5039 7.82031 37.8261C7.82031 42.1483 11.1782 45.6522 15.3203 45.6522ZM74 49.2609H1V56.3913H74V49.2609ZM0 48.913V57.3913H75V48.2609H5.21739V27.3912H0V48.2609V48.913ZM4.56641 57.3914L4.56641 68.4783H5.56641L5.56641 57.3914H4.56641ZM69.1289 68.4783V57.3914H70.1289V68.4783H69.1289ZM1 28.3912H4.21739V47.913H1V28.3912Z" fill="white"/>
</svg>
