<svg width="69" height="64" viewBox="0 0 69 64" fill="none" xmlns="http://www.w3.org/2000/svg">
<path fill-rule="evenodd" clip-rule="evenodd" d="M8.31836 13V6.01553L7.49683 5.86653C7.07056 5.78923 6.63086 5.70354 6.17523 5.6093C5.83154 5.53822 5.54749 5.27615 5.44592 4.92076L4.32574 1H21.2292L20.398 4.87903C20.3157 5.26335 20.0203 5.5549 19.6547 5.63104C19.2307 5.71935 18.8201 5.80023 18.4203 5.87372L17.6011 6.02431V29.5H8.31836V24H16V23H8.31836V19H16V18H8.31836V14H16V13H8.31836ZM7.31836 29.5H0V31H3V62.5H0V64H69V62.5H66.5V31H69V29.5H62.0581V6.85724C62.1896 6.83305 62.3222 6.80812 62.4559 6.78241C62.5527 6.76381 62.65 6.74481 62.748 6.72542C62.9349 6.6884 63.124 6.64993 63.3156 6.61003C64.0783 6.4512 64.6696 5.85033 64.8328 5.08856L65.9232 0H46.457L47.9415 5.19548C48.1426 5.89961 48.7126 6.44025 49.4297 6.58858C49.8926 6.68431 50.3403 6.77158 50.7754 6.85048V29.5H40.3315V6.85724C40.7399 6.78218 41.1583 6.69975 41.5891 6.61003C42.3517 6.4512 42.9431 5.85033 43.1063 5.08856L44.1967 0H24.7305L26.2149 5.19548C26.4161 5.89961 26.986 6.44025 27.7032 6.58858C28.166 6.68431 28.6138 6.77158 29.0488 6.85048V29.5H18.6011V6.85724C19.0094 6.78218 19.4278 6.69975 19.8586 6.61003C20.6213 6.4512 21.2126 5.85033 21.3758 5.08856L22.4662 0H3L4.48444 5.19548C4.68561 5.89961 5.25555 6.44025 5.97272 6.58858C6.43555 6.68431 6.8833 6.77158 7.31836 6.85048V29.5ZM65 31V62.5H4.5V31H7.31836V54.1154C7.31836 57.231 9.84412 59.7568 12.9597 59.7568C16.0754 59.7568 18.6011 57.231 18.6011 54.1154V31H29.0488V54.1154C29.0488 57.231 31.5746 59.7568 34.6902 59.7568C37.8058 59.7568 40.3315 57.231 40.3315 54.1154V31H50.7754V54.1154C50.7754 57.231 53.3011 59.7568 56.4167 59.7568C59.5324 59.7568 62.0581 57.231 62.0581 54.1154V31H65ZM30.0488 31V54.1154C30.0488 56.6787 32.1268 58.7568 34.6902 58.7568C37.2535 58.7568 39.3315 56.6787 39.3315 54.1154V31H30.0488ZM39.3315 29.5H30.0488V6.01553L29.2273 5.86653C28.801 5.78923 28.3613 5.70354 27.9057 5.6093C27.562 5.53822 27.278 5.27615 27.1764 4.92076L26.0562 1H42.9597L42.1285 4.87903C42.0461 5.26335 41.7508 5.5549 41.3851 5.63104C40.9612 5.71935 40.5505 5.80023 40.1508 5.87372L39.3315 6.02431V29.5ZM51.7754 31V54.1154C51.7754 56.6787 53.8534 58.7568 56.4167 58.7568C58.9801 58.7568 61.0581 56.6787 61.0581 54.1154V31H51.7754ZM61.0581 29.5H51.7754V24H59V23H51.7754V19H59V18H51.7754V14H59V13H51.7754V6.01553L50.9539 5.86653C50.5276 5.78923 50.0879 5.70354 49.6323 5.6093C49.2886 5.53822 49.0045 5.27615 48.903 4.92076L47.7828 1H64.6863L63.855 4.87903C63.7727 5.26335 63.4774 5.5549 63.1117 5.63104C62.6877 5.71935 62.2771 5.80023 61.8773 5.87372L61.0581 6.02431V29.5ZM17.6011 31V54.1154C17.6011 56.6787 15.5231 58.7568 12.9597 58.7568C10.3964 58.7568 8.31836 56.6787 8.31836 54.1154V31H17.6011ZM36 21C36.5523 21 37 20.5523 37 20C37 19.4477 36.5523 19 36 19C35.4477 19 35 19.4477 35 20C35 20.5523 35.4477 21 36 21ZM33 25C33 25.5523 32.5523 26 32 26C31.4477 26 31 25.5523 31 25C31 24.4477 31.4477 24 32 24C32.5523 24 33 24.4477 33 25ZM32 15C32.5523 15 33 14.5523 33 14C33 13.4477 32.5523 13 32 13C31.4477 13 31 13.4477 31 14C31 14.5523 31.4477 15 32 15Z" fill="white"/>
</svg>
