<svg width="40" height="40" viewBox="0 0 40 40" fill="none" xmlns="http://www.w3.org/2000/svg">
<circle cx="20" cy="20" r="20" fill="#005E72"/>
<path fill-rule="evenodd" clip-rule="evenodd" d="M31.884 12.2297H7.67762C7.27855 12.2297 6.95504 12.5532 6.95504 12.9523V27.4039C6.95504 27.8029 7.27855 28.1265 7.67762 28.1265H31.884C32.2831 28.1265 32.6066 27.8029 32.6066 27.4039V12.9523C32.6066 12.5532 32.2831 12.2297 31.884 12.2297ZM7.67762 11.8684C7.07901 11.8684 6.59375 12.3537 6.59375 12.9523V27.4039C6.59375 28.0025 7.07902 28.4877 7.67762 28.4877H31.884C32.4826 28.4877 32.9679 28.0025 32.9679 27.4039V12.9523C32.9679 12.3537 32.4826 11.8684 31.884 11.8684H7.67762Z" fill="#EAF8FE"/>
<path d="M8.76123 14.5781H15.4451V20.5394H8.76123V14.5781Z" fill="#F0C03E"/>
<path d="M8.76123 21.9844H12.0128V23.0682H8.76123V21.9844Z" fill="#F0C03E"/>
<path d="M16.5293 14.5781H23.0325V20.5394H16.5293V14.5781Z" fill="#EF7959"/>
<path d="M16.5293 21.9844H19.7809V23.0682H16.5293V21.9844Z" fill="#EF7959"/>
<path d="M24.1167 14.5781H30.8006V20.5394H24.1167V14.5781Z" fill="#F0C03E"/>
<path d="M24.1167 21.9844H27.3683V23.0682H24.1167V21.9844Z" fill="#F0C03E"/>
<path fill-rule="evenodd" clip-rule="evenodd" d="M30.7999 21.4426H8.76123V21.0813H30.7999V21.4426Z" fill="#E6F7FF"/>
<path fill-rule="evenodd" clip-rule="evenodd" d="M15.4451 23.9714H8.76123V23.6101H15.4451V23.9714Z" fill="#E6F7FF"/>
<path fill-rule="evenodd" clip-rule="evenodd" d="M23.2132 23.9714H16.5293V23.6101H23.2132V23.9714Z" fill="#E6F7FF"/>
<path fill-rule="evenodd" clip-rule="evenodd" d="M30.8006 23.9714H24.1167V23.6101H30.8006V23.9714Z" fill="#E6F7FF"/>
<path fill-rule="evenodd" clip-rule="evenodd" d="M15.4451 25.0556H8.76123V24.6943H15.4451V25.0556Z" fill="#E6F7FF"/>
<path fill-rule="evenodd" clip-rule="evenodd" d="M23.2132 25.0556H16.5293V24.6943H23.2132V25.0556Z" fill="#E6F7FF"/>
<path fill-rule="evenodd" clip-rule="evenodd" d="M30.8006 25.0556H24.1167V24.6943H30.8006V25.0556Z" fill="#E6F7FF"/>
<path fill-rule="evenodd" clip-rule="evenodd" d="M15.4451 26.1391H8.76123V25.7778H15.4451V26.1391Z" fill="#E6F7FF"/>
<path fill-rule="evenodd" clip-rule="evenodd" d="M23.2132 26.1391H16.5293V25.7778H23.2132V26.1391Z" fill="#E6F7FF"/>
<path fill-rule="evenodd" clip-rule="evenodd" d="M30.8006 26.1391H24.1167V25.7778H30.8006V26.1391Z" fill="#E6F7FF"/>
<path fill-rule="evenodd" clip-rule="evenodd" d="M16.7802 30.106L18.5648 28.1841L18.8295 28.4299L17.0449 30.3518C16.9376 30.4674 17.0196 30.6554 17.1773 30.6554H22.5654C22.7231 30.6554 22.8051 30.4674 22.6978 30.3518L20.9132 28.4299L21.1779 28.1841L22.9625 30.106C23.2845 30.4527 23.0386 31.0167 22.5654 31.0167H17.1773C16.7041 31.0167 16.4582 30.4527 16.7802 30.106Z" fill="#E6F7FF"/>
</svg>
