<svg xmlns="http://www.w3.org/2000/svg" width="51.566" height="64.929" viewBox="0 0 51.566 64.929">
    <defs>
        <style>
            .cls-1{fill:#275d6f}.cls-2{fill:none;stroke:#275d6f}
        </style>
    </defs>
    <g id="Group_65" transform="translate(20388 -15779.663)">
        <g id="Group_62" transform="translate(-19751.246 15964.618)">
            <g id="Group_3" transform="translate(-636.754 -184.455)">
                <path id="Path_2" d="M-623.59-121.38h-1.261v23.48a3.091 3.091 0 0 1-2.3 3.119A3.082 3.082 0 0 1-631-97.619c-.009-.179-.006-.358-.006-.537l-.016-39.758v-.523h-1.178v.453q0 6.924-.006 13.849a3.507 3.507 0 0 1-.134 1.056 2.268 2.268 0 0 1-2.442 1.516 2.237 2.237 0 0 1-1.963-2.206c-.008-5.535-.029-11.07.009-16.6a6.668 6.668 0 0 1 5.567-6.289 8.442 8.442 0 0 1 1.247-.1q5.7-.01 11.391 0a6.7 6.7 0 0 1 6.674 5.291 7.157 7.157 0 0 1 .157 1.525q.017 7.962.006 15.925a2.283 2.283 0 0 1-1.8 2.418 2.289 2.289 0 0 1-2.755-2.141c-.005-.131 0-.262 0-.393v-14.302h-1.182v40.336a3.458 3.458 0 0 1-.624 2.19 3.1 3.1 0 0 1-3.322 1.107 3.045 3.045 0 0 1-2.2-2.75c-.013-.214-.014-.429-.014-.644v-22.653z" class="cls-1" transform="translate(636.754 158.57)"/>
                <path id="Path_3" d="M-608.2-184.455a5.232 5.232 0 0 1 5.223 5.245 5.254 5.254 0 0 1-5.259 5.219 5.231 5.231 0 0 1-5.213-5.254 5.212 5.212 0 0 1 5.249-5.21z" class="cls-1" transform="translate(620.747 184.455)"/>
            </g>
        </g>
        <g id="Group_63" transform="translate(-19738.246 15964.618)">
            <g id="Group_3-2" transform="translate(-636.754 -184.455)">
                <path id="Path_2-2" d="M-623.59-121.38h-1.261v23.48a3.091 3.091 0 0 1-2.3 3.119A3.082 3.082 0 0 1-631-97.619c-.009-.179-.006-.358-.006-.537l-.016-39.758v-.523h-1.178v.453q0 6.924-.006 13.849a3.507 3.507 0 0 1-.134 1.056 2.268 2.268 0 0 1-2.442 1.516 2.237 2.237 0 0 1-1.963-2.206c-.008-5.535-.029-11.07.009-16.6a6.668 6.668 0 0 1 5.567-6.289 8.442 8.442 0 0 1 1.247-.1q5.7-.01 11.391 0a6.7 6.7 0 0 1 6.674 5.291 7.157 7.157 0 0 1 .157 1.525q.017 7.962.006 15.925a2.283 2.283 0 0 1-1.8 2.418 2.289 2.289 0 0 1-2.755-2.141c-.005-.131 0-.262 0-.393v-14.302h-1.182v40.336a3.458 3.458 0 0 1-.624 2.19 3.1 3.1 0 0 1-3.322 1.107 3.045 3.045 0 0 1-2.2-2.75c-.013-.214-.014-.429-.014-.644v-22.653z" class="cls-2" transform="translate(636.754 158.57)"/>
                <path id="Path_3-2" d="M-608.2-184.455a5.232 5.232 0 0 1 5.223 5.245 5.254 5.254 0 0 1-5.259 5.219 5.231 5.231 0 0 1-5.213-5.254 5.212 5.212 0 0 1 5.249-5.21z" class="cls-2" transform="translate(620.747 184.455)"/>
            </g>
        </g>
        <g id="Group_64" transform="translate(-19725.246 15964.618)">
            <g id="Group_3-3" transform="translate(-636.754 -184.455)">
                <path id="Path_2-3" d="M-623.59-121.38h-1.261v23.48a3.091 3.091 0 0 1-2.3 3.119A3.082 3.082 0 0 1-631-97.619c-.009-.179-.006-.358-.006-.537l-.016-39.758v-.523h-1.178v.453q0 6.924-.006 13.849a3.507 3.507 0 0 1-.134 1.056 2.268 2.268 0 0 1-2.442 1.516 2.237 2.237 0 0 1-1.963-2.206c-.008-5.535-.029-11.07.009-16.6a6.668 6.668 0 0 1 5.567-6.289 8.442 8.442 0 0 1 1.247-.1q5.7-.01 11.391 0a6.7 6.7 0 0 1 6.674 5.291 7.157 7.157 0 0 1 .157 1.525q.017 7.962.006 15.925a2.283 2.283 0 0 1-1.8 2.418 2.289 2.289 0 0 1-2.755-2.141c-.005-.131 0-.262 0-.393v-14.302h-1.182v40.336a3.458 3.458 0 0 1-.624 2.19 3.1 3.1 0 0 1-3.322 1.107 3.045 3.045 0 0 1-2.2-2.75c-.013-.214-.014-.429-.014-.644v-22.653z" class="cls-2" transform="translate(636.754 158.57)"/>
                <path id="Path_3-3" d="M-608.2-184.455a5.232 5.232 0 0 1 5.223 5.245 5.254 5.254 0 0 1-5.259 5.219 5.231 5.231 0 0 1-5.213-5.254 5.212 5.212 0 0 1 5.249-5.21z" class="cls-2" transform="translate(620.747 184.455)"/>
            </g>
        </g>
    </g>
</svg>
