<svg xmlns="http://www.w3.org/2000/svg" width="69.548" height="67.98" viewBox="0 0 69.548 67.98">
    <g>
        <path fill="#275d6f" d="M-592.545-406.872v-.871a2.18 2.18 0 0 0-2.179-2.179h-4.876v-37.694a2.18 2.18 0 0 0-2.179-2.179h-6.353a2.18 2.18 0 0 0-2.179 2.179v37.694h-3.495v-40.57a2.18 2.18 0 0 0-2.179-2.179h-6.353a2.179 2.179 0 0 0-2.179 2.179v40.57h-3.434v-29.319a2.18 2.18 0 0 0-2.179-2.179h-6.353a2.179 2.179 0 0 0-2.179 2.179v29.319h-3.347V-427.7a2.18 2.18 0 0 0-2.179-2.18h-6.354a2.18 2.18 0 0 0-2.179 2.18v17.779h-4.14v-60.572a2.18 2.18 0 0 0-2.179-2.179h-.871a2.18 2.18 0 0 0-2.179 2.179v63.622a2.179 2.179 0 0 0 2.179 2.179h65.191a2.18 2.18 0 0 0 2.175-2.18z" transform="translate(662.093 472.673)"/>
    </g>
</svg>
