<svg xmlns="http://www.w3.org/2000/svg" width="62.346" height="62.346" viewBox="0 0 62.346 62.346">
    <path fill="#275d6f" d="M62.5 41.022h-.7v-1.385a4.169 4.169 0 0 0-4.156-4.156H45.178V9.156a1.39 1.39 0 0 1 1.385-1.385h4.849A1.39 1.39 0 0 1 52.8 9.156a1.385 1.385 0 0 0 2.771 0A4.169 4.169 0 0 0 51.413 5h-4.849a4.169 4.169 0 0 0-4.156 4.156v.208a4.467 4.467 0 0 0-1.385-.208h-4.85a4.169 4.169 0 0 0-4.156 4.156v2.84a4.168 4.168 0 0 0-3.464 4.087V24.4a4.169 4.169 0 0 0 4.156 4.156h1.385a4.169 4.169 0 0 0 4.157-4.156v-4.16a4.168 4.168 0 0 0-3.464-4.087v-2.84a1.39 1.39 0 0 1 1.385-1.385h4.849a1.39 1.39 0 0 1 1.385 1.385V35.48H24.4v-2.771a4.169 4.169 0 0 0-4.156-4.156H14.7v-2.078a4.849 4.849 0 1 0-9.7 0v20.089a4.169 4.169 0 0 0 4.156 4.156H14.7v7.135a4.849 4.849 0 1 0 2.771 0v-.208h37.406v.208a4.849 4.849 0 1 0 2.771 0V50.72H62.5a4.849 4.849 0 1 0 0-9.7zM35.48 20.24v4.16a1.39 1.39 0 0 1-1.385 1.385h-1.386a1.39 1.39 0 0 1-1.385-1.385v-4.16a1.39 1.39 0 0 1 1.385-1.385h1.385a1.39 1.39 0 0 1 1.386 1.385zM14.7 31.324h5.54a1.39 1.39 0 0 1 1.385 1.385v2.771H14.7zm0 6.927h42.948a1.39 1.39 0 0 1 1.385 1.385v1.385H14.7zM18.162 62.5a2.078 2.078 0 1 1-4.156 0 2.078 2.078 0 1 1 4.156 0zm-.693-7.62v-4.16h37.408v4.156zM58.34 62.5a2.078 2.078 0 1 1-4.156 0 2.078 2.078 0 1 1 4.156 0zm4.16-14.551H9.156a1.39 1.39 0 0 1-1.385-1.385V26.475a2.078 2.078 0 1 1 4.156 0v15.932a1.39 1.39 0 0 0 1.385 1.385H62.5a2.041 2.041 0 0 1 2.078 2.078 2.084 2.084 0 0 1-2.078 2.079z" transform="translate(-5 -5)"/>
</svg>
