<svg xmlns="http://www.w3.org/2000/svg" width="64.764" height="52.86" viewBox="0 0 64.764 52.86">
    <defs>
        <style>
            .cls-1{fill:#275d6f;stroke:#265b6d}
        </style>
    </defs>
    <g id="Measures_-_Discuss_Icon" transform="translate(.531 .499)">
        <path id="Path_17" d="M873.589 326.684a7.918 7.918 0 0 1-2.589 6.129 28.009 28.009 0 0 1-5.524 3.914 83.964 83.964 0 0 1-8.164 3.41 1.71 1.71 0 0 1-1.4-.163c-.206-.147-.138-.862-.008-1.262a2.7 2.7 0 0 0-1.167-3.539 15.035 15.035 0 0 0-3.776-1.743c-5.761-1.6-7.513-7-3.676-11.662a14 14 0 0 1 9.125-4.81 17.5 17.5 0 0 1 12.446 2.361c2.77 1.771 4.57 4.197 4.733 7.365zM857.932 338.3c1.594-.677 2.871-1.325 4.216-1.769a19.354 19.354 0 0 0 7.066-4.373c3.563-3.3 3.435-7.5-.229-10.537a10.02 10.02 0 0 0-1.774-1.217 16.243 16.243 0 0 0-14.987-.289 8.88 8.88 0 0 0-4.625 4.5c-1.439 3.3-.031 6.208 3.423 7.173a20.764 20.764 0 0 1 3.047 1.062c2.163.981 3.951 2.319 3.863 5.45z" class="cls-1" transform="translate(-830.466 -316.701)"/>
        <path id="Path_18" d="M845.534 356.33a9.105 9.105 0 0 1-9.139-9.012c0-5.241 3.779-8.882 8.995-9.123 4.546-.21 9.16 4.16 9.113 8.45-.069 6.355-4.303 9.494-8.969 9.685zm7.188-8.966a7.293 7.293 0 1 0-7.021 7.169c3.929-.049 7.499-4.041 7.021-7.169z" class="cls-1" transform="translate(-830.466 -316.701)"/>
        <path id="Path_19" d="M860.363 368.022c-.353.037-.623.087-.893.087a6.194 6.194 0 0 1-.769-.1c-.2-3.767-2.238-6.226-5.509-7.8-2.253-1.084-2.815-.985-4.634.714-.7.652-1.466 1.229-2.174 1.871a1.258 1.258 0 0 1-1.9-.034c-1.224-1.021-2.462-2.032-3.767-2.941a1.909 1.909 0 0 0-1.507-.2c-3.721 1.34-6.505 3.532-6.985 7.826-.039.348-.89.606-1.364.9l-.4-.333a20.207 20.207 0 0 1 .326-2.406c.981-3.836 3.731-5.961 7.175-7.493a3.612 3.612 0 0 1 4.491.708c.647.645 1.39 1.193 2.079 1.8a1.072 1.072 0 0 0 1.661.043c.786-.726 1.666-1.35 2.487-2.04a3.18 3.18 0 0 1 3.6-.737c2.66 1.113 5.1 2.459 6.667 4.988a8.681 8.681 0 0 1 1.416 5.147z" class="cls-1" transform="translate(-830.466 -316.701)"/>
        <path id="Path_20" d="M882.647 344.216c4.13.116 7.319 3.2 7.232 7a6.907 6.907 0 0 1-7.324 6.87 6.7 6.7 0 0 1-6.636-6.937c.129-3.883 2.631-6.917 6.728-6.933zm-5.019 6.7c.1 3.261 2.284 5.52 5.413 5.442a5.211 5.211 0 0 0 5.044-5.57 5.373 5.373 0 0 0-5.407-5c-2.588.112-5.168 2.732-5.05 5.132z" class="cls-1" transform="translate(-830.466 -316.701)"/>
        <path id="Path_21" d="M871.589 346.6c.715-3.179 3.2-4.07 5.79-4.819a3.331 3.331 0 0 0 2.113-5c-1.156-2.238-3.169-3.275-5.5-4.08l.352-1.482c4.955.293 8.394 5.38 6.694 9.759a4.353 4.353 0 0 1-2.929 2.44c-.939.334-1.905.591-2.843.928a2.224 2.224 0 0 0-1.637 3.057c.27 1.065-.185 1.562-1.222 1.286a26.384 26.384 0 0 1-10.123-5.237 14.175 14.175 0 0 1-1.674-2.035l1.545-.864c2.212 3.524 5.878 4.562 9.434 6.047z" class="cls-1" transform="translate(-830.466 -316.701)"/>
        <path id="Path_22" d="M894.159 368.5H892.7c-1.577-5.215-5.4-7.528-11.391-6.692a18.089 18.089 0 0 0-5.176 1.681 4.8 4.8 0 0 0-2.74 3.858c-.142 1.3-.765 1.379-1.879 1.083a6.515 6.515 0 0 1 2.376-5.446c5-3.991 10.49-3.883 16.06-1.41a7.163 7.163 0 0 1 4.209 6.926z" class="cls-1" transform="translate(-830.466 -316.701)"/>
        <path id="Path_26" d="M867.778 327.972v1.628h-16.017v-1.631z" class="cls-1" transform="translate(-830.466 -316.701)"/>
        <path id="Path_27" d="M867.791 323.163v1.637h-16.045v-1.637z" class="cls-1" transform="translate(-830.466 -316.701)"/>
    </g>
</svg>
