<svg xmlns="http://www.w3.org/2000/svg" width="50.44" height="46.754" viewBox="0 0 50.44 46.754">
    <defs>
        <style>
            .cls-1{fill:#265b6d;stroke:#265b6d}
        </style>
    </defs>
    <g id="Measures_-_High_Risk_Icon" transform="translate(.5 .309)">
        <path id="Path_60" d="M1007.52 710.49c0-1.068.03-2.136-.009-3.2-.033-.9.3-1.333 1.251-1.309 1.478.036 2.96.039 4.438 0 .97-.028 1.361.345 1.349 1.337-.037 3.2-.047 6.4.016 9.6a2.705 2.705 0 0 0 .674 1.664c1.869 1.964 3.807 3.864 5.748 5.757.748.731.861 1.359.021 2.105-1.013.9-1.936 1.9-2.97 2.774a4.957 4.957 0 0 1-1.456.577l-.277-.275c-.033.532-.092 1.064-.095 1.6-.011 2.19-.022 4.381 0 6.571.022 2.236.1 4.471.118 6.706.018 2.586-1.323 3.983-3.851 3.985q-13.957.008-27.916-.021a3.364 3.364 0 0 1-3.561-3.538c-.031-3.679-.009-7.358-.014-11.038 0-.644.063-1.277.9-1.262s.854.683.854 1.3c0 3.4-.006 6.8 0 10.2.007 2.076.557 2.614 2.645 2.617 3.191.005 6.381 0 9.729 0 0-2.339.022-4.562-.031-6.784-.006-.236-.416-.52-.7-.681a3.5 3.5 0 0 1-1.906-3.232v-4.079c0-2.4.777-3.466 3.1-4.211.6-.193 1.22-.337 1.861-.511-2.109-1.585-2.726-2.986-2.112-4.732a3.508 3.508 0 0 1 3.329-2.3 3.432 3.432 0 0 1 3.354 2.416c.559 1.782-.04 3.088-2.131 4.6.819.242 1.619.463 2.41.713a3.248 3.248 0 0 1 2.4 3.226c.067 1.717.066 3.44 0 5.157a3.22 3.22 0 0 1-1.841 3c-.271.132-.616.472-.624.725-.054 1.878-.035 3.758-.03 5.638 0 .308.048.616.087 1.087h6.969c1.036 0 2.072-.015 3.108-.047 1.739-.054 2.189-.472 2.211-2.247.039-3.07 0-6.141.023-9.211.017-2.2.118-4.39.1-6.584a2.321 2.321 0 0 0-.511-1.5q-7.485-7.52-15.046-14.964a7.845 7.845 0 0 0-.685-.508c-.9.98-1.782 1.952-2.677 2.912-.476.51-1.047 1.1-1.7.4s-.005-1.222.48-1.707q1.443-1.441 2.883-2.885c1.145-1.144 1.286-1.158 2.406-.031 4.308 4.339 8.6 8.7 12.915 13.026 1.434 1.438 2.937 2.808 4.486 4.283l2.128-2.317c-1.586-1.619-3.14-3.384-4.888-4.929a4.114 4.114 0 0 1-1.7-3.55c.13-2.951.038-5.912.038-8.983h-3.592c0 1.566.04 3.116-.025 4.662a4.453 4.453 0 0 1-.514 1.331 4.136 4.136 0 0 1-1.314-.575c-2.878-2.83-5.716-5.7-8.639-8.634-.315.269-.592.475-.834.715q-2.639 2.622-5.26 5.259c-.476.479-1 .992-1.627.4-.705-.671-.1-1.208.4-1.7 2.008-2.007 4.007-4.023 6.019-6.025 1.121-1.116 1.34-1.112 2.434-.02 2.15 2.148 4.3 4.291 6.436 6.457a6.464 6.464 0 0 1 .723 1.117zm-7.075 36.109c0-2.56.018-5-.01-7.433-.009-.779.137-1.316 1.045-1.424a1.751 1.751 0 0 0 1.593-1.924 30.257 30.257 0 0 0-.044-4.312 2.584 2.584 0 0 0-1.093-1.791 7.054 7.054 0 0 0-6.574 0 2.262 2.262 0 0 0-1.051 1.567 26.58 26.58 0 0 0 0 4.787c.052.552.646 1.445 1.081 1.5 1.576.206 1.547 1.2 1.494 2.332-.032.678-.006 1.359-.006 2.039v4.66zm-.077-22.939a1.667 1.667 0 0 0-1.715-1.748 1.7 1.7 0 0 0-1.721 1.756 1.718 1.718 0 0 0 3.436-.008z" class="cls-1" transform="translate(-972.154 -702.427)"/>
        <path id="Path_61" d="M972.155 720.152a10.594 10.594 0 1 1 10.852 10.553 10.559 10.559 0 0 1-10.852-10.553zm10.664-8.851a8.8 8.8 0 1 0 8.73 8.787 8.771 8.771 0 0 0-8.73-8.788z" class="cls-1" transform="translate(-972.154 -702.427)"/>
        <path id="Path_62" d="M980.89 722.512c2.094-2.115 3.943-3.985 5.794-5.853.225-.226.421-.561.692-.643a5.158 5.158 0 0 1 1.28-.071c-.012.435.151 1.011-.066 1.277a33.208 33.208 0 0 1-2.331 2.4c-1.41 1.412-2.845 2.8-4.224 4.241-.73.762-1.339.857-2.093.034-.916-1-1.9-1.934-2.863-2.892-.471-.468-.823-1.062-.174-1.5a1.543 1.543 0 0 1 1.411.264c.884.789 1.64 1.725 2.574 2.743z" class="cls-1" transform="translate(-972.154 -702.427)"/>
    </g>
</svg>
