<svg xmlns="http://www.w3.org/2000/svg" width="62.677" height="51.067" viewBox="0 0 62.677 51.067">
    <defs>
        <style>
            .cls-1{fill:#275d6f}
        </style>
    </defs>
    <g id="Measures_-_Travel_Icon">
        <path id="Path_68" d="M988.7 442.7c0-.8-.043-1.41.009-2.006.1-1.162-.209-1.693-1.553-1.859a11.609 11.609 0 0 1-10.196-11.485c-.171-9.043 3.618-15.56 11.017-18.435a19.437 19.437 0 0 1 6.628-1.3c9.344-.141 18.693-.1 28.041-.026a2.325 2.325 0 0 0 2.667-1.828 40.98 40.98 0 0 1 2.428-5.973 4.558 4.558 0 0 1 2.28-2.08 60.284 60.284 0 0 1 6.6-1.7c2.259-.515 3.353.477 2.913 2.786-1.113 5.856-2.211 11.72-3.587 17.517a7.541 7.541 0 0 1-2.667 3.757c-2.455 1.934-5.219 3.473-7.751 5.318a4.534 4.534 0 0 0-1.688 2.4c-1.53 6.679-6.466 10.9-13.3 11.148-1.949.071-3.9.011-5.956.011v3.913c1.72 0 3.413.028 5.106-.008 1.4-.029 2.532.34 2.551 1.946s-1.184 2.049-2.521 2.048c-4.483 0-8.968-.077-13.452-.1-2.944-.015-5.891.1-8.833-.011a14.467 14.467 0 0 1-9.208-3.754c-1.059-.935-1.834-2.022-.75-3.325s2.235-.776 3.341.2a11.193 11.193 0 0 0 7.881 2.846zm46.33-41.9c-2.606.011-4.125.895-4.748 3.256-.437 1.65-1.35 3.17-1.835 4.814-.629 2.125-1.9 2.809-4.083 2.775-7.37-.114-14.742-.012-22.114-.068-1.371-.011-1.831.4-1.773 1.782.1 2.392.029 4.791.028 7.186 0 4.369-2.1 6.589-6.486 6.714-3.13.088-6.265.026-9.4.031H981.2a7.153 7.153 0 0 0 6.855 7.53c7.67.208 15.354.255 23.021 0 4.975-.169 8.327-3.957 8.969-8.954a4.556 4.556 0 0 1 1.651-2.789c2.866-2.109 5.911-3.973 8.843-6a3.518 3.518 0 0 0 1.507-1.73c1.062-4.772 1.985-9.582 2.982-14.542zm-53.766 22.419c4.6 0 9 .058 13.392-.035 1.294-.028 1.849-1.058 1.856-2.325.011-2.575-.021-5.15.046-7.724.032-1.239-.51-1.551-1.656-1.553a13.368 13.368 0 0 0-8.111 2.528 12.9 12.9 0 0 0-5.529 9.114zm19.081 15.946h-7.485v3.57h7.483z" class="cls-1" transform="translate(-976.951 -395.779)"/>
        <path id="Path_69" d="M997.444 399.877h-11.388a5.537 5.537 0 0 1-2.358-.132c-.687-.36-1.522-1.235-1.524-1.885s.893-1.367 1.516-1.914c.252-.221.829-.092 1.258-.092h29.3c.246 0 .492 0 .738.008 1.344.049 2.3.584 2.249 2.079-.043 1.379-.955 1.916-2.22 1.923-3.316.018-6.632.012-9.95.017a9.7 9.7 0 0 0-2.2.051c-.447.108-1.1.613-1.13.979-.1 1.474-.334 2.866-2.145 2.824-1.836-.043-1.982-1.5-1.956-2.944a4.971 4.971 0 0 0-.19-.914z" class="cls-1" transform="translate(-974.144 -395.813)"/>
    </g>
</svg>
