<svg xmlns="http://www.w3.org/2000/svg" width="62.081" height="37.877" viewBox="0 0 62.081 37.877">
    <defs>
        <style>
            .cls-1{fill:#275d6f;stroke:#275d6f}
        </style>
    </defs>
    <g id="Measures_-_Mask_Icon" transform="translate(.52 .486)">
        <path id="Path_70" d="M978.52 576.079l4.428-7.094a4.213 4.213 0 0 1 5.776-1.7 4.145 4.145 0 0 1 1.409 5.763q-5.1 9.513-10.24 19a3.955 3.955 0 0 1-.773 1.055 54.86 54.86 0 0 1-12.415 8.732 13.653 13.653 0 0 1-12.676.074 54.221 54.221 0 0 1-12.616-8.851 3.22 3.22 0 0 1-.648-.852c-3.473-6.436-6.957-12.866-10.388-19.324a4.1 4.1 0 0 1 7.08-4.153q2.075 3.227 4.064 6.508c.4.653.712.876 1.5.487a108.289 108.289 0 0 0 14.564-8.307c1.82-1.285 3.618-1.081 5.579.073 4.884 2.875 9.852 5.608 14.789 8.393a3.887 3.887 0 0 0 .567.196zm-35.871 8.807c0 2-.025 4 .019 6a1.922 1.922 0 0 0 .419 1.28 46.959 46.959 0 0 0 12.76 8.611 10.51 10.51 0 0 0 8.165.267c5.171-1.981 9.432-5.334 13.543-8.912a1.717 1.717 0 0 0 .411-1.169c.03-4.038.006-8.076.035-12.113a1.326 1.326 0 0 0-.846-1.4 103.654 103.654 0 0 1-15.312-8.672 2.531 2.531 0 0 0-3.13.007 98.659 98.659 0 0 1-14.986 8.516 1.66 1.66 0 0 0-1.1 1.829c.073 1.916.022 3.837.022 5.756zm37.026 3.149l.248.041a5.78 5.78 0 0 0 .454-.631q4.1-7.592 8.18-15.192a2.384 2.384 0 0 0-.756-3.437c-1.207-.692-2.48-.285-3.347 1.093-1.319 2.1-2.595 4.221-3.949 6.295a5.013 5.013 0 0 0-.847 3.035c.066 2.236.017 4.476.017 6.714v2.082zm-38.987.138c.1-.231.187-.329.187-.427.007-3.234.016-6.469-.007-9.7a2.053 2.053 0 0 0-.308-1.005c-1.524-2.483-3.036-4.976-4.648-7.4a3.036 3.036 0 0 0-1.63-1.05 2.009 2.009 0 0 0-2.275.956 2.471 2.471 0 0 0 .01 2.717q4.017 7.423 8.012 14.86c.18.326.4.636.659 1.049z" class="cls-1" transform="translate(-929.838 -566.538)"/>
        <path id="Path_71" d="M954.463 591.295a3.078 3.078 0 0 1-3.125 3.217 4.439 4.439 0 0 1-4.13-4.448 3.069 3.069 0 0 1 3.2-3.132 4.348 4.348 0 0 1 4.055 4.363zm-1.714-.058a2.667 2.667 0 0 0-2.413-2.529 1.338 1.338 0 0 0-1.38 1.48 2.634 2.634 0 0 0 2.408 2.529c.947-.028 1.312-.624 1.385-1.48z" class="cls-1" transform="translate(-929.838 -566.538)"/>
        <path id="Path_72" d="M961.156 578.725c0 1.435.064 2.875-.042 4.3-.03.4-.564.762-.867 1.141-.27-.371-.765-.739-.773-1.116-.061-2.908-.031-5.819-.019-8.728 0-.594.131-1.272.876-1.082a1.553 1.553 0 0 1 .787 1.181c.098 1.43.037 2.869.038 4.304z" class="cls-1" transform="translate(-929.838 -566.538)"/>
        <path id="Path_73" d="M961.337 588.144a4.761 4.761 0 0 1-.662 1.34c-.14.146-.979-.062-.988-.161a11.668 11.668 0 0 1 .013-2.429c.011-.1.867-.295 1-.147a4.99 4.99 0 0 1 .637 1.397z" class="cls-1" transform="translate(-929.838 -566.538)"/>
    </g>
</svg>
