<svg xmlns="http://www.w3.org/2000/svg" id="Measures_-_Physical_Distancing_Icon" width="63.501" height="54.42" viewBox="0 0 63.501 54.42">
    <defs>
        <style>
            .cls-1{fill:#265b6d}
        </style>
    </defs>
    <path id="Path_63" d="M793.083 722.083c1.226-1.339 2.242-2.419 3.222-3.532a1.739 1.739 0 0 1 2.328-.454c.688.34 1.432.561 2.132.876a5.558 5.558 0 0 1 3.586 5.412q.01 5.692 0 11.385a5.4 5.4 0 0 1-3.556 5.407 1.407 1.407 0 0 0-1 1.6c.029 4.308.018 8.615.012 12.924 0 2.228-.7 2.909-2.953 2.911h-7.693c-2.239 0-2.9-.664-2.9-2.948 0-9.54-.019-19.079.022-28.618a3.926 3.926 0 0 0-1.339-3.247c-1.374-1.228-2.605-2.613-3.932-3.9a4.788 4.788 0 0 1-1.57-3.693c.044-2.82-.009-5.641.018-8.461a3.284 3.284 0 0 1 3.385-3.55 3.375 3.375 0 0 1 3.359 3.616c.026 1.949-.078 3.9.047 5.844a4.007 4.007 0 0 0 .9 2.267c1.812 2.024 3.754 3.923 5.932 6.161zm6.728 16.984a3.485 3.485 0 0 0 2.273-3.51c0-3.385.013-6.769 0-10.155-.008-2.951-.6-3.832-3.374-4.72a1.943 1.943 0 0 0-1.571.341 33.917 33.917 0 0 0-2.847 2.8c-.9.956-1.687.906-2.6-.032-2.25-2.317-4.6-4.54-6.8-6.9a3.913 3.913 0 0 1-.909-2.274c-.125-2.044-.027-4.1-.05-6.151-.009-.856.121-1.941-1.178-1.9-1.147.036-1.09 1.019-1.092 1.85-.005 2.308.055 4.618-.023 6.922a4.081 4.081 0 0 0 1.438 3.383c1.36 1.246 2.582 2.641 3.932 3.9a4.453 4.453 0 0 1 1.462 3.543c-.042 9.435-.021 18.871-.021 28.308v1.783h3.449v-1.82-15.539c0-.784-.068-1.664 1-1.759 1.22-.108 1.214.818 1.214 1.673 0 5.385.059 10.771-.024 16.153-.022 1.392.621 1.492 1.666 1.446.962-.041 1.943.233 1.879-1.389-.117-2.918-.033-5.845-.033-8.768v-21.077c0-.8-.008-1.646 1.11-1.629 1.076.017 1.125.82 1.117 1.643-.015 1.539 0 3.077 0 4.616z" class="cls-1" transform="translate(-740.857 -704.198)"/>
    <path id="Path_64" d="M760.606 722.069c2.342-2.4 4.441-4.49 6.462-6.657a2.53 2.53 0 0 0 .417-1.552c.045-2 0-4 .021-6a3.384 3.384 0 0 1 3.471-3.659c1.954.032 3.267 1.48 3.279 3.66.014 2.77-.037 5.54.017 8.31a4.785 4.785 0 0 1-1.543 3.7c-1.357 1.326-2.646 2.725-4.042 4.008a3.691 3.691 0 0 0-1.252 2.976c.036 9.592.021 19.184.017 28.777 0 2.354-.632 2.971-3.026 2.974-2.616 0-5.233.014-7.848 0-1.9-.011-2.673-.8-2.677-2.731-.009-4.717 0-9.434 0-14.238-.468-.206-.929-.393-1.374-.609a5.742 5.742 0 0 1-3.094-5.667c.123-3.374-.05-6.757-.064-10.137a6.934 6.934 0 0 1 6.538-7.356 2.128 2.128 0 0 1 1.441.657c1.079 1.075 2.072 2.242 3.257 3.544zm4.662 34.246v-1.834c0-9.49.018-18.981-.018-28.471a4.21 4.21 0 0 1 1.343-3.284c1.484-1.415 2.992-2.821 4.329-4.369a4.631 4.631 0 0 0 1.087-2.559c.145-2.454.054-4.922.049-7.384 0-.836.027-1.82-1.108-1.843-1.279-.026-1.166 1.052-1.173 1.915-.018 2.154.032 4.31-.036 6.463a2.668 2.668 0 0 1-.593 1.642c-2.416 2.516-4.9 4.967-7.365 7.43a1.346 1.346 0 0 1-2.146 0c-.976-.984-1.947-1.97-2.947-2.93a2.017 2.017 0 0 0-.988-.639c-1.614-.162-3.945 1.74-3.983 3.429-.092 4.144-.067 8.292 0 12.437.018 1.252.779 2.126 2.19 2.744v-1.852-11.543c0-.359-.124-.794.035-1.06.251-.42.679-.984 1.058-1 .349-.019.857.537 1.064.954a3.362 3.362 0 0 1 .059 1.366c0 9.592.028 19.184-.028 28.777-.008 1.351.344 1.751 1.714 1.746s1.867-.344 1.831-1.795c-.1-3.949-.033-7.9-.035-11.849 0-1.488-.083-2.983.046-4.459.039-.439.671-.825 1.031-1.235a7.43 7.43 0 0 1 1.115 1.181c.16.262.036.7.036 1.06v16.963z" class="cls-1" transform="translate(-749.365 -704.197)"/>
    <path id="Path_65" d="M769.284 729.068a15.7 15.7 0 0 1 2.224 2.015c.3.385.114 1.143.149 1.733-.557-.037-1.31.146-1.638-.148a51.651 51.651 0 0 1-4.341-4.351 1.774 1.774 0 0 1 .013-1.719 46.544 46.544 0 0 1 4.229-4.247c.363-.321 1.157-.155 1.752-.214-.046.587.121 1.344-.185 1.725a14.415 14.415 0 0 1-2.195 1.893l.277.453h14.283a16.862 16.862 0 0 1-2.095-2.195 4.919 4.919 0 0 1-.333-1.845c.631.071 1.462-.088 1.859.254 1.432 1.238 2.72 2.643 4.059 3.987a1.352 1.352 0 0 1-.04 2.149c-1.341 1.342-2.635 2.74-4.07 3.972-.389.332-1.219.148-1.846.2.083-.59-.023-1.321.29-1.74a15.152 15.152 0 0 1 2.086-1.959l-.218-.326h-13.97z" class="cls-1" transform="translate(-744.812 -699.124)"/>
    <path id="Path_66" d="M796.9 711.635a5.452 5.452 0 0 1-5.644 5.6 5.626 5.626 0 1 1 .029-11.252 5.494 5.494 0 0 1 5.615 5.652zm-8.977-.04a3.384 3.384 0 0 0 3.251 3.405 3.421 3.421 0 0 0 3.475-3.352 3.361 3.361 0 1 0-6.722-.054z" class="cls-1" transform="translate(-739.117 -703.693)"/>
    <path id="Path_67" d="M759.352 717.239a5.472 5.472 0 0 1-5.54-5.706 5.648 5.648 0 1 1 5.54 5.706zm3.446-5.57a3.365 3.365 0 0 0-6.73-.09 3.434 3.434 0 0 0 3.4 3.429 3.4 3.4 0 0 0 3.332-3.339z" class="cls-1" transform="translate(-748.107 -703.696)"/>
</svg>
