<svg xmlns="http://www.w3.org/2000/svg" id="Measures_-_Stay_Informed_Icon" width="54.717" height="54.735" viewBox="0 0 54.717 54.735">
    <defs>
        <style>
            .cls-1{fill:#275d6f}
        </style>
    </defs>
    <path id="Path_14" d="M1054.268 504.552v-1.9-19.623c0-3.7 1.957-5.672 5.628-5.674h36.512c3.671 0 5.631 1.977 5.633 5.672v19.623c0 .629.055 1.256.087 1.952.625.035 1.1.064 1.573.087a1.673 1.673 0 0 1 1.778 1.845c.02 1.823.078 3.649-.019 5.467a5 5 0 0 1-4.565 4.631c-.425.042-.857.055-1.284.055q-21.473.006-42.945 0c-3.854-.005-5.843-1.972-5.861-5.666-.007-1.341-.013-2.681 0-4.021.02-1.8.44-2.212 2.289-2.317.319-.024.631-.072 1.174-.131zm13.542.039a10.973 10.973 0 0 1 5.133-8.91c-2.864-4.156-1.475-7.832.491-9.68a6.642 6.642 0 0 1 8.685-.513 9.02 9.02 0 0 1 2.59 3.72c.834 2.29.106 4.515-1.4 6.5a10.956 10.956 0 0 1 5.23 8.97c2.939 0 5.719-.056 8.5.027 1.268.038 1.646-.37 1.635-1.637-.056-6.431-.02-12.862-.026-19.293 0-2.452-.45-2.894-2.908-2.9q-17.6-.006-35.209 0c-2.417 0-2.858.45-2.861 2.939q-.008 9.566.005 19.131c0 .52.063 1.039.1 1.64zm10.421 3.609h-3.7c-6.159 0-12.319-.013-18.479.024-.562 0-1.456.176-1.629.539-1.121 2.356.231 4.4 2.831 4.4q20.89.012 41.78 0a7.934 7.934 0 0 0 1.441-.071c1.335-.251 1.636-1.2 1.539-3.718-.054-1.4-.953-1.169-1.772-1.17q-11.003-.011-22.011-.004zm-6.817-3.614h13.479a6.53 6.53 0 0 0-3.232-5.649 6.422 6.422 0 0 0-7.013 0 6.5 6.5 0 0 0-3.234 5.648zm10.036-13.561a3.3 3.3 0 1 0-3.376 3.345 3.289 3.289 0 0 0 3.376-3.345z" class="cls-1" transform="translate(-1050.801 -461.955)"/>
    <path id="Path_15" d="M1074.691 465.867a14.447 14.447 0 0 1 8.445 3.5c.948.775 1.4 1.732.536 2.772-.8.967-1.792.794-2.693.036a10.66 10.66 0 0 0-14.376.047 1.688 1.688 0 0 1-2.679-.134c-.759-.976-.374-1.886.5-2.669a15.551 15.551 0 0 1 10.267-3.552z" class="cls-1" transform="translate(-1046.469 -465.867)"/>
    <path id="Path_16" d="M1072.989 470.6c2.059.807 3.96 1.447 5.761 2.3a1.759 1.759 0 1 1-1.806 2.99 6.882 6.882 0 0 0-7.988 0 1.758 1.758 0 1 1-1.813-2.982c1.857-.866 3.803-1.517 5.846-2.308z" class="cls-1" transform="translate(-1045.597 -464.254)"/>
</svg>
