<svg xmlns="http://www.w3.org/2000/svg" id="Measures_-_Clean_Icon" width="56.137" height="61.037" viewBox="0 0 56.137 61.037">
    <defs>
        <style>
            .cls-1{fill:#275d6f}
        </style>
    </defs>
    <path id="Path_40" d="M787.5 492.559h1.975a2.806 2.806 0 0 1 2.852 2.081 2.863 2.863 0 0 1-1.024 3.53 1.939 1.939 0 0 0-1.117 2.151.317.317 0 0 1-.013.157c-.7 1.927-1.407 3.853-2.1 5.781a9.047 9.047 0 0 0-.236.881c-.3 1.175-.588 2.349-1.025 4.1.78 1.046 1.927 2.667 3.16 4.222a11.2 11.2 0 0 1 2.542 7.459c-.09 4.114-.016 8.231-.028 12.345-.008 2.635-1.236 3.852-3.894 3.856q-8.785.012-17.57 0c-2.546-.005-3.72-1.156-3.92-3.737A70.507 70.507 0 0 1 769 512.468c.087-.342.125-.694.286-1.6a26.71 26.71 0 0 0-3.5 1.595 38.092 38.092 0 0 0-3.464 2.755 1.7 1.7 0 0 1-2.637-.181 25.247 25.247 0 0 1-6.788-17.564c-.016-1.146.7-1.41 1.583-1.586 2.844-.565 5.719-1.01 8.517-1.749a13.956 13.956 0 0 0 3.664-1.928c.96-.605 1.811-1.385 2.8-2.155-.776-3.747 1.709-6.837 5.8-6.856 4.8-.022 9.6-.013 14.4 0 2.117.007 2.807.731 2.824 2.87 0 .58-.04 1.165.008 1.741a2.511 2.511 0 0 1-1.832 2.782c-1.117.435-2.2.966-3.3 1.454zm-16.12-.485a13.432 13.432 0 0 0-2.89 1.748 8.655 8.655 0 0 1-5.192 2.725c-2.236.347-4.433.931-6.666 1.3-1.047.17-1.512.549-1.276 1.632.434 2 .685 4.057 1.3 6a18.412 18.412 0 0 0 4.5 7.544c.6-.464 1.129-.807 1.58-1.237a10.823 10.823 0 0 1 8.361-2.977c4.209.166 8.43.054 12.646.022 1.678-.012 1.892-.472 1.456-2.029a2 2 0 0 1 .5-1.777 1.46 1.46 0 0 0 .62-2.216 1.793 1.793 0 0 1 .5-1.655c1.2-.83 1.335-1.487.177-2.456a1.593 1.593 0 0 1-.385-1.356c.075-.3.678-.558 1.089-.664.551-.141 1.166-.044 1.712-.2a.769.769 0 0 0 .062-1.512 4.013 4.013 0 0 0-1.4-.15c-4.427-.009-8.853-.057-13.279.021-1.722.029-2.995-.379-3.41-2.763zm8.4 44.8v-.009c2.742 0 5.486.024 8.227-.008 1.922-.022 2.213-.336 2.228-2.216.015-1.951 0-3.9 0-5.854 0-10.529.5-8.131-5.531-16.4-.062-.086-.109-.2-.194-.247-.652-.334-1.3-.911-1.969-.933-3.108-.1-6.223 0-9.332-.073-1.126-.028-1.543.392-1.823 1.438a71.628 71.628 0 0 0-2.009 22.277c.073 1.469.737 2.059 2.172 2.038 2.751-.042 5.492-.014 8.234-.014zm10.278-51.25c-5.241 0-10.5-.065-15.747.074-.757.02-1.564.948-2.188 1.607a1.4 1.4 0 0 0 .251 1.332 2.557 2.557 0 0 1 1.451 2.734c-.078.886.3 1.212 1.19 1.2 2.846-.037 5.7.005 8.542-.045a1.446 1.446 0 0 0 1.112-.584 5.852 5.852 0 0 1 3.675-3.015c2.126-.814 2.114-.842 1.717-3.304z" class="cls-1" transform="translate(-752.897 -478.09)"/>
    <path id="Path_41" d="M785.269 485.409a3.519 3.519 0 0 1-.445-1.257c0-.442.235-1.14.563-1.286a42.385 42.385 0 0 1 4.848-1.826 1.44 1.44 0 0 1 1.254.607 1.4 1.4 0 0 1-.286 1.328c-1.703.795-3.471 1.448-5.934 2.434z" class="cls-1" transform="translate(-742.711 -478.779)"/>
    <path id="Path_42" d="M791.943 490.756c-.667.3-1.319.871-1.782.745a32.677 32.677 0 0 1-4.737-1.74 1.438 1.438 0 0 1-.583-1.258c.079-.351.8-.893 1.078-.809 1.8.555 3.567 1.239 5.321 1.936.227.09.326.502.703 1.126z" class="cls-1" transform="translate(-742.709 -476.653)"/>
    <path id="Path_43" d="M789.88 487.228a10.092 10.092 0 0 1-2.358-.055 1.644 1.644 0 0 1-.956-1.15c-.042-.284.591-.94.951-.964a37.632 37.632 0 0 1 4.894 0c.354.024.971.681.93.967a1.62 1.62 0 0 1-.943 1.148 11.665 11.665 0 0 1-2.518.054z" class="cls-1" transform="translate(-742.157 -477.516)"/>
    <path id="Path_44" d="M792.95 516.658c-.8.817-1.213 1.617-1.744 1.7-1.079.175-1.144-.766-1.149-1.6s-.005-1.779 1.089-1.658c.531.061.983.817 1.804 1.558z" class="cls-1" transform="translate(-741.041 -467.909)"/>
    <path id="Path_45" d="M754.538 517.905c-.744-.8-1.535-1.264-1.578-1.783-.086-1.063.877-1.087 1.706-1.087.847 0 1.783.087 1.591 1.17-.094.529-.904.93-1.719 1.7z" class="cls-1" transform="translate(-752.877 -467.927)"/>
    <path id="Path_46" d="M789.394 502.472c-.78.835-1.179 1.655-1.705 1.745-1.036.179-1.2-.7-1.191-1.579 0-.835.025-1.773 1.091-1.682.523.044.987.797 1.805 1.516z" class="cls-1" transform="translate(-742.176 -472.421)"/>
    <path id="Path_47" d="M785.625 502.02c-.814-.8-1.632-1.221-1.709-1.754-.157-1.075.793-1.14 1.632-1.134.818.005 1.791 0 1.663 1.1-.063.529-.837.979-1.586 1.788z" class="cls-1" transform="translate(-743.006 -473.001)"/>
    <path id="Path_48" d="M788.984 512.8c.842.769 1.688 1.173 1.775 1.7.166 1.017-.728 1.212-1.6 1.2-.814-.015-1.793 0-1.694-1.086.048-.535.807-1.002 1.519-1.814z" class="cls-1" transform="translate(-741.869 -468.64)"/>
    <path id="Path_49" d="M758.438 514.229c-.789.721-1.227 1.469-1.719 1.505-1.175.088-1.323-.935-1.113-1.774.143-.576.708-1.047 1.086-1.564z" class="cls-1" transform="translate(-752.057 -468.769)"/>
    <path id="Path_50" d="M758.475 518.567c-.82.736-1.281 1.5-1.812 1.552-1.051.105-1.109-.83-1.117-1.663-.008-.871.173-1.752 1.19-1.594.529.084.947.892 1.739 1.705z" class="cls-1" transform="translate(-752.051 -467.35)"/>
    <path id="Path_51" d="M793.421 516.167c-.737-.818-1.521-1.287-1.562-1.816-.084-1.063.888-1.083 1.708-1.08s1.79.074 1.587 1.167c-.1.538-.911.945-1.733 1.729z" class="cls-1" transform="translate(-740.467 -468.49)"/>
    <path id="Path_52" d="M789.574 512.132c.846-.693 1.326-1.411 1.853-1.45 1.109-.081 1.022.9 1.039 1.7.018.872-.136 1.754-1.2 1.529-.527-.111-.908-.919-1.692-1.779z" class="cls-1" transform="translate(-741.196 -469.317)"/>
    <path id="Path_53" d="M789.4 498.122c-.8.8-1.22 1.6-1.742 1.676-1.03.144-1.166-.748-1.161-1.609.005-.836.049-1.765 1.113-1.642.527.062.974.824 1.79 1.575z" class="cls-1" transform="translate(-742.178 -473.829)"/>
    <path id="Path_54" d="M759.091 514.553c.752.82 1.516 1.269 1.576 1.8.127 1.1-.852 1.074-1.659 1.092-.846.018-1.771-.074-1.605-1.142.082-.531.88-.949 1.688-1.75z" class="cls-1" transform="translate(-751.465 -468.081)"/>
    <path id="Path_55" d="M789.972 502.032c-.782-.813-1.578-1.256-1.641-1.787-.129-1.058.815-1.134 1.649-1.113.8.021 1.794 0 1.622 1.119-.083.539-.856.971-1.63 1.781z" class="cls-1" transform="translate(-741.596 -473.002)"/>
    <path id="Path_56" d="M796 486.448c-.48.255-.985.741-1.431.691a1.054 1.054 0 0 1 .106-2.1c.45 0 .9.528 1.353.827z" class="cls-1" transform="translate(-739.895 -477.496)"/>
    <path id="Path_57" d="M792.95 489.911c.52.752 1.059 1.191 1.022 1.572-.041.414-.619.777-.963 1.161-.406-.383-1.024-.71-1.145-1.167-.081-.313.536-.808 1.086-1.566z" class="cls-1" transform="translate(-740.467 -475.943)"/>
    <path id="Path_58" d="M793.064 479.321c.458.776.968 1.253.906 1.637-.067.408-.678.727-1.051 1.084-.375-.415-.968-.791-1.051-1.26-.058-.317.596-.765 1.196-1.461z" class="cls-1" transform="translate(-740.465 -479.321)"/>
    <path id="Path_59" d="M778.7 521.318c0 1.22-.024 2.161.005 3.1.033 1.047-.4 1.574-1.488 1.554-1.315-.024-2.633-.025-3.949.005-1.05.025-1.57-.394-1.522-1.494.042-.983.008-1.969.008-3.147-1.137 0-2.072-.028-3 .008-1.187.044-1.762-.435-1.706-1.678.055-1.208.054-2.423 0-3.633-.049-1.14.429-1.666 1.57-1.64.987.024 1.976.005 3.131.005 0-1.2.025-2.187-.007-3.171-.032-.967.332-1.5 1.363-1.488 1.422.017 2.844.012 4.266.005.939 0 1.323.505 1.324 1.386v3.273c1.074 0 2.049.026 3.019-.007 1.109-.039 1.677.4 1.644 1.566-.037 1.316-.005 2.633-.007 3.949a1.236 1.236 0 0 1-1.462 1.414c-.989-.035-1.984-.007-3.189-.007zm-9.286-2.289c.915 0 1.745.053 2.566-.012 1.463-.113 2.207.388 2.038 1.975A24.607 24.607 0 0 0 774 523.6h2.4v-2.457c.009-1.939.156-2.093 2.042-2.109.82-.007 1.642 0 2.482 0v-2.362c-1.038 0-1.977-.034-2.914.008-1.148.051-1.648-.47-1.617-1.6.025-.981.005-1.965.005-2.992H774c0 1.08-.029 2.071.008 3.059.041 1.079-.454 1.549-1.513 1.526-1.024-.021-2.047 0-3.079 0z" class="cls-1" transform="translate(-748.383 -469.617)"/>
</svg>
