<?xml version="1.0" encoding="utf-8"?>
<!-- Generator: Adobe Illustrator 23.0.1, SVG Export Plug-In . SVG Version: 6.00 Build 0)  -->
<svg version="1.1" id="Layer_1" xmlns="http://www.w3.org/2000/svg" xmlns:xlink="http://www.w3.org/1999/xlink" x="0px" y="0px"
	 viewBox="0 0 1680 416" style="enable-background:new 0 0 1680 416;" xml:space="preserve">
<style type="text/css">
	.st0{fill:url(#SVGID_1_);}
	.st1{fill:none;stroke:url(#SVGID_2_);stroke-width:5;stroke-miterlimit:10;}
	.st2{clip-path:url(#SVGID_4_);fill:none;}
	.st3{clip-path:url(#SVGID_4_);}
	.st4{clip-path:url(#SVGID_4_);fill:#391F85;}
	.st5{clip-path:url(#SVGID_4_);fill:url(#SVGID_5_);}
	.st6{clip-path:url(#SVGID_4_);fill:url(#SVGID_6_);}
	.st7{clip-path:url(#SVGID_4_);fill:url(#SVGID_7_);}
	.st8{clip-path:url(#SVGID_4_);fill:url(#SVGID_8_);}
	.st9{clip-path:url(#SVGID_4_);fill:url(#SVGID_9_);}
	.st10{clip-path:url(#SVGID_4_);fill:url(#SVGID_10_);}
	.st11{clip-path:url(#SVGID_4_);fill:url(#SVGID_11_);}
	.st12{clip-path:url(#SVGID_4_);fill:url(#SVGID_12_);}
	.st13{clip-path:url(#SVGID_4_);fill:url(#SVGID_13_);}
	.st14{clip-path:url(#SVGID_4_);fill:none;stroke:url(#SVGID_14_);stroke-width:5;stroke-miterlimit:10;}
	.st15{clip-path:url(#SVGID_4_);fill:url(#SVGID_15_);}
</style>
<g>
	
		<linearGradient id="SVGID_1_" gradientUnits="userSpaceOnUse" x1="546.9007" y1="-143.0309" x2="356.7707" y2="-212.2409" gradientTransform="matrix(1 0 0 1 564 547.6339)">
		<stop  offset="0" style="stop-color:#86A8E7;stop-opacity:0.68"/>
		<stop  offset="0.3" style="stop-color:#CFE4F9;stop-opacity:0.92"/>
		<stop  offset="0.45" style="stop-color:#EAF8FE"/>
		<stop  offset="0.58" style="stop-color:#CBEFFC;stop-opacity:0.5"/>
		<stop  offset="1" style="stop-color:#4DC8F0;stop-opacity:0.4"/>
	</linearGradient>
	<path class="st0" d="M1102.7,371H951c-1.7,0-3,1.3-3,3s1.3,3,3,3h151.7c1.7,0,3-1.3,3-3S1104.3,371,1102.7,371z"/>
	
		<linearGradient id="SVGID_2_" gradientUnits="userSpaceOnUse" x1="2204.6389" y1="-2432.4006" x2="-6226.9907" y2="4641.8994" gradientTransform="matrix(1 0 0 1 564 547.6339)">
		<stop  offset="0" style="stop-color:#86A8E7;stop-opacity:0.68"/>
		<stop  offset="0.3" style="stop-color:#CFE4F9;stop-opacity:0.92"/>
		<stop  offset="0.45" style="stop-color:#EAF8FE"/>
		<stop  offset="0.58" style="stop-color:#CBEFFC;stop-opacity:0.5"/>
		<stop  offset="1" style="stop-color:#4DC8F0;stop-opacity:0.4"/>
	</linearGradient>
	<path class="st1" d="M115.7,394H44.4c-6.1,0-12-2.4-16.3-6.7c-4.3-4.3-6.7-10.2-6.7-16.3s2.4-12,6.7-16.3s10.2-6.7,16.3-6.7h71.2
		c6.1,0,12,2.4,16.3,6.7c4.3,4.3,6.8,10.2,6.8,16.3c0,6.1-2.4,12-6.7,16.3C127.6,391.6,121.8,394,115.7,394z"/>
	<g>
		<defs>
			<rect id="SVGID_3_" x="2.5" y="0.6" width="1680" height="414.8"/>
		</defs>
		<clipPath id="SVGID_4_">
			<use xlink:href="#SVGID_3_"  style="overflow:visible;"/>
		</clipPath>
		<rect x="240" y="0" class="st2" width="1440" height="416"/>
		<g id="ZCPiP3.tif" class="st3">
			
				<image style="overflow:visible;enable-background:new    ;" width="731" height="416" id="Layer_0" xlink:href="../8FCCE3F005DA605F.png"  transform="matrix(1 0 0 1 953.9855 1.690610e-02)">
			</image>
		</g>
		<rect x="240" y="0" class="st2" width="1440" height="416"/>
		<path class="st4" d="M0,0h1234.5L947.4,416H0L0,0L0,0z"/>
		<rect x="240" y="0" class="st2" width="1440" height="416"/>
		<rect x="240" y="0" class="st2" width="1440" height="416"/>
		
			<linearGradient id="SVGID_5_" gradientUnits="userSpaceOnUse" x1="-444.6734" y1="-286.0309" x2="-634.8033" y2="-355.2409" gradientTransform="matrix(1 0 0 1 564 547.6339)">
			<stop  offset="0" style="stop-color:#86A8E7;stop-opacity:0.68"/>
			<stop  offset="0.3" style="stop-color:#CFE4F9;stop-opacity:0.92"/>
			<stop  offset="0.45" style="stop-color:#EAF8FE"/>
			<stop  offset="0.58" style="stop-color:#CBEFFC;stop-opacity:0.5"/>
			<stop  offset="1" style="stop-color:#4DC8F0;stop-opacity:0.4"/>
		</linearGradient>
		<path class="st5" d="M111.1,228H-40.6c-1.7,0-3,1.3-3,3s1.3,3,3,3h151.7c1.7,0,3-1.3,3-3S112.7,228,111.1,228z"/>
		<rect x="240" y="0" class="st2" width="1440" height="416"/>
		
			<linearGradient id="SVGID_6_" gradientUnits="userSpaceOnUse" x1="1630.0492" y1="9619.5264" x2="1392.0491" y2="7326.3867" gradientTransform="matrix(1 0 0 1 564 547.6339)">
			<stop  offset="0" style="stop-color:#86A8E7;stop-opacity:0.68"/>
			<stop  offset="0.3" style="stop-color:#CFE4F9;stop-opacity:0.92"/>
			<stop  offset="0.45" style="stop-color:#EAF8FE"/>
			<stop  offset="0.58" style="stop-color:#CBEFFC;stop-opacity:0.5"/>
			<stop  offset="1" style="stop-color:#4DC8F0;stop-opacity:0.4"/>
		</linearGradient>
		<path class="st6" d="M1198.4,169h-84.7c-1.5,0-2.6-1.4-2.6-3s1.2-3,2.6-3h84.7c1.5,0,2.6,1.4,2.6,3S1199.8,169,1198.4,169z"/>
		<rect x="240" y="0" class="st2" width="1440" height="416"/>
		
			<linearGradient id="SVGID_7_" gradientUnits="userSpaceOnUse" x1="565.475" y1="9478.5264" x2="327.4749" y2="7185.3867" gradientTransform="matrix(1 0 0 1 564 547.6339)">
			<stop  offset="0" style="stop-color:#86A8E7;stop-opacity:0.68"/>
			<stop  offset="0.3" style="stop-color:#CFE4F9;stop-opacity:0.92"/>
			<stop  offset="0.45" style="stop-color:#EAF8FE"/>
			<stop  offset="0.58" style="stop-color:#CBEFFC;stop-opacity:0.5"/>
			<stop  offset="1" style="stop-color:#4DC8F0;stop-opacity:0.4"/>
		</linearGradient>
		<path class="st7" d="M133.8,28H49.1c-1.5,0-2.6-1.4-2.6-3s1.2-3,2.6-3h84.7c1.5,0,2.6,1.4,2.6,3S135.2,28,133.8,28z"/>
		<rect x="240" y="0" class="st2" width="1440" height="416"/>
		
			<linearGradient id="SVGID_8_" gradientUnits="userSpaceOnUse" x1="892.3156" y1="9731.9131" x2="587.8156" y2="7454.6836" gradientTransform="matrix(1 0 0 1 564 547.6339)">
			<stop  offset="0" style="stop-color:#86A8E7;stop-opacity:0.68"/>
			<stop  offset="0.3" style="stop-color:#CFE4F9;stop-opacity:0.92"/>
			<stop  offset="0.45" style="stop-color:#EAF8FE"/>
			<stop  offset="0.58" style="stop-color:#CBEFFC;stop-opacity:0.5"/>
			<stop  offset="1" style="stop-color:#4DC8F0;stop-opacity:0.4"/>
		</linearGradient>
		<path class="st8" d="M158.3,329H92.4c-1.2,0-2-1.4-2-3s0.9-3,2-3h65.9c1.2,0,2,1.4,2,3S159.5,329,158.3,329z"/>
		<rect x="240" y="0" class="st2" width="1440" height="416"/>
		
			<linearGradient id="SVGID_9_" gradientUnits="userSpaceOnUse" x1="9201.2705" y1="23788.4824" x2="8589.2705" y2="22071.541" gradientTransform="matrix(1 0 0 1 564 547.6339)">
			<stop  offset="0" style="stop-color:#86A8E7;stop-opacity:0.68"/>
			<stop  offset="0.3" style="stop-color:#CFE4F9;stop-opacity:0.92"/>
			<stop  offset="0.45" style="stop-color:#EAF8FE"/>
			<stop  offset="0.58" style="stop-color:#CBEFFC;stop-opacity:0.5"/>
			<stop  offset="1" style="stop-color:#4DC8F0;stop-opacity:0.4"/>
		</linearGradient>
		<path class="st9" d="M1229.8,311h-58.6c-1.2,0-2.2-1.3-2.2-3s1-3,2.2-3h58.6c1.2,0,2.2,1.3,2.2,3S1231,311,1229.8,311z"/>
		<rect x="240" y="0" class="st2" width="1440" height="416"/>
		
			<linearGradient id="SVGID_10_" gradientUnits="userSpaceOnUse" x1="37610.4414" y1="-8714.6963" x2="36179.1406" y2="-8386.9951" gradientTransform="matrix(1 0 0 1 564 547.6339)">
			<stop  offset="0" style="stop-color:#86A8E7;stop-opacity:0.68"/>
			<stop  offset="0.3" style="stop-color:#CFE4F9;stop-opacity:0.92"/>
			<stop  offset="0.45" style="stop-color:#EAF8FE"/>
			<stop  offset="0.58" style="stop-color:#CBEFFC;stop-opacity:0.5"/>
			<stop  offset="1" style="stop-color:#4DC8F0;stop-opacity:0.4"/>
		</linearGradient>
		<path class="st10" d="M1111.4,317.2h-8.5v-8.5c0-0.5-0.1-0.9-0.3-1.4c-0.2-0.4-0.4-0.8-0.8-1.2c-0.3-0.3-0.7-0.6-1.2-0.8
			c-0.4-0.2-0.9-0.3-1.4-0.3h-1.4c-0.5,0-1,0.1-1.4,0.3c-0.4,0.2-0.8,0.4-1.2,0.8c-0.3,0.3-0.6,0.7-0.8,1.2
			c-0.2,0.4-0.3,0.9-0.3,1.4v8.5h-8.5c-0.5,0-1,0.1-1.4,0.3c-0.4,0.2-0.8,0.4-1.2,0.8c-0.3,0.3-0.6,0.7-0.8,1.2
			c-0.2,0.4-0.3,0.9-0.3,1.4v1.4c0,0.5,0.1,1,0.3,1.4c0.2,0.4,0.4,0.8,0.8,1.2c0.3,0.3,0.7,0.6,1.2,0.8c0.4,0.2,0.9,0.3,1.4,0.3h8.5
			v8.5c0,0.5,0.1,0.9,0.3,1.4c0.2,0.4,0.4,0.8,0.8,1.2c0.3,0.3,0.7,0.6,1.2,0.8c0.4,0.2,0.9,0.3,1.4,0.3h1.4c0.5,0,1-0.1,1.4-0.3
			c0.4-0.2,0.8-0.4,1.2-0.8c0.3-0.3,0.6-0.7,0.8-1.2c0.2-0.4,0.3-0.9,0.3-1.4V326h8.5c0.5,0,1-0.1,1.4-0.3c0.4-0.2,0.8-0.4,1.2-0.8
			c0.3-0.3,0.6-0.7,0.8-1.2c0.2-0.4,0.3-0.9,0.3-1.4v-1.4c0-0.5-0.1-1-0.3-1.4c-0.2-0.4-0.4-0.8-0.8-1.2c-0.3-0.3-0.7-0.6-1.2-0.8
			C1112.3,317.3,1111.8,317.2,1111.4,317.2L1111.4,317.2z"/>
		<rect x="240" y="0" class="st2" width="1440" height="416"/>
		
			<linearGradient id="SVGID_11_" gradientUnits="userSpaceOnUse" x1="36633.8711" y1="-8860.6768" x2="35202.5703" y2="-8532.9756" gradientTransform="matrix(1 0 0 1 564 547.6339)">
			<stop  offset="0" style="stop-color:#86A8E7;stop-opacity:0.68"/>
			<stop  offset="0.3" style="stop-color:#CFE4F9;stop-opacity:0.92"/>
			<stop  offset="0.45" style="stop-color:#EAF8FE"/>
			<stop  offset="0.58" style="stop-color:#CBEFFC;stop-opacity:0.5"/>
			<stop  offset="1" style="stop-color:#4DC8F0;stop-opacity:0.4"/>
		</linearGradient>
		<path class="st11" d="M134.8,171.2h-8.5v-8.5c0-0.5-0.1-0.9-0.3-1.4c-0.2-0.4-0.4-0.8-0.8-1.2c-0.3-0.3-0.7-0.6-1.2-0.8
			c-0.4-0.2-0.9-0.3-1.4-0.3h-1.4c-0.5,0-0.9,0.1-1.4,0.3c-0.4,0.2-0.8,0.4-1.2,0.8c-0.3,0.3-0.6,0.7-0.8,1.2
			c-0.2,0.4-0.3,0.9-0.3,1.4v8.5H109c-0.5,0-0.9,0.1-1.4,0.3c-0.4,0.2-0.8,0.4-1.2,0.8c-0.3,0.3-0.6,0.7-0.8,1.2
			c-0.2,0.4-0.3,0.9-0.3,1.4v1.4c0,0.5,0.1,0.9,0.3,1.4c0.2,0.4,0.4,0.8,0.8,1.2c0.3,0.3,0.7,0.6,1.2,0.8c0.4,0.2,0.9,0.3,1.4,0.3
			h8.5v8.5c0,0.5,0.1,0.9,0.3,1.4c0.2,0.4,0.4,0.8,0.8,1.2c0.3,0.3,0.7,0.6,1.2,0.8c0.4,0.2,0.9,0.3,1.4,0.3h1.4
			c0.5,0,0.9-0.1,1.4-0.3c0.4-0.2,0.8-0.4,1.2-0.8c0.3-0.3,0.6-0.7,0.8-1.2c0.2-0.4,0.3-0.9,0.3-1.4V180h8.5c0.5,0,0.9-0.1,1.4-0.3
			c0.4-0.2,0.8-0.4,1.2-0.8c0.3-0.3,0.6-0.7,0.8-1.2c0.2-0.4,0.3-0.9,0.3-1.4v-1.4c0-0.5-0.1-0.9-0.3-1.4c-0.2-0.4-0.4-0.8-0.8-1.2
			c-0.3-0.3-0.7-0.6-1.2-0.8S135.2,171.2,134.8,171.2L134.8,171.2z"/>
		<rect x="240" y="0" class="st2" width="1440" height="416"/>
		
			<linearGradient id="SVGID_12_" gradientUnits="userSpaceOnUse" x1="905.613" y1="428.9549" x2="390.743" y2="-1358.6052" gradientTransform="matrix(1 0 0 1 564 547.6339)">
			<stop  offset="0" style="stop-color:#86A8E7;stop-opacity:0.68"/>
			<stop  offset="0.3" style="stop-color:#CFE4F9;stop-opacity:0.92"/>
			<stop  offset="0.45" style="stop-color:#EAF8FE"/>
			<stop  offset="0.58" style="stop-color:#CBEFFC;stop-opacity:0.5"/>
			<stop  offset="1" style="stop-color:#4DC8F0;stop-opacity:0.4"/>
		</linearGradient>
		<path class="st12" d="M1237.3,47h-72.6c-1.5,0-2.7-1.3-2.7-3s1.2-3,2.7-3h72.6c1.5,0,2.7,1.3,2.7,3S1238.7,47,1237.3,47z"/>
		<rect x="240" y="0" class="st2" width="1440" height="416"/>
		
			<linearGradient id="SVGID_13_" gradientUnits="userSpaceOnUse" x1="2143.271" y1="-841.6837" x2="624.0989" y2="-493.8436" gradientTransform="matrix(1 0 0 1 564 547.6339)">
			<stop  offset="0" style="stop-color:#86A8E7;stop-opacity:0.68"/>
			<stop  offset="0.3" style="stop-color:#CFE4F9;stop-opacity:0.92"/>
			<stop  offset="0.45" style="stop-color:#EAF8FE"/>
			<stop  offset="0.58" style="stop-color:#CBEFFC;stop-opacity:0.5"/>
			<stop  offset="1" style="stop-color:#4DC8F0;stop-opacity:0.4"/>
		</linearGradient>
		<path class="st13" d="M1100.3,72.5h-8.8v-8.8c0-0.5-0.1-1-0.3-1.4s-0.5-0.9-0.8-1.2c-0.3-0.3-0.8-0.6-1.2-0.8
			c-0.5-0.2-0.9-0.3-1.4-0.3h-1.6c-0.5,0-1,0.1-1.4,0.3c-0.5,0.2-0.9,0.5-1.2,0.8c-0.3,0.3-0.6,0.8-0.8,1.2s-0.3,0.9-0.3,1.4v8.8
			h-8.8c-0.5,0-1,0.1-1.4,0.3c-0.5,0.2-0.9,0.5-1.2,0.8c-0.3,0.3-0.6,0.8-0.8,1.2c-0.2,0.5-0.3,0.9-0.3,1.4v1.5c0,0.5,0.1,1,0.3,1.4
			c0.2,0.5,0.5,0.9,0.8,1.2c0.3,0.3,0.8,0.6,1.2,0.8c0.5,0.2,0.9,0.3,1.4,0.3h8.8v8.8c0,0.5,0.1,1,0.3,1.4s0.5,0.9,0.8,1.2
			c0.3,0.3,0.8,0.6,1.2,0.8c0.5,0.2,0.9,0.3,1.4,0.3h1.5c0.5,0,1-0.1,1.4-0.3c0.5-0.2,0.9-0.5,1.2-0.8c0.3-0.3,0.6-0.8,0.8-1.2
			s0.3-0.9,0.3-1.4v-8.7h8.8c0.5,0,1-0.1,1.4-0.3c0.5-0.2,0.9-0.5,1.2-0.8c0.3-0.3,0.6-0.8,0.8-1.2c0.2-0.5,0.3-0.9,0.3-1.4v-1.5
			c0-0.5-0.1-1-0.3-1.4c-0.2-0.5-0.5-0.9-0.8-1.2c-0.3-0.4-0.8-0.6-1.2-0.8C1101.2,72.6,1100.8,72.5,1100.3,72.5L1100.3,72.5z"/>
		<rect x="240" y="0" class="st2" width="1440" height="416"/>
		
			<linearGradient id="SVGID_14_" gradientUnits="userSpaceOnUse" x1="3214.2129" y1="-2564.4006" x2="-5217.4165" y2="4509.8994" gradientTransform="matrix(1 0 0 1 564 547.6339)">
			<stop  offset="0" style="stop-color:#86A8E7;stop-opacity:0.68"/>
			<stop  offset="0.3" style="stop-color:#CFE4F9;stop-opacity:0.92"/>
			<stop  offset="0.45" style="stop-color:#EAF8FE"/>
			<stop  offset="0.58" style="stop-color:#CBEFFC;stop-opacity:0.5"/>
			<stop  offset="1" style="stop-color:#4DC8F0;stop-opacity:0.4"/>
		</linearGradient>
		<path class="st14" d="M1125.3,262H1054c-6.1,0-12-2.4-16.3-6.7s-6.7-10.2-6.7-16.3s2.4-11.9,6.7-16.3c4.3-4.3,10.2-6.7,16.3-6.7
			h71.2c6.1,0,12,2.4,16.3,6.7c4.3,4.3,6.8,10.2,6.8,16.3s-2.4,12-6.7,16.3C1137.2,259.6,1131.4,262,1125.3,262z"/>
		<rect x="240" y="0" class="st2" width="1440" height="416"/>
		<rect x="240" y="0" class="st2" width="1440" height="416"/>
		
			<linearGradient id="SVGID_15_" gradientUnits="userSpaceOnUse" x1="-2481.9783" y1="-32.1452" x2="-3392.7483" y2="176.3805" gradientTransform="matrix(1 0 0 1 564 547.6339)">
			<stop  offset="0" style="stop-color:#86A8E7;stop-opacity:0.68"/>
			<stop  offset="0.3" style="stop-color:#CFE4F9;stop-opacity:0.92"/>
			<stop  offset="0.45" style="stop-color:#EAF8FE"/>
			<stop  offset="0.58" style="stop-color:#CBEFFC;stop-opacity:0.5"/>
			<stop  offset="1" style="stop-color:#4DC8F0;stop-opacity:0.4"/>
		</linearGradient>
		<path class="st15" d="M90.1,54.8h-5.5v-5.4c0-0.3-0.1-0.6-0.2-0.9c-0.1-0.3-0.3-0.5-0.5-0.8c-0.2-0.2-0.5-0.4-0.8-0.5
			c-0.3-0.1-0.6-0.2-0.9-0.2h-0.9c-0.3,0-0.6,0.1-0.9,0.2c-0.3,0.1-0.5,0.3-0.8,0.5c-0.2,0.2-0.4,0.5-0.5,0.8
			c-0.1,0.3-0.2,0.6-0.2,0.9v5.4h-5.4c-0.3,0-0.6,0.1-0.9,0.2c-0.3,0.1-0.5,0.3-0.8,0.5c0,0.1-0.1,0.4-0.2,0.7
			c-0.1,0.3-0.2,0.6-0.2,0.9V58c0,0.3,0.1,0.6,0.2,0.9s0.3,0.5,0.5,0.8c0.2,0.2,0.5,0.4,0.8,0.5c0.3,0.1,0.6,0.2,0.9,0.2h5.4v5.4
			c0,0.3,0.1,0.6,0.2,0.9c0.1,0.3,0.3,0.5,0.5,0.8c0.2,0.2,0.5,0.4,0.8,0.5c0.3,0.1,0.6,0.2,0.9,0.2h0.9c0.3,0,0.6-0.1,0.9-0.2
			c0.3-0.1,0.5-0.3,0.8-0.5c0.2-0.2,0.4-0.5,0.5-0.8c0.1-0.3,0.2-0.6,0.2-0.9v-5.4h5.4c0.3,0,0.6-0.1,0.9-0.2
			c0.3-0.1,0.5-0.3,0.8-0.5c0.2-0.2,0.4-0.5,0.5-0.8c0.1-0.3,0.2-0.6,0.2-0.9v-0.9c0-0.3-0.1-0.6-0.2-0.9c-0.1-0.3-0.3-0.5-0.5-0.8
			c-0.2-0.2-0.5-0.4-0.8-0.5C90.7,54.8,90.4,54.8,90.1,54.8z"/>
	</g>
</g>
<g id="F5R4o9.tif">
	
		<image style="overflow:visible;enable-background:new    ;" width="731" height="416" id="Layer_1_1_" xlink:href="../8FCCE3F005DA605C.png"  transform="matrix(0.5432 0 0 0.5432 1901.5916 -67.6517)">
	</image>
</g>
<image style="overflow:visible;enable-background:new    ;" width="1880" height="416" xlink:href="connect_banner_large.png"  transform="matrix(1 0 0 1 0 -715.183)">
</image>
</svg>
